<svg id="Layer_1" data-name="Layer 1" xmlns="http://www.w3.org/2000/svg" viewBox="0 0 356.08 942.97"><defs><style>.cls-1{fill:#fafafa;}.cls-2{fill:#263238;}.cls-3,.cls-7{fill:#ffb347;}.cls-3{stroke:#ffb347;stroke-miterlimit:10;}.cls-4{fill:#f5f5f5;}.cls-5{fill:#e0e0e0;}.cls-6{fill:#e8505b;}.cls-8{opacity:0.2;}.cls-9{fill:#f7f7f7;}.cls-10{fill:#ffbe9d;}.cls-11{fill:#eb996e;}.cls-12{fill:#455a64;}.cls-13{opacity:0.3;}.cls-14{fill:#b89778;}</style></defs><path class="cls-1" d="M282.92,26.71l-24.53,0c-2.41.06-5-.25-7.39.8a11.62,11.62,0,0,0-5.84,5.19,12.72,12.72,0,0,0-1.37,3.94,24.81,24.81,0,0,0-.18,4.34v4.52a21.23,21.23,0,0,1-.29,4.68,12.44,12.44,0,0,1-5.48,7.9,11.56,11.56,0,0,1-4.81,1.7c-1.75.15-3.44,0-5.2.08h-89a14,14,0,0,1-3.56-.35,11.82,11.82,0,0,1-6.11-3.78,12.59,12.59,0,0,1-3-6.66,28.57,28.57,0,0,1-.13-3.69V41.78c0-2.47.18-5-.74-7.24a11.79,11.79,0,0,0-4.38-5.74,11.4,11.4,0,0,0-7.06-1.95H57.29A37.61,37.61,0,0,0,27.05,40.26a37.87,37.87,0,0,0-7.77,15.68c-.38,1.44-.49,2.94-.75,4.41-.07,1.25-.14,2.5-.17,3.76v605A39.2,39.2,0,0,0,19.87,681a37.61,37.61,0,0,0,14.57,20.11,38.89,38.89,0,0,0,24,6.61l25.54,0,50.55,0,98.85.06,48.16,0c7.94-.05,15.9.12,23.71-.1a37.24,37.24,0,0,0,21.25-8.24,40,40,0,0,0,7.68-8.5,37.32,37.32,0,0,0,4.7-10.37,39.51,39.51,0,0,0,1.42-11.25V657.93q0-22.86,0-45.18c.07-119,.13-226.22.18-316.25s.16-162.87.21-213.22q0-9.45,0-17.82A38.73,38.73,0,0,0,338,50.24,37.69,37.69,0,0,0,330.89,39a36.28,36.28,0,0,0-8.54-7,35.91,35.91,0,0,0-14.09-5,31,31,0,0,0-3.82-.35l-1.3-.09s-1.74,0-5.14.05Z"/><path class="cls-2" d="M303.52,26.85l1.29,0a30.74,30.74,0,0,1,3.82.3,35.55,35.55,0,0,1,14.15,4.89,36.18,36.18,0,0,1,8.61,7,37.73,37.73,0,0,1,7.18,11.26,39.09,39.09,0,0,1,2.83,15.32q0,8.35,0,17.78c0,50.27.07,123,.13,212.84s0,196.85.05,315.65v56.54a40.52,40.52,0,0,1-1.44,11.51,38.19,38.19,0,0,1-4.82,10.63,41.22,41.22,0,0,1-7.86,8.72,38.16,38.16,0,0,1-21.78,8.45c-7.91.23-15.77.06-23.71.11l-48,0-98.6-.05-50.43,0H59.45A39.85,39.85,0,0,1,34.89,701a38.62,38.62,0,0,1-15-20.65,41.57,41.57,0,0,1-1.57-12.76V654.82q0-25.4,0-50.44,0-50.1,0-98.63c0-64.65,0-127,.07-186.43s.05-115.87.08-168.7q0-39.63,0-76.46,0-4.59,0-9.15c0-1.52.13-3.06.21-4.58.27-1.5.38-3,.77-4.49a38.72,38.72,0,0,1,7.94-16,39.28,39.28,0,0,1,14-10.45,39.68,39.68,0,0,1,16.77-3.18l32.88,0,15.82,0h7.75a12,12,0,0,1,7.43,2.08,12.45,12.45,0,0,1,4.61,6.06c1,2.42.74,5,.77,7.45,0,1.23,0,2.45,0,3.67a28.49,28.49,0,0,0,.12,3.6,11.93,11.93,0,0,0,2.82,6.31,11.13,11.13,0,0,0,5.76,3.58,12.47,12.47,0,0,0,3.4.33h3.48l13.61,0,49.74.07,21.93,0c1.73,0,3.5.08,5.14-.07a11.16,11.16,0,0,0,4.62-1.62,12,12,0,0,0,5.29-7.6,21.3,21.3,0,0,0,.29-4.58c0-1.53,0-3,0-4.52a25.68,25.68,0,0,1,.2-4.39,12.84,12.84,0,0,1,1.42-4,12,12,0,0,1,6-5.32c2.48-1.07,5.12-.75,7.49-.8l24.47.07,15.05.06c3.39,0,5.13.06,5.13.06s-1.74,0-5.13,0l-15.05,0-24.47,0c-2.4.06-5-.25-7.36.8A11.54,11.54,0,0,0,245.68,33a12.57,12.57,0,0,0-1.37,3.93,25.75,25.75,0,0,0-.18,4.33c0,1.49,0,3,0,4.52a21.07,21.07,0,0,1-.3,4.66,12.33,12.33,0,0,1-5.46,7.89,11.47,11.47,0,0,1-4.8,1.7c-1.74.15-3.43,0-5.19.08H139.63a13.85,13.85,0,0,1-3.55-.35A11.77,11.77,0,0,1,130,56a12.56,12.56,0,0,1-3-6.65,28.48,28.48,0,0,1-.13-3.68V42c0-2.47.18-4.95-.74-7.23A11.72,11.72,0,0,0,121.77,29a11.35,11.35,0,0,0-7-2H58.28A37.5,37.5,0,0,0,28.12,40.46a37.94,37.94,0,0,0-7.75,15.66c-.38,1.43-.49,2.93-.75,4.4-.08,1.49-.18,3-.2,4.49v9.15q0,36.78,0,76.46c0,52.83,0,109.29,0,168.7s0,121.78,0,186.43q0,48.5,0,98.63,0,25,0,50.44v12.72A40.85,40.85,0,0,0,21,680a37.62,37.62,0,0,0,14.54,20.08,38.82,38.82,0,0,0,24,6.59l25.47,0,50.43,0,98.6.06,48,0c7.91-.05,15.86.12,23.64-.1a37.16,37.16,0,0,0,21.21-8.22,39.83,39.83,0,0,0,7.65-8.49,37,37,0,0,0,4.69-10.35,39.38,39.38,0,0,0,1.42-11.23V657q0-22.82,0-45.1c.06-118.8.12-225.79.17-315.65S341,133.67,341,83.4q0-9.42,0-17.78a38.66,38.66,0,0,0-2.75-15.2,37.61,37.61,0,0,0-7.09-11.2,37.61,37.61,0,0,0-22.57-11.93,30.86,30.86,0,0,0-3.81-.35Z"/><path class="cls-2" d="M310.81,87.94c0,.16-6.23.35-13.92.41s-13.93,0-13.93-.18,6.23-.34,13.92-.41S310.81,87.78,310.81,87.94Z"/><path class="cls-2" d="M310.87,95.07c0,.16-6.23.34-13.92.41S283,95.46,283,95.3s6.23-.35,13.92-.41S310.87,94.91,310.87,95.07Z"/><path class="cls-2" d="M310.93,102.19c0,.17-6.23.35-13.92.41s-13.93,0-13.93-.18,6.23-.34,13.92-.4S310.93,102,310.93,102.19Z"/><path class="cls-3" d="M57.5,110.33a3.58,3.58,0,0,1,.58,0l1.61-.05,6-.15-.17.17c0-1.32,0-2.76-.07-4.31,0-.8-.07-1.56,0-2.48a2.29,2.29,0,0,1,2-1.84c1,0,1.8-.06,2.84,0a2.31,2.31,0,0,1,2,2.3q0,3,.07,6.29l-.28-.28,7.5-.07-.28.29c0-3-.06-6.15-.08-9.35,0-.8,0-1.59,0-2.38a2.44,2.44,0,0,0-1.06-1.77l-3.28-3.23-3.16-3.13-1.54-1.51a3.54,3.54,0,0,0-1.55-1.16A2,2,0,0,0,66.8,88c-.45.38-.94.93-1.39,1.37L62.71,92C61,93.8,59.26,95.4,58,96.92c-.54.84-.33,1.87-.37,2.8s0,1.81,0,2.65c0,1.62,0,3,0,4.25s0,2,0,2.73,0,1,0,1a6,6,0,0,1,0-.9c0-.73-.05-1.61-.08-2.69s-.06-2.65-.09-4.29c0-.85,0-1.74-.05-2.69,0-.48,0-1,0-1.48a3.19,3.19,0,0,1,.42-1.57c1.38-1.7,3-3.2,4.75-5L65,89c.48-.47.87-.94,1.44-1.43a2.57,2.57,0,0,1,2.18-.43,4,4,0,0,1,1.8,1.29L72,89.89,75.17,93l3.29,3.23a6.85,6.85,0,0,1,.84.91,2.43,2.43,0,0,1,.39,1.26c0,.8,0,1.59,0,2.4,0,3.2.05,6.32.07,9.34v.29H79.5l-7.5,0h-.28v-.27q0-3.27,0-6.29a1.81,1.81,0,0,0-1.52-1.82c-.86,0-1.88,0-2.72,0a1.84,1.84,0,0,0-1.62,1.46c-.07.75,0,1.63,0,2.4v4.48h-.16l-6-.05-1.57,0A3.05,3.05,0,0,1,57.5,110.33Z"/><rect class="cls-4" x="46.31" y="147.99" width="263.04" height="47.85" rx="20.18"/><path class="cls-2" d="M289.17,195.84s.52-.06,1.51-.13a21.56,21.56,0,0,0,4.35-.84,21,21,0,0,0,6.32-3.33,19.66,19.66,0,0,0,6-7.61,19.17,19.17,0,0,0,1.59-5.57,54.09,54.09,0,0,0,.18-6.45,43.91,43.91,0,0,0-.31-7,19.71,19.71,0,0,0-2.62-7,19.91,19.91,0,0,0-13.27-9.22c-2.89-.55-6-.3-9.15-.35l-9.71,0-207.56.14a19.7,19.7,0,0,0-19.62,18.05c-.17,2.38-.05,4.9-.09,7.33a22.81,22.81,0,0,0,.75,7.12,19.87,19.87,0,0,0,8.15,11.15,18.9,18.9,0,0,0,6.37,2.71,28.47,28.47,0,0,0,6.92.52H82.91l27,0,93.31.1,62.91.16,17.1.09,4.45,0c1,0,1.51.05,1.51.05s-.51,0-1.51,0l-4.45.05-17.1.09-62.91.15-93.31.11H69a29.85,29.85,0,0,1-7.14-.54,20.13,20.13,0,0,1-6.68-2.84,20.78,20.78,0,0,1-8.55-11.69,24,24,0,0,1-.79-7.38c0-2.46-.09-4.87.08-7.41A20.7,20.7,0,0,1,66.5,147.5l207.56.14,9.71,0c3.15.07,6.25-.19,9.27.39a20.49,20.49,0,0,1,16.27,16.77,42.89,42.89,0,0,1,.27,7.09,53,53,0,0,1-.22,6.5,19.77,19.77,0,0,1-1.66,5.68,20,20,0,0,1-6.17,7.68,21.05,21.05,0,0,1-6.45,3.29,20.61,20.61,0,0,1-4.39.75C289.69,195.84,289.17,195.84,289.17,195.84Z"/><path class="cls-2" d="M293.23,170.77c-.09,0-.08-.77-.45-2.07a8.63,8.63,0,0,0-3.18-4.54,8.25,8.25,0,1,0,0,13.23,8.64,8.64,0,0,0,3.18-4.55c.37-1.3.36-2.07.45-2.07s.06.19.07.56a6,6,0,0,1-.15,1.6,8.64,8.64,0,0,1-3.13,5,9,9,0,0,1-8.56,1.4,9.09,9.09,0,0,1,0-17.13,9,9,0,0,1,8.56,1.4,8.62,8.62,0,0,1,3.13,5,6.08,6.08,0,0,1,.15,1.6C293.29,170.58,293.27,170.77,293.23,170.77Z"/><path class="cls-2" d="M298,185.72c-.2.18-2.1-1.55-4.25-3.87s-3.72-4.35-3.52-4.54,2.1,1.55,4.24,3.87S298.2,185.53,298,185.72Z"/><path class="cls-5" d="M81.82,167.13H77.13v-1.22H87.92v1.22H83.23v12.13H81.82Z"/><path class="cls-5" d="M97.57,174.66H89.18a3.71,3.71,0,0,0,3.95,3.49,4,4,0,0,0,3.07-1.31l.76.87a5.3,5.3,0,0,1-9.13-3.47,4.88,4.88,0,1,1,9.76,0C97.59,174.36,97.57,174.51,97.57,174.66Zm-8.39-1H96.3a3.57,3.57,0,0,0-7.12,0Z"/><path class="cls-5" d="M106.46,179.26l-3.18-4.2-3.21,4.2H98.55l4-5.15-3.77-4.88h1.52l3,3.92,3-3.92h1.49L104,174.11l4,5.15Z"/><path class="cls-5" d="M115.54,178.65a3.19,3.19,0,0,1-2.12.7,2.65,2.65,0,0,1-2.93-2.92v-6.06h-1.8v-1.14h1.8V167h1.35v2.2h3v1.14h-3v6a1.61,1.61,0,0,0,1.74,1.83,2.24,2.24,0,0,0,1.48-.51Z"/><path class="cls-6" d="M225.74,241.4c0,.27-19.25.49-43,.49s-43-.22-43-.49,19.25-.49,43-.49S225.74,241.13,225.74,241.4Z"/><path class="cls-2" d="M294.31,259.05c0,.27-34.6.49-77.28.49s-77.29-.22-77.29-.49,34.6-.49,77.29-.49S294.31,258.78,294.31,259.05Z"/><path class="cls-2" d="M292.49,271.66c0,.27-34.2.49-76.37.49s-76.38-.22-76.38-.49,34.19-.49,76.38-.49S292.49,271.39,292.49,271.66Z"/><path class="cls-2" d="M229.93,283.68c0,.27-20.19.49-45.09.49s-45.1-.22-45.1-.49,20.19-.49,45.1-.49S229.93,283.41,229.93,283.68Z"/><path class="cls-6" d="M225.74,337.33c0,.27-19.25.49-43,.49s-43-.22-43-.49,19.25-.49,43-.49S225.74,337.06,225.74,337.33Z"/><path class="cls-2" d="M294.31,355c0,.27-34.6.49-77.28.49s-77.29-.22-77.29-.49,34.6-.49,77.29-.49S294.31,354.71,294.31,355Z"/><path class="cls-2" d="M292.49,367.58c0,.27-34.2.49-76.37.49s-76.38-.22-76.38-.49,34.19-.49,76.38-.49S292.49,367.31,292.49,367.58Z"/><path class="cls-2" d="M229.93,379.6c0,.27-20.19.49-45.09.49s-45.1-.22-45.1-.49,20.19-.48,45.1-.48S229.93,379.33,229.93,379.6Z"/><path class="cls-6" d="M225.74,433.25c0,.27-19.25.49-43,.49s-43-.22-43-.49,19.25-.49,43-.49S225.74,433,225.74,433.25Z"/><path class="cls-2" d="M294.31,450.9c0,.27-34.6.49-77.28.49s-77.29-.22-77.29-.49,34.6-.49,77.29-.49S294.31,450.63,294.31,450.9Z"/><path class="cls-2" d="M292.49,463.51c0,.27-34.2.49-76.37.49s-76.38-.22-76.38-.49,34.19-.49,76.38-.49S292.49,463.24,292.49,463.51Z"/><path class="cls-2" d="M229.93,475.53c0,.27-20.19.49-45.09.49s-45.1-.22-45.1-.49,20.19-.49,45.1-.49S229.93,475.26,229.93,475.53Z"/><path class="cls-6" d="M225.74,529.18c0,.27-19.25.49-43,.49s-43-.22-43-.49,19.25-.49,43-.49S225.74,528.91,225.74,529.18Z"/><path class="cls-2" d="M294.31,546.83c0,.27-34.6.49-77.28.49s-77.29-.22-77.29-.49,34.6-.49,77.29-.49S294.31,546.56,294.31,546.83Z"/><path class="cls-2" d="M292.49,559.43c0,.27-34.2.49-76.37.49s-76.38-.22-76.38-.49,34.19-.49,76.38-.49S292.49,559.16,292.49,559.43Z"/><path class="cls-2" d="M229.93,571.46c0,.27-20.19.49-45.09.49s-45.1-.22-45.1-.49,20.19-.49,45.1-.49S229.93,571.18,229.93,571.46Z"/><path class="cls-6" d="M225.74,624.43c0,.27-19.25.49-43,.49s-43-.22-43-.49,19.25-.49,43-.49S225.74,624.16,225.74,624.43Z"/><path class="cls-2" d="M294.31,642.08c0,.27-34.6.49-77.28.49s-77.29-.22-77.29-.49,34.6-.49,77.29-.49S294.31,641.81,294.31,642.08Z"/><path class="cls-2" d="M292.49,654.68c0,.27-34.2.49-76.37.49s-76.38-.22-76.38-.49,34.19-.49,76.38-.49S292.49,654.41,292.49,654.68Z"/><path class="cls-2" d="M229.93,666.71c0,.27-20.19.49-45.09.49s-45.1-.22-45.1-.49,20.19-.49,45.1-.49S229.93,666.44,229.93,666.71Z"/><rect class="cls-7" x="56.2" y="232.19" width="52.65" height="70.05" transform="translate(-185.14 348.24) rotate(-89.68)"/><polygon class="cls-6" points="47.35 293.34 72 260.75 87.04 281.31 97.38 270.42 117.4 293.73 47.35 293.34"/><path class="cls-6" d="M93.61,256.86a5.52,5.52,0,1,1-5.48-5.54A5.52,5.52,0,0,1,93.61,256.86Z"/><g class="cls-8"><polygon points="47.35 293.34 72 260.75 87.04 281.31 97.38 270.42 117.4 293.73 47.35 293.34"/></g><g class="cls-8"><path d="M93.61,256.86a5.52,5.52,0,1,1-5.48-5.54A5.52,5.52,0,0,1,93.61,256.86Z"/></g><rect class="cls-7" x="56.2" y="326.89" width="52.65" height="70.05" transform="translate(-279.85 442.42) rotate(-89.68)"/><polygon class="cls-6" points="47.35 388.05 72 355.45 87.04 376.01 97.38 365.13 117.4 388.44 47.35 388.05"/><path class="cls-6" d="M93.61,351.57A5.52,5.52,0,1,1,88.13,346,5.51,5.51,0,0,1,93.61,351.57Z"/><g class="cls-8"><polygon points="47.35 388.05 72 355.45 87.04 376.01 97.38 365.13 117.4 388.44 47.35 388.05"/></g><g class="cls-8"><path d="M93.61,351.57A5.52,5.52,0,1,1,88.13,346,5.51,5.51,0,0,1,93.61,351.57Z"/></g><rect class="cls-7" x="56.2" y="421.6" width="52.65" height="70.05" transform="translate(-374.55 536.6) rotate(-89.68)"/><polygon class="cls-6" points="47.35 482.75 72 450.16 87.04 470.72 97.38 459.83 117.4 483.14 47.35 482.75"/><path class="cls-6" d="M93.61,446.27a5.52,5.52,0,1,1-5.48-5.54A5.52,5.52,0,0,1,93.61,446.27Z"/><g class="cls-8"><polygon points="47.35 482.75 72 450.16 87.04 470.72 97.38 459.83 117.4 483.14 47.35 482.75"/></g><g class="cls-8"><path d="M93.61,446.27a5.52,5.52,0,1,1-5.48-5.54A5.52,5.52,0,0,1,93.61,446.27Z"/></g><rect class="cls-7" x="56.2" y="516.3" width="52.65" height="70.05" transform="translate(-469.25 630.77) rotate(-89.68)"/><polygon class="cls-6" points="47.35 577.45 72 544.86 87.04 565.42 97.38 554.53 117.4 577.85 47.35 577.45"/><path class="cls-6" d="M93.61,541a5.52,5.52,0,1,1-5.48-5.55A5.51,5.51,0,0,1,93.61,541Z"/><g class="cls-8"><polygon points="47.35 577.45 72 544.86 87.04 565.42 97.38 554.53 117.4 577.85 47.35 577.45"/></g><g class="cls-8"><path d="M93.61,541a5.52,5.52,0,1,1-5.48-5.55A5.51,5.51,0,0,1,93.61,541Z"/></g><rect class="cls-7" x="56.2" y="610.54" width="52.65" height="70.05" transform="translate(-563.5 724.49) rotate(-89.68)"/><polygon class="cls-6" points="47.35 671.7 72 639.11 87.04 659.67 97.38 648.78 117.4 672.09 47.35 671.7"/><path class="cls-6" d="M93.61,635.22a5.52,5.52,0,1,1-5.48-5.55A5.51,5.51,0,0,1,93.61,635.22Z"/><g class="cls-8"><polygon points="47.35 671.7 72 639.11 87.04 659.67 97.38 648.78 117.4 672.09 47.35 671.7"/></g><g class="cls-8"><path d="M93.61,635.22a5.52,5.52,0,1,1-5.48-5.55A5.51,5.51,0,0,1,93.61,635.22Z"/></g><circle class="cls-7" cx="309.42" cy="34.24" r="34.24"/><path class="cls-9" d="M307.37,46.09a2.29,2.29,0,0,1-1.46-.52l-11.52-9.49a2.29,2.29,0,1,1,2.92-3.54l9.74,8,14.17-17.34a2.3,2.3,0,0,1,3.55,2.91L309.15,45.25a2.32,2.32,0,0,1-1.56.83Z"/><path class="cls-10" d="M41,345.62l1.37-5.43a20.31,20.31,0,0,0-.23-10.8l-5.67-18.92a7.1,7.1,0,0,0-3.26-4.11c-4.3-2.48-12.82-7.25-13.55-6.65-5.22,4.34,6.44,12,6.44,12s4.5,5,.94,8.73c-4.05,4.23-11.66-5-11.66-5s.4-1,.77-.79c.14.07,4,3.15,7.32,3.15V311.6l-6.89-4.32a7,7,0,0,0-5.13-.91l-2.38.51a6.07,6.07,0,0,0-3.77,2.57L3,312.85l-1,1.29a4.31,4.31,0,0,0-.46,4.36l1.09,2.41L1.19,323a6.53,6.53,0,0,0-.77,6.05l11.63,16,17.23,28.11,18.63-20Z"/><path class="cls-11" d="M4.89,329a3.86,3.86,0,0,1-.62-1.15,3.24,3.24,0,0,1,.57-3l.09-.11-.07-.13-.2-.41a29.87,29.87,0,0,0-2.48-4.55,28.37,28.37,0,0,0,2.07,4.75l.2.41,0-.23a3.36,3.36,0,0,0-.5,3.35C4.32,328.77,4.87,329.06,4.89,329Z"/><path class="cls-11" d="M6.31,308.14A5.5,5.5,0,0,0,6,311.36a24.71,24.71,0,0,0,3.14,7.4,9.73,9.73,0,0,1,1.09,2.16,6,6,0,0,1,.13,2.29,5.63,5.63,0,0,0,.41,3.44A6.85,6.85,0,0,0,13,329a3.9,3.9,0,0,1-2.7-2.11,5.88,5.88,0,0,1-.63-3.73,5.31,5.31,0,0,0-.14-2,9.58,9.58,0,0,0-1-2,21.61,21.61,0,0,1-3-7.7C5.15,309.19,6.28,308,6.31,308.14Z"/><path class="cls-11" d="M15.5,315.1a14.8,14.8,0,0,0-.87-2.56c-.7-1.32-1.48-2.34-1.31-2.48s1.17.7,1.95,2.15S15.72,315.2,15.5,315.1Z"/><polygon class="cls-12" points="47.35 441.78 54.45 450.68 91.3 406.4 43.05 342.93 19.19 361.64 47.35 441.78"/><polygon class="cls-6" points="211.32 870.13 214.37 942.06 253.21 941.19 250.3 869.11 211.32 870.13"/><path class="cls-2" d="M233.44,938.92c.33,0-.28-15.77-1.34-35.18s-2.2-35.14-2.52-35.12.28,15.77,1.34,35.18S233.12,938.93,233.44,938.92Z"/><polygon class="cls-2" points="214.16 937.1 253.01 936.1 253.21 941.19 214.37 942.06 214.16 937.1"/><path class="cls-2" d="M252.28,918.15c.06,0-.3-.6-1.06-1.52a27.06,27.06,0,0,0-3.64-3.54,26.17,26.17,0,0,0-6.46-3.91,20.65,20.65,0,0,0-24,5.6,17.91,17.91,0,0,0-2.65,4.35,4.79,4.79,0,0,0-.53,1.79c.21.11,1-2.48,3.81-5.6a20.66,20.66,0,0,1,14.26-6.64c6.35-.34,11.73,2.63,15,5.07S252.13,918.3,252.28,918.15Z"/><g class="cls-13"><polygon points="251.13 889.63 251.45 897.55 212.51 898.25 212.26 892.28 251.13 889.63"/></g><path class="cls-6" d="M119.89,874.43l1.89,43.78S77.92,934.85,77.48,943l85-.63L162.35,874Z"/><path class="cls-5" d="M147.48,914.5a3.5,3.5,0,0,1,2.45,4,3.36,3.36,0,0,1-3.92,2.46c-1.67-.41-3.13-2.6-2.57-4.22s2.84-2.91,4.36-2.11"/><path class="cls-2" d="M162.5,942.34V935.5l-82.27,3.1s-3.8,1.69-3.35,4.37Z"/><path class="cls-2" d="M121,918.5c0,.42,2.11.59,4.18,1.92s3.17,3.08,3.56,2.91-.26-2.58-2.79-4.14S120.92,918.12,121,918.5Z"/><path class="cls-2" d="M112.06,922.28c-.09.41,1.72,1.1,3.15,2.86s1.86,3.63,2.28,3.61.66-2.39-1.16-4.55S112.06,921.88,112.06,922.28Z"/><path class="cls-2" d="M107,933.07c.38.08.94-2-.15-4.29s-3-3.18-3.22-2.83,1,1.56,1.91,3.45S106.62,933,107,933.07Z"/><path class="cls-2" d="M121.69,908.4c.18.38,2.09-.21,4.46-.07s4.21.88,4.43.52-1.57-1.84-4.36-2S121.48,908.07,121.69,908.4Z"/><path class="cls-2" d="M120.1,899c0,.17,1.65.42,4.29-.06a19.07,19.07,0,0,0,4.47-1.41,20.4,20.4,0,0,0,2.46-1.32,5.48,5.48,0,0,0,1.28-1,1.83,1.83,0,0,0,.18-2.23,2.3,2.3,0,0,0-1.84-.94,5.83,5.83,0,0,0-1.61.23,16,16,0,0,0-2.66.94,15.33,15.33,0,0,0-3.93,2.62c-2,1.86-2.64,3.43-2.5,3.5s1.15-1.17,3.16-2.71a17.07,17.07,0,0,1,3.81-2.18,16.09,16.09,0,0,1,2.46-.78c.9-.24,1.67-.26,1.91.15.08.15.1.21-.09.48a4.76,4.76,0,0,1-1,.74,21.92,21.92,0,0,1-2.26,1.31,23.6,23.6,0,0,1-4.13,1.62C121.7,898.62,120.09,898.75,120.1,899Z"/><path class="cls-2" d="M120.65,899.57c.15.07,1-1.44,1.1-4.15a14,14,0,0,0-.62-4.69,14.43,14.43,0,0,0-1.11-2.59,3.53,3.53,0,0,0-2.76-2.15,2,2,0,0,0-1.78,1.21,5.9,5.9,0,0,0-.43,1.57,9.62,9.62,0,0,0,0,2.89,9.92,9.92,0,0,0,1.87,4.42c1.69,2.21,3.43,2.69,3.47,2.55s-1.33-1-2.62-3.13a9.94,9.94,0,0,1-1.39-4,9,9,0,0,1,.06-2.48c.13-.91.46-1.65.81-1.55s1.15.67,1.51,1.39a14.65,14.65,0,0,1,1.08,2.32,15.68,15.68,0,0,1,.86,4.27C120.85,897.94,120.42,899.51,120.65,899.57Z"/><g class="cls-13"><polygon points="162.52 900.26 162.43 909.97 121.43 909.97 121.43 901.16 162.52 900.26"/></g><path class="cls-10" d="M300,171.61l6.1,23.58s2.27,13-3.83,13c-5.36,0-5.88-7-5.88-7S299,187,292,187.74c-1,.11-3.54,9.95-4.79,15a7.4,7.4,0,0,0,.74,5.41L298.09,226a21.17,21.17,0,0,0,7.94,8l5.07,2.89.65,10.64,28.49.45-8.68-33.22-3.62-20.27a6.78,6.78,0,0,0-5.1-3.79l-2.67-.4-1-2.56a4.52,4.52,0,0,0-3.62-2.8l-1.66-.21L311.53,179c-.77-1.91-6.35-14.46-8.41-14.43C303.12,164.54,298.47,165.79,300,171.61Z"/><path class="cls-11" d="M320.3,200.18a19.21,19.21,0,0,0-.54-2.59,9.76,9.76,0,0,0-3.87-4.94,28.2,28.2,0,0,1-2.14-6.18,8.43,8.43,0,0,1-.3-2.67c.08,0,.19,1,.63,2.59a37.6,37.6,0,0,0,2.18,6c.42.37.92.73,1.39,1.15a9.38,9.38,0,0,1,1.16,1.32,8.56,8.56,0,0,1,1.27,2.67,6.87,6.87,0,0,1,.29,2A1.88,1.88,0,0,1,320.3,200.18Z"/><path class="cls-11" d="M324.64,197.78a4,4,0,0,0-.42-1.3,3.35,3.35,0,0,0-2.64-1.72l-.15,0-.05-.14c-.05-.14-.11-.29-.16-.45a30.36,30.36,0,0,1-1.63-5.15,30.43,30.43,0,0,1,2.07,5l.17.45-.2-.15a3.5,3.5,0,0,1,2.88,2C324.89,197.19,324.71,197.81,324.64,197.78Z"/><path class="cls-10" d="M157,311.91l51.65-.67-5.77-44s3.53-.75,3.77-19.89,1.12-51.64,1.12-51.64h0a66.51,66.51,0,0,0-66.83,8.4l-2.83,2.18Z"/><path class="cls-10" d="M144.08,229.84c-.32-.14-13.14-3.88-12.73,9.2s13.47,10,13.48,9.59S144.08,229.84,144.08,229.84Z"/><path class="cls-10" d="M205.52,227.11c.33-.14,12-3.28,11.57,9.8s-13.46,10-13.47,9.59S205.52,227.11,205.52,227.11Z"/><path class="cls-14" d="M139.84,228.38c2,11,1.57,16.73,3.38,24.05,2.86,11.58,8.62,20.47,19.05,26.25s24.56,5.68,33.52-2.19c6.23-5.47,10.64-11.65,11.56-19.88s1.85-22.8,1.9-31.08c.11-14.94,1.11-29.21,1.11-29.21l-42.67-7.73L143.41,203Z"/><path class="cls-2" d="M183.86,285.29c.06.3-3.29,1.13-7.48.66s-7.28-2-7.15-2.27,3.28.66,7.28,1.08S183.81,284.94,183.86,285.29Z"/><path class="cls-14" d="M141.9,247c-1.25-11.23-2.06-24.08-3.81-35.92-.66-4.45-2.24-10.85-1.85-15.33s.83-9.1,2.81-13.16a18.47,18.47,0,0,1,28.79-5.78,13.86,13.86,0,0,1,25.26,5.84A9.62,9.62,0,0,1,209,192.31a9.4,9.4,0,0,1,6.34,14.39c-2,3-5.54,4.72-7.72,7.62a10.91,10.91,0,0,0-.65,11.81"/><path class="cls-12" d="M201.16,206.43a2.88,2.88,0,0,1-.47,1.23,8.84,8.84,0,0,1-2.48,2.79,8.94,8.94,0,0,1-5.55,1.75,9.5,9.5,0,0,1-6.84-3.2l.9-.25A8.9,8.9,0,0,1,181,215.3a10.19,10.19,0,0,1-9.62-1.21A14.47,14.47,0,0,1,166,207l1,.12a12,12,0,0,1-9.66,5.3,11.14,11.14,0,0,1-8.13-3.32,11.31,11.31,0,0,1-2.94-5A4.89,4.89,0,0,1,146,202c.09,0,.18.72.63,2a11.74,11.74,0,0,0,3.08,4.59,10.45,10.45,0,0,0,7.58,2.86,11.12,11.12,0,0,0,8.72-4.92l.63-1,.4,1.09a13.5,13.5,0,0,0,5,6.5,9.06,9.06,0,0,0,8.53,1.12,7.86,7.86,0,0,0,5.11-5.65l.19-1.08.71.84a8.77,8.77,0,0,0,6.09,3,8.51,8.51,0,0,0,5.17-1.41A12.28,12.28,0,0,0,201.16,206.43Z"/><path class="cls-12" d="M201.08,201.24c-.21,0,0-2.13-1.82-4.76a7.83,7.83,0,0,0-4.49-3,8.11,8.11,0,0,0-6.5,1.25l-1,.74.11-1.28a10,10,0,0,0-.44-3.76,10.23,10.23,0,0,0-5.25-6.1,10,10,0,0,0-6.65-.59c-3.87,1-5.4,3.32-5.55,3.13,0,0,.25-.62,1.07-1.46a10.41,10.41,0,0,1,4.26-2.48,10.57,10.57,0,0,1,7.33.39,11.16,11.16,0,0,1,5.93,6.75,10.83,10.83,0,0,1,.47,4.24l-.93-.54a9,9,0,0,1,7.45-1.29,8.35,8.35,0,0,1,4.86,3.59,8.11,8.11,0,0,1,1.31,3.76C201.27,200.75,201.14,201.25,201.08,201.24Z"/><path class="cls-12" d="M173.87,201.62c-.16-.07,0-.74,0-1.79A8.45,8.45,0,0,0,172.5,196,40.25,40.25,0,0,0,170,192.5a1.23,1.23,0,0,0-1.36-.27c-.07,0-.07-.29.28-.53a1.46,1.46,0,0,1,1.6.13,10.43,10.43,0,0,1,1.48,1.49,15.71,15.71,0,0,1,1.49,2,7.17,7.17,0,0,1,1.15,4.51C174.52,201.09,174,201.7,173.87,201.62Z"/><path class="cls-12" d="M148.56,185.18c-.13-.05,0-1,.8-2.39a6.21,6.21,0,0,1,1.95-2,5.09,5.09,0,0,1,3.46-.76,8.29,8.29,0,0,1,5.18,3.25c1,1.21,1.39,2,1.27,2.14s-.81-.55-1.89-1.56a8.89,8.89,0,0,0-4.71-2.64,5,5,0,0,0-4.57,2.11C149.15,184.4,148.73,185.25,148.56,185.18Z"/><path class="cls-12" d="M155.21,240.65c-.26.18-2.8-3.33-4.51-8.34s-1.89-9.34-1.58-9.35,1,4.1,2.71,9S155.51,240.47,155.21,240.65Z"/><path class="cls-12" d="M160.93,243.79c-.29.14-1.85-2.46-3.16-5.94s-1.87-6.47-1.56-6.56,1.37,2.71,2.67,6.13S161.23,243.64,160.93,243.79Z"/><path class="cls-12" d="M196.88,244.68c.28-.07.88,5.36-1.47,11.5s-6.34,9.83-6.51,9.59,3.2-4.12,5.39-10S196.51,244.67,196.88,244.68Z"/><path class="cls-12" d="M202.61,235.14c.27-.14,1.93,4.53.84,10.36s-4.24,9.62-4.44,9.39,2.29-4.08,3.26-9.61S202.25,235.21,202.61,235.14Z"/><polyline class="cls-2" points="186.09 595.74 198.65 716.83 207.66 899.18 255.79 899.18 257.09 511.07 119.31 520.89 90.76 724.53 115.49 902.75 168.29 902.75 155.93 733.29 186.09 595.74"/><path class="cls-12" d="M186.08,595.74c.23.24-4,4.38-9.36,9.23s-9.94,8.59-10.16,8.34,4-4.37,9.36-9.23S185.86,595.49,186.08,595.74Z"/><path class="cls-12" d="M186,593.32c-.33,0,0-7,.25-15.55s.57-15.52.9-15.52.63,7,.29,15.57S186.28,593.34,186,593.32Z"/><path class="cls-12" d="M201.86,548.12a3.29,3.29,0,0,1,.77-.09l2.38-.14,9.13-.44,32.62-1.37.56,0v.56c0,10.18,0,21.7.06,33.87v1.06l-.38.15-21.22,8.5-.2.08-.2-.07-18.76-6.52-.3-.1,0-.3c-1.38-10.57-2.52-19.37-3.34-25.69-.36-3-.65-5.31-.86-7.06a19.93,19.93,0,0,1-.23-2.42,4.34,4.34,0,0,1,.15.69c.09.52.19,1.15.32,1.91q.42,2.67,1.13,7.15c.94,6.21,2.25,14.88,3.81,25.28l-.33-.4,18.81,6.38h-.4l21.21-8.55-.38.56v-.66c0-12.17,0-23.69.06-33.87l.56.54-32.27.8-9.27.17-2.5,0A5.59,5.59,0,0,1,201.86,548.12Z"/><path class="cls-12" d="M132.39,548.71a2.4,2.4,0,0,1,.7-.07l2.14-.1,8.25-.25,29.76-.69.55,0,0,.56c-.32,10.05-.69,21.64-1.09,34v.31l-.26.17L169,584.85l-17.45,11.37-.31.2-.3-.19-19.66-12-.25-.15v-.29c.37-10.55.68-19.35.9-25.65.13-2.94.23-5.3.31-7a21.7,21.7,0,0,1,.17-2.41,3.69,3.69,0,0,1,0,.69c0,.53,0,1.16,0,1.92,0,1.78,0,4.18-.05,7.16-.1,6.24-.23,14.93-.38,25.37l-.24-.44,19.73,11.83-.61,0,17.42-11.42,3.45-2.24-.27.47c.45-12.33.87-23.92,1.24-34l.53.54-29.44.16h-8.37l-2.25,0A5.79,5.79,0,0,1,132.39,548.71Z"/><path class="cls-12" d="M242.22,603.56c0,.16-2.5.1-6.52-.2s-9.55-.85-15.65-1.64-11.58-1.67-15.54-2.41-6.39-1.31-6.36-1.46,2.5.11,6.49.63l15.57,2.06,15.58,2C239.77,603,242.24,603.4,242.22,603.56Z"/><path class="cls-12" d="M241.1,738.54c.05,0-.19.7-1.13,1.53a7.66,7.66,0,0,1-4.93,1.67,11.61,11.61,0,0,1-7.18-2.75,50.24,50.24,0,0,1-6.56-6.63,91.41,91.41,0,0,1-9.74-13.71c-2.14-3.74-3.18-6.2-3-6.27s1.46,2.23,3.76,5.83a120.81,120.81,0,0,0,9.93,13.37,54.36,54.36,0,0,0,6.33,6.54,11.13,11.13,0,0,0,6.52,2.78,7.65,7.65,0,0,0,4.62-1.2C240.64,739.05,241,738.48,241.1,738.54Z"/><path class="cls-12" d="M146.07,742.79a3.32,3.32,0,0,1-.65,1.55,9.79,9.79,0,0,1-3.33,3.16,12.74,12.74,0,0,1-6.6,1.74,15.66,15.66,0,0,1-8-2.53c-5.09-3.23-7.84-8.08-9.57-11.4s-2.51-5.61-2.38-5.67,1.26,2,3.13,5.26,4.67,7.78,9.46,10.8a15.27,15.27,0,0,0,7.35,2.44,12.58,12.58,0,0,0,6.16-1.38C145,745,145.87,742.64,146.07,742.79Z"/><path class="cls-12" d="M149.13,724.53c.07.11-1.34,1.17-3.95,2.3a31.22,31.22,0,0,1-21.74.89c-2.69-.91-4.19-1.84-4.13-2,.12-.38,6.55,2.69,15,2.27S149,724.16,149.13,724.53Z"/><path class="cls-12" d="M305.75,297.17H235.58s-9.53-5.49-14.14-4.57-8.61,5.84-8.61,5.84l9.28,77.31,22.73-16.82,84.58-8.81a26.89,26.89,0,0,0,19.34-8.46h0A26.94,26.94,0,0,0,355.89,320l-15.65-83.13L308.14,238l-1.26,21.1Z"/><path class="cls-12" d="M112.6,316.65a43,43,0,0,0-16.94,19.7c-4.09,9.82-32,58.87-46.76,84.54a24.27,24.27,0,0,0,3.51,28.84h0c9,9.36,19.64,5.71,32.7,1.46,5.86-1.91,32.19-42.33,32.19-42.33Z"/><polygon class="cls-12" points="124.81 491.96 108.72 353.54 112.61 316.65 153.56 299.2 206.6 295.73 257.11 301.29 245.29 443.26 258.21 523.33 116.76 529.72 124.81 491.96"/><path class="cls-2" d="M124.74,491.37c-.33,0-4.18-30.79-8.6-68.85s-7.74-68.94-7.42-69,4.18,30.78,8.61,68.85S125.07,491.33,124.74,491.37Z"/><path class="cls-2" d="M256.07,332.35a5.41,5.41,0,0,1,0,1.25c-.08.95-.19,2.12-.32,3.55-.33,3.26-.78,7.67-1.32,13.06-1.13,11.17-2.65,26.32-4.33,43.06s-2.9,32.07-3.73,43.11c-.39,5.4-.7,9.83-.94,13.09-.11,1.43-.21,2.61-.28,3.55a5.11,5.11,0,0,1-.18,1.24,4,4,0,0,1-.06-1.25c0-.95,0-2.13.06-3.57.06-3.1.27-7.58.56-13.11.61-11.07,1.78-26.34,3.38-43.18s3.33-32,4.68-43c.68-5.5,1.26-9.94,1.7-13,.22-1.42.4-2.59.54-3.53A4.63,4.63,0,0,1,256.07,332.35Z"/><path class="cls-2" d="M231.73,470.16a20.88,20.88,0,0,1-2.24,2.73,30.74,30.74,0,0,1-2.88,3,49.24,49.24,0,0,1-4.09,3.69,59.4,59.4,0,0,1-5.32,4,75.8,75.8,0,0,1-6.49,4.08,89,89,0,0,1-16.18,6.82,87.36,87.36,0,0,1-17.28,3.16c-2.7.12-5.26.3-7.67.16a58.23,58.23,0,0,1-6.66-.46,51.33,51.33,0,0,1-5.44-.85,30.13,30.13,0,0,1-4-.93,20.34,20.34,0,0,1-3.37-1.06c.07-.26,4.9,1.25,12.95,2a63.8,63.8,0,0,0,6.59.31c2.37.1,4.9-.12,7.56-.27a91.2,91.2,0,0,0,17-3.21,92.22,92.22,0,0,0,16-6.64c2.3-1.33,4.54-2.54,6.47-3.93a60.77,60.77,0,0,0,5.34-3.87C228.31,473.88,231.53,470,231.73,470.16Z"/><g class="cls-13"><path d="M156.94,496c-6.88-2-7.27-8.46-4.62-11.25s7-3.15,10.81-2.6,7.58,1.82,11.43,1.56c6.29-.43,11.57-4.81,15.94-9.36s8.51-9.63,14.25-12.24,13.73-1.69,16.75,3.84c1.93,3.52,1.32,8-.68,11.49s-5.2,6.09-8.52,8.35c-16,10.87-36.61,14.94-55.36,10.21"/></g><path class="cls-2" d="M240.6,300c.05-.29,5.29,1.84,9.2,7.32s4.35,11.09,4,11.05-1.24-5.19-5-10.35S240.4,300.31,240.6,300Z"/><path class="cls-1" d="M235.69,298.43a7.11,7.11,0,0,0-1.16-.7,6,6,0,0,0-3.81-.23,10.59,10.59,0,0,0-5.22,3.1c-1.73,1.67-3.3,4-5.78,5.88a17.11,17.11,0,0,1-9.5,2.93c-3.62.17-7.44-.2-11.47-.31a228.09,228.09,0,0,0-26.2.57c-18.57,1.51-35,5.77-46.36,10.24-5.69,2.19-10.15,4.32-13.19,5.85l-3.48,1.83c-.8.42-1.23.61-1.23.61s.4-.25,1.18-.69l3.44-1.91a132.89,132.89,0,0,1,13.15-6c11.34-4.55,27.84-8.88,46.45-10.39a222.16,222.16,0,0,1,26.26-.54c4,.12,7.86.51,11.43.35a16.68,16.68,0,0,0,9.32-2.8c2.43-1.81,4-4.12,5.79-5.8a10.81,10.81,0,0,1,5.37-3.1,6,6,0,0,1,3.89.33A3.64,3.64,0,0,1,235.69,298.43Z"/><path class="cls-1" d="M251.59,326.78s-.48-.14-1.42-.31a15,15,0,0,0-4.15-.13,22.81,22.81,0,0,0-6.34,1.68,76.59,76.59,0,0,0-7.78,4,43.16,43.16,0,0,1-9.77,4.2,61.8,61.8,0,0,1-12,1.95c-8.59.54-18,.67-27.9,1.44-19.77,1.36-37.57,3.75-50.38,5.84-6.41,1-11.57,2-15.15,2.65l-4.1.78c-.94.17-1.44.24-1.44.24s.48-.13,1.42-.33l4.09-.87c3.56-.71,8.72-1.73,15.13-2.8,12.8-2.18,30.61-4.63,50.4-6,9.88-.77,19.34-.89,27.89-1.4a61.76,61.76,0,0,0,12-1.89,43.12,43.12,0,0,0,9.71-4.12,77.92,77.92,0,0,1,7.84-4,22.69,22.69,0,0,1,6.42-1.61,14.18,14.18,0,0,1,4.19.22A7.11,7.11,0,0,1,251.59,326.78Z"/><path class="cls-1" d="M251.93,365.82s-1.78.83-5.08,2.13-8.16,3-14.27,4.74c-12.21,3.53-29.61,6.56-49,7.33A451.24,451.24,0,0,1,134,378.84l-15-1.17-4.07-.36c-.93-.08-1.42-.15-1.42-.15s.49,0,1.42.06l4.08.27,15,1a476.85,476.85,0,0,0,49.54,1c19.35-.77,36.71-3.74,48.92-7.17,6.11-1.69,11-3.34,14.29-4.6,1.67-.59,2.94-1.14,3.82-1.46S251.93,365.82,251.93,365.82Z"/><path class="cls-1" d="M246.56,410.86s-1.66.73-4.77,1.79a95.34,95.34,0,0,1-13.45,3.44,137.17,137.17,0,0,1-20.49,2.1c-7.76.27-16.29,0-25.22-.52-17.85-1.18-34-2.45-45.73-2-5.85.15-10.58.53-13.83.91-1.63.16-2.89.37-3.74.47s-1.31.14-1.31.14a118.84,118.84,0,0,1,18.87-1.86c11.74-.5,27.93.71,45.77,1.89,8.92.53,17.44.8,25.17.56a140.52,140.52,0,0,0,20.45-2,101.46,101.46,0,0,0,13.45-3.28c1.58-.46,2.75-1,3.58-1.21S246.56,410.86,246.56,410.86Z"/><path class="cls-1" d="M242.19,445.72s-6.47,2.13-17.21,4.6c-5.36,1.25-11.81,2.48-19,3.59s-15.16,2-23.55,2.49-16.41.55-23.69.37-13.82-.69-19.3-1.28c-11-1.15-17.64-2.49-17.64-2.49s.43,0,1.23.14l3.51.49c3,.46,7.46,1,12.94,1.52s12,1,19.27,1.18,15.27.08,23.65-.4,16.32-1.42,23.52-2.45,13.63-2.29,19-3.49,9.69-2.25,12.65-3.08L241,446C241.77,445.8,242.19,445.72,242.19,445.72Z"/><path class="cls-1" d="M247.05,458.45s-.41.18-1.2.46l-3.45,1.25c-3,1.1-7.27,2.84-12.48,5.14s-11.37,5.18-18.35,8.06a120.19,120.19,0,0,1-23.47,7.17c-17.17,3.31-33.09,2.85-44.46,2.45-5.7-.23-10.31-.53-13.49-.73l-3.67-.26c-.83-.07-1.27-.13-1.27-.13s.44,0,1.28,0l3.67.17,13.49.59c11.37.31,27.25.71,44.36-2.59A120.5,120.5,0,0,0,211.4,473c7-2.85,13.14-5.71,18.38-8s9.54-3.95,12.56-5S247.05,458.45,247.05,458.45Z"/><path class="cls-1" d="M254.23,496.45s-1.57,1.08-4.56,2.78a92.55,92.55,0,0,1-13.26,6.07c-11.51,4.41-28.45,7.65-47.25,8s-35.77-1.15-48-1.67c-6.14-.3-11.12-.47-14.56-.54l-4-.08c-.9,0-1.38-.06-1.38-.06s.48,0,1.38,0h4c3.44,0,8.42.14,14.56.4,12.3.43,29.27,1.86,48,1.53s35.64-3.52,47.15-7.83a97.08,97.08,0,0,0,13.28-5.92c1.53-.77,2.65-1.51,3.44-1.94S254.23,496.45,254.23,496.45Z"/><path class="cls-1" d="M275.61,356.33a2.61,2.61,0,0,1,.12-.58c.13-.5.28-1,.44-1.63.4-1.41.9-3.47,1.43-6a92.66,92.66,0,0,0-.6-40.5c-.61-2.54-1.18-4.58-1.62-6-.18-.58-.34-1.11-.49-1.61a2.38,2.38,0,0,1-.13-.58,4,4,0,0,1,.22.55c.18.49.37,1,.57,1.59.5,1.37,1.12,3.41,1.77,5.95a87.45,87.45,0,0,1,.61,40.65c-.57,2.56-1.13,4.61-1.59,6l-.52,1.61A2.57,2.57,0,0,1,275.61,356.33Z"/><path class="cls-1" d="M309.6,348a2.09,2.09,0,0,1,0-.52q0-.71.06-1.5c.08-1.3.12-3.18.09-5.51a85,85,0,0,0-8-35.13c-1-2.1-1.84-3.78-2.47-4.92l-.7-1.32a2.41,2.41,0,0,1-.22-.48s.12.14.3.43l.79,1.28c.68,1.11,1.58,2.77,2.61,4.87a80,80,0,0,1,8,35.27c0,2.34-.11,4.22-.24,5.52l-.15,1.5A2.92,2.92,0,0,1,309.6,348Z"/><path class="cls-1" d="M355.52,332.08a3.52,3.52,0,0,1-.43-.46c-.36-.41-.74-.87-1.17-1.37-1-1.2-2.48-2.9-4.39-4.94A113.43,113.43,0,0,0,333.17,311a112.2,112.2,0,0,0-18.85-10.86c-2.54-1.15-4.63-2-6.09-2.57l-1.67-.66a3.88,3.88,0,0,1-.57-.26,2.57,2.57,0,0,1,.6.17l1.71.58c1.48.49,3.59,1.32,6.16,2.43a104.28,104.28,0,0,1,35.32,25.28c1.88,2.08,3.34,3.81,4.29,5.05l1.09,1.43A3.22,3.22,0,0,1,355.52,332.08Z"/><path class="cls-1" d="M345.11,267.05a6.9,6.9,0,0,1-1.46,0l-4-.07c-3.36-.06-8-.1-13.12,0s-9.75.29-13.11.47l-4,.2a9,9,0,0,1-1.46,0,7.32,7.32,0,0,1,1.45-.21c.93-.11,2.28-.23,4-.36,3.35-.26,8-.52,13.12-.61s9.78,0,13.14.15c1.68.08,3,.15,4,.23A9.84,9.84,0,0,1,345.11,267.05Z"/><path class="cls-1" d="M85.11,358.13A6.84,6.84,0,0,1,86,359c.52.61,1.31,1.47,2.31,2.49a61,61,0,0,0,8.6,7.16c3.61,2.48,7.07,4.43,9.59,5.82l3,1.63a5.62,5.62,0,0,1,1.07.65,7.24,7.24,0,0,1-1.15-.48c-.74-.34-1.79-.85-3.07-1.5a88.85,88.85,0,0,1-9.7-5.73,52.4,52.4,0,0,1-8.57-7.32,33.53,33.53,0,0,1-2.22-2.6A6.49,6.49,0,0,1,85.11,358.13Z"/><path class="cls-1" d="M94.79,339.77c.07,0,.53.79,1.62,1.84a34.6,34.6,0,0,0,4.63,3.66c1.93,1.3,3.74,2.36,5.08,3.08s2.2,1.1,2.17,1.17-3.64-1.2-7.51-3.85a26.38,26.38,0,0,1-4.61-3.83A5.43,5.43,0,0,1,94.79,339.77Z"/><path class="cls-1" d="M111.11,418.07a1.91,1.91,0,0,1-.5-.22l-1.4-.73c-1.21-.64-2.92-1.63-5-3A102.69,102.69,0,0,1,89.29,402.3a95,95,0,0,1-12.46-14.45c-1.4-2-2.43-3.7-3.09-4.89L73,381.58a2.8,2.8,0,0,1-.24-.5,1.92,1.92,0,0,1,.32.45l.83,1.33c.71,1.17,1.78,2.82,3.21,4.8A103.21,103.21,0,0,0,89.62,402a113,113,0,0,0,14.81,11.93c2,1.36,3.7,2.39,4.87,3.08l1.35.8A2.63,2.63,0,0,1,111.11,418.07Z"/><path class="cls-2" d="M47.35,441.78a11.58,11.58,0,0,1-.43-2.62,43.43,43.43,0,0,1-.15-7.27,46.65,46.65,0,0,1,7.61-22.55c4.94-7.9,9.46-15,12.79-20.12l4-6a11.71,11.71,0,0,1,1.6-2.12,11.28,11.28,0,0,1-1.2,2.37l-3.67,6.22c-3.14,5.23-7.55,12.4-12.48,20.29a48.92,48.92,0,0,0-7.79,22C47.08,438,47.61,441.77,47.35,441.78Z"/><path class="cls-1" d="M87.52,451.06a29.85,29.85,0,0,1-7.93-1.18A37.17,37.17,0,0,1,53.31,423.6a29.85,29.85,0,0,1-1.18-7.93,2.3,2.3,0,0,1,.1.55c.05.36.08.9.19,1.58a39.85,39.85,0,0,0,1.22,5.71,37.79,37.79,0,0,0,26,26.05,39.57,39.57,0,0,0,5.71,1.21c.68.11,1.22.14,1.58.2A2.08,2.08,0,0,1,87.52,451.06Z"/><path class="cls-1" d="M64.47,372.72a2,2,0,0,1-.4.28l-1.2.73c-1,.6-2.52,1.56-4.28,2.81a61.23,61.23,0,0,0-20.82,26.07c-.84,2-1.44,3.65-1.8,4.8l-.45,1.32a2.13,2.13,0,0,1-.18.46,1.43,1.43,0,0,1,.09-.48q.16-.65.36-1.35a48.1,48.1,0,0,1,1.66-4.88A58.17,58.17,0,0,1,58.4,376.26a45.77,45.77,0,0,1,4.38-2.7l1.24-.65C64.31,372.77,64.46,372.7,64.47,372.72Z"/><path class="cls-1" d="M51.6,355.73a8.2,8.2,0,0,1-1.31.47c-.85.25-2.06.68-3.53,1.28a41,41,0,0,0-10.54,6.37,59.79,59.79,0,0,0-8.53,8.95c-1,1.25-1.76,2.27-2.28,3a6.6,6.6,0,0,1-.87,1.08,9.79,9.79,0,0,1,.71-1.19c.48-.75,1.22-1.81,2.17-3.09a53.28,53.28,0,0,1,8.5-9.1,38.43,38.43,0,0,1,10.72-6.33,29.91,29.91,0,0,1,3.6-1.14A7.62,7.62,0,0,1,51.6,355.73Z"/></svg>