<?xml version="1.0" encoding="utf-8"?>
<!-- Generator: Adobe Illustrator 25.1.0, SVG Export Plug-In . SVG Version: 6.00 Build 0)  -->
<svg version="1.1" id="Layer_1" xmlns="http://www.w3.org/2000/svg" xmlns:xlink="http://www.w3.org/1999/xlink" x="0px" y="0px"
	 viewBox="0 0 1920 1080" style="enable-background:new 0 0 1920 1080;" xml:space="preserve">
<style type="text/css">
	.st0{fill:url(#SVGID_1_);}
	.st1{fill:url(#SVGID_2_);}
	.st2{fill:url(#SVGID_3_);}
	.st3{opacity:0.08;fill:#F9F9F9;}
	.st4{opacity:0.08;}
	.st5{fill:#F9F9F9;}
	.st6{fill:#FAFAFA;}
	.st7{fill:#263238;}
	.st8{fill:#FFB347;stroke:#FFB347;stroke-miterlimit:10;}
	.st9{fill:#F5F5F5;}
	.st10{fill:#E0E0E0;}
	.st11{fill:#E8505B;}
	.st12{fill:#FFB347;}
	.st13{opacity:0.2;}
	.st14{fill:#FFBE9D;}
	.st15{fill:#EB996E;}
	.st16{fill:#455A64;}
	.st17{opacity:0.3;}
	.st18{fill:#B89778;}
</style>
<g id="Gradient_shape">
	<linearGradient id="SVGID_1_" gradientUnits="userSpaceOnUse" x1="5.3375" y1="584.8391" x2="1972.2533" y2="584.8391">
		<stop  offset="2.793296e-03" style="stop-color:#734AE8"/>
		<stop  offset="0.243" style="stop-color:#6041F7"/>
		<stop  offset="1" style="stop-color:#89D4CF"/>
	</linearGradient>
	<path class="st0" d="M5.34,373.59c51.83,45.16,83.61,93.1,120.55,127.53c35.97,33.53,65.78,56.94,74.55,63.76
		c79.8,62.1,161.79,108.4,161.79,108.4l0,0c26.87,19.22,64.09,43.09,111.04,65.36c53.77,25.51,95.6,37.2,145.93,51.01
		c0,0,114.4,31.38,256.97,35.07c6.96,0.18,37.61,0.65,71.38-14.35c16.59-7.37,41.31-18.34,44.41-38.26
		c3.58-22.93-23.6-44.12-28.55-47.82c-38.87-29.12-82.99-11.53-95.17-36.66c-3.09-6.39-4.31-15.9,0-22.32
		c16.43-24.49,103.95,9.92,111.04,12.75c48.17,19.29,87.58,48.27,106.28,62.17c23.51,17.49,32.69,27.12,55.52,38.26
		c18.63,9.09,40.42,16.28,72.97,20.72c114.38,15.61,210.97-14.35,210.97-14.35c55.22-17.13,91.8-40.64,164.97-87.68
		c15.73-10.11,67.95-44.18,131.66-97.24c56.34-46.92,94.32-85.93,134.83-127.53c31.17-32.01,71.16-74.82,115.79-127.53L5.34,373.59z
		"/>
	<linearGradient id="SVGID_2_" gradientUnits="userSpaceOnUse" x1="6.7315" y1="173.2208" x2="1972.2533" y2="173.2208">
		<stop  offset="2.793296e-03" style="stop-color:#734AE8"/>
		<stop  offset="0.243" style="stop-color:#6041F7"/>
		<stop  offset="1" style="stop-color:#89D4CF"/>
	</linearGradient>
	<rect x="6.73" y="1.54" class="st1" width="1965.52" height="343.36"/>
	<linearGradient id="SVGID_3_" gradientUnits="userSpaceOnUse" x1="0.7199" y1="177.8819" x2="1948.6427" y2="177.8819">
		<stop  offset="2.793296e-03" style="stop-color:#734AE8"/>
		<stop  offset="0.243" style="stop-color:#6041F7"/>
		<stop  offset="1" style="stop-color:#89D4CF"/>
	</linearGradient>
	<rect x="0.72" y="-17.36" class="st2" width="1947.92" height="390.49"/>
</g>
<g id="opacity_8_x25__shapes">
	<path class="st3" d="M-4.66,6.47c-8.06,13.85,49.04,50.33,103.63,119.8c29.73,37.83,30.57,42.16,60.64,96.19
		c5.7,10.24,55.93,98.98,128.42,154.21c88.29,67.28,191.31,70.92,225.83,72.14c113.12,4,128.82-39.91,239.59-25.61
		c28.78,3.71,89.99,12.23,154.03,50.71c65.86,39.57,61.79,67.01,121.98,97.75c52.49,26.81,100.03,28.63,171.46,31.36
		c72.14,2.76,133.1-6.48,177.73-16.73c63.41-14.56,107.13-34.18,165.19-60.64c49.21-22.42,113.78-55.3,186.1-102.46
		c188.9-116.93,239.78-170.87,239.94-196.55c0,0,0,0,0-41.82c0-36.24,2.51-84.38,0-85.73c-8.39-4.52-36.78,34.94-99.5,116.05
		c-36.16,46.76-54.5,70.33-65.87,81.55c-38.25,37.78-73.42,57.71-119.19,83.64c-25.99,14.73-54.62,27.94-111.87,54.37
		c-57.77,26.67-87.16,40.16-111.87,48.09c-37.36,11.99-76.84,24.67-129.64,24.05c-31.25-0.37-55.67-5.26-102.46-14.64
		c-37.2-7.46-64.66-16.45-72.14-18.82c-53.12-16.81-128.22-40.57-190.25-96.11c-58.59-52.46-36.37-72.35-84.68-103.5
		c-53.98-34.81-79.14-6.27-166.23-31.36C640.92,220.7,586.58,178.31,528,132.61c-43.19-33.69-64.78-50.54-75.28-65.87
		c-13.02-19-34.12-57.45-56.83-60.28c-9.92-1.24-23-1.48-23-1.48c-29.52,0.36-39.33,1.31-54.92,1.48
		c-17.42,0.19-17.15-0.85-51.72-1.48c-34.78-0.63-36.22,0.41-36.59,1.48c-2.8,8.09,51.45,30.12,132.78,80.07
		c35.91,22.06,52.65,34.2,69,52.27c9.35,10.34,30.49,35.6,43.91,73.18c10.75,30.12,7.67,43.28,6.27,48.09
		c-6.02,20.68-23.18,31.83-30.5,36.59c-27.54,17.91-57.5,15.92-70.57,14.11c-12.21-1.69-53.18-8.82-103.5-53.32
		c-23.63-20.89-36.98-39.31-62.73-75.28c-29.03-40.56-56.07-83.57-92.53-117.62c-21.01-19.63-18.64-29.27-18.64-29.27
		c-12.15-21-11.58-24.35-17.77-28.84c-7.57-5.48-14.55-2.11-49.14-3.46C10.9,2.02-1.78,1.52-4.66,6.47z"/>
	<path class="st3" d="M0.91,364.58c-1.1,3.33,1.8,5.81,36.07,42.34c17.86,19.04,27.29,29.26,32.74,35.21
		c3.21,3.51,6.53,7.07,8.42,9.13c21.21,23.14,38.46,45.66,41.75,49.86c14.86,19,33.82,33.88,74.55,63.76
		c89.6,65.74,134.02,99.12,152.55,103.04c47.77,10.1,65.04-7.65,120.03,8.39c36.37,10.61,71.65,28.5,71.65,28.5
		c17.8,9.02,15.11,9.92,28.38,15.76c46.26,20.36,94.01,24.87,112.91,26.66c34.54,3.27,38.87-0.78,70.57,4.7
		c22.41,3.88,33.18,8.14,48.7,3.34c17.2-5.32,38.69-21.29,35.98-37.84c-2.21-13.49-19.86-23.45-34.5-23.52
		c-11.69-0.06-13.96,6.21-31.36,12.55c-13.93,5.07-26.54,5.47-51.75,6.27c-13.55,0.43-27.58,0.88-45.48-1.57
		c-18.06-2.47-29.05-6.38-48.62-12.55c-45.27-14.26-45.51-11.94-70.57-20.39c-25.6-8.63-26.29-11.39-89.39-40.77
		c-45.92-21.38-43.38-18.91-94.58-45.81c-29.5-15.5-44.25-23.25-52.5-30.34c-7.82-6.73-26.58-24.26-56.46-85.73
		c-23.37-48.09-16.94-47.74-27-62.39C179.34,335.13,8.48,341.7,0.91,364.58z"/>
	<g class="st4">
		<path class="st5" d="M1890.5,5.18c-12.83,9.29-32.55,1.16-44.48-2.16c-14.63-4.07-18.05-1.02-58.12,0.91
			c-43.22,2.09-63.29-0.92-173.98-1.03c-0.26,0-0.09,0-112.91,0c-56.46,0-112.91,0-169.37,0c-89.39,0-178.78,0-268.17,0
			c27.37,2.97,66.7,11.13,105.07,36.18c35.35,23.08,43.06,42.98,79.98,78.41c19.2,18.43,64.75,62.15,125.46,84.68
			c66.3,24.61,125.25,13.75,183.48,4.7c36.81-5.72,102.76-17.38,172.51-59.59c95.74-57.95,163.47-143.89,163.1-144.28
			C1893.02,2.98,1892.16,3.98,1890.5,5.18z M1513.53,125.31c-54.83,16.15-104.22,12.48-110.31-8.2
			c-6.09-20.68,33.43-50.53,88.26-66.68c54.83-16.15,104.22-12.48,110.31,8.2C1607.88,79.31,1568.37,109.16,1513.53,125.31z"/>
	</g>
</g>
<g id="Man">
	<g>
		<g>
			<g>
				<g>
					<path class="st6" d="M717,569.36c-1.45,0-3.25,0-5.37,0.01c-0.53,0.01-1.09-0.06-1.62,0.18c-0.52,0.21-0.99,0.61-1.28,1.14
						c-0.15,0.26-0.25,0.55-0.3,0.86c-0.06,0.3-0.04,0.62-0.04,0.95c0,0.32,0,0.65,0,0.99c0,0.33,0.01,0.68-0.06,1.02
						c-0.14,0.68-0.57,1.33-1.2,1.73c-0.31,0.2-0.67,0.33-1.05,0.37c-0.38,0.03-0.75,0.01-1.14,0.02c-1.53,0-3.13,0-4.81,0
						c-3.35,0-6.99,0-10.91,0c-0.98,0-1.97,0-2.99,0c-0.25,0-0.51,0-0.76,0c-0.25,0.01-0.52-0.01-0.78-0.08
						c-0.51-0.13-0.99-0.42-1.34-0.83c-0.35-0.4-0.58-0.92-0.65-1.46c-0.04-0.27-0.03-0.54-0.03-0.81c0-0.27,0-0.54,0-0.8
						c-0.01-0.54,0.04-1.08-0.16-1.58c-0.18-0.5-0.52-0.95-0.96-1.26c-0.45-0.31-0.99-0.45-1.54-0.43c-0.56,0-1.13,0-1.7,0
						c-1.14,0-2.3,0-3.47,0c-2.34,0-4.75,0-7.21,0c-1.22-0.01-2.47,0.17-3.61,0.68c-1.14,0.5-2.18,1.28-3,2.25
						c-0.82,0.98-1.4,2.16-1.7,3.43c-0.08,0.31-0.11,0.64-0.16,0.96c-0.01,0.27-0.03,0.55-0.04,0.82v53.75c0,0.72,0,1.42,0,2.14
						c0,2.17,0,4.38,0,6.59v69.85c0.01,0.88,0.06,1.76,0.33,2.6c0.53,1.76,1.66,3.35,3.19,4.4c1.53,1.06,3.4,1.54,5.25,1.45
						c1.87,0,3.73,0,5.59,0c3.71,0,7.4,0,11.06,0.01c7.32,0,14.53,0.01,21.62,0.01c3.54,0,7.06,0,10.54,0.01
						c1.74-0.01,3.48,0.03,5.19-0.02c1.7-0.08,3.34-0.75,4.65-1.8c0.65-0.54,1.21-1.17,1.68-1.86c0.47-0.7,0.8-1.47,1.03-2.27
						c0.25-0.8,0.3-1.63,0.31-2.46c0-0.84,0-1.67,0-2.51c0-3.33,0-6.63,0-9.88c0.01-26.04,0.03-49.48,0.04-69.17
						c0.02-19.69,0.04-35.63,0.05-46.64c0-1.38,0-2.68,0.01-3.9c0.01-1.22-0.2-2.35-0.6-3.33c-0.4-0.98-0.95-1.8-1.55-2.45
						c-0.6-0.66-1.24-1.17-1.87-1.53c-1.24-0.75-2.35-0.99-3.08-1.09c-0.37-0.07-0.65-0.05-0.84-0.08
						c-0.19-0.01-0.28-0.02-0.28-0.02s-0.38,0.01-1.12,0.01C719.55,569.35,718.45,569.35,717,569.36z"/>
				</g>
			</g>
		</g>
		<g>
			<g>
				<g>
					<g>
						<g>
							<g>
								<g>
									<g>
										<g>
											<g>
												<g>
													<g>
														<path class="st7" d="M721.5,569.38c0,0,0.09,0,0.28,0.01c0.19,0.02,0.47,0,0.84,0.06c0.73,0.09,1.84,0.32,3.1,1.07
															c0.63,0.36,1.27,0.87,1.88,1.53c0.61,0.66,1.17,1.48,1.57,2.46c0.41,0.98,0.63,2.13,0.62,3.35c0,1.22,0,2.52,0,3.89
															c0.01,11,0.02,26.9,0.03,46.56c0,19.66,0.01,43.06,0.01,69.05c0,3.25,0,6.54,0,9.86c0,0.83,0,1.67,0,2.5
															c-0.01,0.84-0.06,1.7-0.32,2.52c-0.24,0.82-0.58,1.61-1.05,2.33c-0.48,0.71-1.06,1.36-1.72,1.91
															c-1.34,1.08-3.02,1.76-4.77,1.85c-1.73,0.05-3.45,0.01-5.19,0.02c-3.47,0-6.97,0-10.51,0
															c-7.07,0-14.26-0.01-21.57-0.01c-3.65,0-7.33,0-11.03-0.01c-1.85,0-3.71,0-5.57,0c-1.87,0.1-3.81-0.4-5.37-1.48
															c-1.57-1.08-2.73-2.71-3.27-4.52c-0.29-0.9-0.34-1.86-0.34-2.79c0-0.93,0-1.86,0-2.78c0-3.7,0-7.38,0-11.03
															c0-7.3,0-14.5,0.01-21.57c0.01-14.14,0.01-27.79,0.01-40.78c0.01-13,0.01-25.34,0.02-36.9
															c0-5.78,0.01-11.36,0.01-16.72c0-0.67,0-1.34,0-2c0-0.33,0.03-0.67,0.05-1c0.06-0.33,0.08-0.66,0.17-0.98
															c0.3-1.29,0.9-2.5,1.74-3.5c0.84-0.99,1.9-1.77,3.06-2.29c1.16-0.52,2.44-0.71,3.67-0.69c2.46,0,4.86,0.01,7.19,0.01
															c1.17,0,2.32,0,3.46,0c0.57,0,1.13,0,1.7,0c0.57-0.03,1.16,0.13,1.62,0.45c0.47,0.33,0.83,0.8,1.01,1.33
															c0.21,0.53,0.16,1.1,0.17,1.63c0,0.27,0,0.54,0,0.8c0,0.27-0.01,0.53,0.03,0.79c0.07,0.51,0.28,1,0.62,1.38
															c0.33,0.39,0.78,0.66,1.26,0.78c0.24,0.06,0.49,0.08,0.74,0.07c0.25,0,0.51,0,0.76,0c1.01,0,2,0,2.98,0
															c3.9,0.01,7.54,0.01,10.88,0.02c1.67,0,3.27,0.01,4.8,0.01c0.38-0.01,0.76,0.02,1.12-0.01
															c0.36-0.04,0.71-0.17,1.01-0.36c0.61-0.38,1.02-1,1.16-1.66c0.08-0.33,0.06-0.67,0.06-1c0-0.33,0-0.66,0-0.99
															c0-0.32-0.02-0.65,0.04-0.96c0.05-0.31,0.16-0.61,0.31-0.88c0.3-0.54,0.78-0.95,1.32-1.16
															c0.54-0.24,1.12-0.16,1.64-0.17c2.11,0.01,3.9,0.01,5.35,0.01c1.45,0.01,2.55,0.01,3.29,0.01
															C721.12,569.38,721.5,569.38,721.5,569.38s-0.38,0.01-1.12,0.01c-0.74,0-1.85,0.01-3.29,0.01
															c-1.45,0-3.24,0-5.35,0.01c-0.53,0.01-1.09-0.06-1.61,0.18c-0.52,0.21-0.99,0.61-1.27,1.13
															c-0.15,0.26-0.25,0.55-0.3,0.86c-0.06,0.3-0.04,0.62-0.04,0.95c0,0.32,0,0.65,0,0.99c0,0.33,0.01,0.68-0.06,1.02
															c-0.14,0.68-0.57,1.33-1.19,1.72c-0.31,0.2-0.67,0.33-1.05,0.37c-0.38,0.03-0.75,0.01-1.13,0.02c-1.53,0-3.13,0-4.8,0
															c-3.34,0-6.98,0-10.88,0c-0.98,0-1.97,0-2.98,0c-0.25,0-0.51,0-0.76,0c-0.25,0.01-0.52-0.01-0.78-0.08
															c-0.51-0.13-0.99-0.42-1.33-0.82c-0.35-0.4-0.58-0.92-0.65-1.45c-0.04-0.27-0.03-0.54-0.03-0.81c0-0.27,0-0.53,0-0.8
															c-0.01-0.54,0.04-1.08-0.16-1.58c-0.18-0.5-0.52-0.95-0.96-1.25c-0.45-0.31-0.98-0.45-1.54-0.43c-0.56,0-1.13,0-1.7,0
															c-1.14,0-2.29,0-3.46,0c-2.34,0-4.74,0-7.19,0c-1.22-0.01-2.46,0.17-3.6,0.68c-1.14,0.5-2.17,1.27-3,2.24
															c-0.82,0.98-1.4,2.16-1.7,3.42c-0.08,0.31-0.11,0.64-0.16,0.96c-0.02,0.33-0.04,0.65-0.04,0.98c0,0.66,0,1.33,0,2
															c0,5.36,0,10.95,0,16.72c0,11.56,0,23.91,0,36.9c0,13,0,26.64,0,40.78c0,7.07,0,14.27,0,21.57c0,3.65,0,7.33,0,11.03
															c0,0.93,0,1.85,0,2.78c0,0.92,0.05,1.84,0.34,2.73c0.53,1.76,1.65,3.34,3.18,4.39c1.53,1.06,3.39,1.54,5.24,1.44
															c1.86,0,3.72,0,5.57,0c3.7,0,7.38,0,11.03,0.01c7.3,0,14.5,0.01,21.57,0.01c3.54,0,7.04,0.01,10.51,0.01
															c1.73-0.01,3.47,0.03,5.17-0.02c1.7-0.08,3.33-0.75,4.64-1.8c0.65-0.54,1.21-1.16,1.67-1.86
															c0.47-0.69,0.79-1.47,1.03-2.26c0.25-0.8,0.3-1.63,0.31-2.46c0-0.84,0-1.67,0-2.5c0-3.33,0-6.62,0-9.86
															c0.01-25.99,0.03-49.39,0.04-69.05c0.02-19.65,0.04-35.56,0.05-46.56c0-1.37,0-2.67,0.01-3.89
															c0.01-1.22-0.2-2.35-0.6-3.32c-0.4-0.98-0.95-1.8-1.55-2.45c-0.6-0.65-1.24-1.17-1.86-1.52
															c-1.24-0.75-2.35-0.99-3.07-1.09c-0.36-0.07-0.65-0.05-0.83-0.08C721.6,569.39,721.5,569.38,721.5,569.38z"/>
													</g>
												</g>
											</g>
										</g>
									</g>
								</g>
							</g>
						</g>
					</g>
				</g>
				<g>
					<g>
						<g>
							<g>
								<g>
									<g>
										<g>
											<path class="st7" d="M723.1,582.75c0,0.04-1.36,0.08-3.05,0.09c-1.68,0.01-3.05,0-3.05-0.04c0-0.04,1.36-0.08,3.05-0.09
												C721.73,582.7,723.1,582.71,723.1,582.75z"/>
										</g>
									</g>
								</g>
							</g>
						</g>
					</g>
					<g>
						<g>
							<g>
								<g>
									<g>
										<g>
											<path class="st7" d="M723.11,584.31c0,0.04-1.36,0.08-3.05,0.09c-1.68,0.01-3.05,0-3.05-0.04c0-0.04,1.36-0.08,3.05-0.09
												C721.75,584.25,723.11,584.27,723.11,584.31z"/>
										</g>
									</g>
								</g>
							</g>
						</g>
					</g>
					<g>
						<g>
							<g>
								<g>
									<g>
										<g>
											<path class="st7" d="M723.12,585.87c0,0.04-1.36,0.08-3.05,0.09c-1.68,0.01-3.05,0-3.05-0.04c0-0.04,1.36-0.08,3.05-0.09
												C721.76,585.81,723.12,585.83,723.12,585.87z"/>
										</g>
									</g>
								</g>
							</g>
						</g>
					</g>
				</g>
				<g>
					<g>
						<g>
							<g>
								<g>
									<g>
										<path class="st8" d="M667.69,587.65c0,0,0.05-0.01,0.13-0.01c0.1,0,0.22-0.01,0.35-0.01c0.33-0.01,0.77-0.02,1.3-0.03
											l-0.04,0.04c0-0.29-0.01-0.6-0.02-0.94c0-0.18-0.01-0.34,0-0.54c0.03-0.2,0.22-0.38,0.44-0.4c0.21,0,0.39-0.01,0.62,0
											c0.23,0.03,0.43,0.25,0.43,0.5c0.01,0.44,0.01,0.9,0.02,1.38l-0.06-0.06c0.53-0.01,1.08-0.01,1.64-0.02l-0.06,0.06
											c-0.01-0.66-0.01-1.34-0.02-2.04c0-0.17,0-0.35,0-0.52c0-0.16-0.1-0.27-0.23-0.39c-0.24-0.24-0.48-0.48-0.72-0.71
											c-0.23-0.23-0.47-0.46-0.69-0.68c-0.11-0.11-0.22-0.22-0.34-0.33c-0.12-0.11-0.21-0.23-0.34-0.25
											c-0.13-0.03-0.27-0.01-0.38,0.07c-0.1,0.08-0.21,0.2-0.31,0.3c-0.2,0.2-0.4,0.4-0.59,0.59c-0.37,0.38-0.76,0.74-1.04,1.07
											c-0.12,0.18-0.07,0.41-0.08,0.61c0,0.2,0,0.4,0,0.58c0,0.35,0,0.67-0.01,0.93c0,0.24,0,0.43-0.01,0.6
											C667.7,587.57,667.69,587.64,667.69,587.65c0,0-0.01-0.06-0.01-0.2c0-0.16-0.01-0.35-0.02-0.59
											c-0.01-0.27-0.01-0.58-0.02-0.94c0-0.19-0.01-0.38-0.01-0.59c0-0.1,0-0.21-0.01-0.32c0-0.12,0.03-0.24,0.09-0.34
											c0.3-0.37,0.67-0.7,1.04-1.1c0.19-0.19,0.38-0.39,0.58-0.6c0.11-0.1,0.19-0.21,0.32-0.31c0.13-0.1,0.31-0.14,0.48-0.09
											c0.17,0.04,0.29,0.18,0.39,0.28c0.11,0.11,0.22,0.22,0.34,0.33c0.23,0.22,0.46,0.45,0.69,0.68
											c0.24,0.23,0.48,0.47,0.72,0.71c0.06,0.06,0.13,0.11,0.18,0.2c0.05,0.08,0.08,0.18,0.09,0.28c0,0.17,0,0.35,0,0.52
											c0.01,0.7,0.01,1.38,0.02,2.04l0,0.06l-0.06,0c-0.57,0-1.11,0.01-1.64,0.01l-0.06,0l0-0.06c0-0.48,0-0.94-0.01-1.38
											c0.01-0.2-0.15-0.37-0.33-0.4c-0.19-0.01-0.41,0-0.6,0c-0.18,0.01-0.32,0.16-0.35,0.32c-0.02,0.16,0,0.36-0.01,0.52
											c0,0.34,0,0.65,0,0.94v0.04l-0.04,0c-0.54,0-0.98-0.01-1.32-0.01c-0.13,0-0.25,0-0.34-0.01
											C667.73,587.65,667.69,587.65,667.69,587.65z"/>
									</g>
								</g>
							</g>
						</g>
					</g>
				</g>
				<g>
					<g>
						<g>
							<g>
								<g>
									<g>
										<g>
											<path class="st9" d="M718.37,606.35h-48.71c-2.44,0-4.41-1.98-4.41-4.41v-1.64c0-2.44,1.98-4.41,4.41-4.41h48.71
												c2.44,0,4.41,1.98,4.41,4.41v1.64C722.78,604.37,720.8,606.35,718.37,606.35z"/>
										</g>
									</g>
								</g>
							</g>
						</g>
						<g>
							<g>
								<g>
									<g>
										<g>
											<g>
												<path class="st7" d="M718.37,606.35c0,0,0.11-0.01,0.33-0.03c0.22-0.02,0.54-0.07,0.95-0.18
													c0.4-0.13,0.89-0.35,1.38-0.73c0.49-0.38,0.98-0.93,1.31-1.66c0.16-0.37,0.3-0.78,0.35-1.22
													c0.06-0.44,0.04-0.92,0.04-1.41c-0.01-0.49,0.02-1.01-0.07-1.53c-0.09-0.52-0.28-1.05-0.57-1.53
													c-0.58-0.97-1.63-1.78-2.9-2.02c-0.63-0.12-1.31-0.06-2-0.08c-0.69,0-1.4,0-2.13,0c-11.62,0.01-27.67,0.02-45.4,0.03
													c-1.08,0-2.15,0.42-2.93,1.15c-0.79,0.73-1.28,1.74-1.36,2.79c-0.04,0.52-0.01,1.07-0.02,1.6
													c-0.01,0.54,0.02,1.05,0.16,1.56c0.28,1,0.93,1.88,1.78,2.44c0.42,0.28,0.9,0.48,1.39,0.59c0.49,0.12,1,0.12,1.51,0.11
													c1.03,0,2.04,0,3.05,0c2.01,0,3.98,0,5.9,0c7.68,0.01,14.6,0.02,20.41,0.02c5.81,0.01,10.51,0.03,13.76,0.03
													c1.62,0.01,2.88,0.02,3.74,0.02c0.42,0,0.75,0.01,0.97,0.01C718.25,606.34,718.37,606.35,718.37,606.35
													s-0.11,0.01-0.33,0.01c-0.23,0-0.55,0.01-0.97,0.01c-0.86,0-2.12,0.01-3.74,0.02c-3.26,0.01-7.95,0.02-13.76,0.03
													c-5.81,0.01-12.73,0.01-20.41,0.02c-1.92,0-3.89,0-5.9,0c-1.01,0-2.02,0-3.05,0c-0.51,0-1.04,0-1.56-0.12
													c-0.52-0.12-1.02-0.33-1.46-0.62c-0.89-0.59-1.58-1.51-1.87-2.56c-0.16-0.52-0.19-1.09-0.17-1.61
													c0.01-0.54-0.02-1.07,0.02-1.62c0.09-1.1,0.6-2.17,1.43-2.93c0.82-0.77,1.94-1.21,3.08-1.21
													c17.73,0.01,33.78,0.02,45.4,0.03c0.73,0,1.44,0,2.13,0c0.69,0.01,1.37-0.04,2.03,0.09c1.31,0.25,2.38,1.09,2.98,2.09
													c0.3,0.5,0.49,1.04,0.58,1.58c0.09,0.54,0.06,1.06,0.06,1.55c0,0.49,0.01,0.97-0.05,1.42c-0.05,0.45-0.2,0.87-0.36,1.24
													c-0.34,0.75-0.85,1.3-1.35,1.68c-0.5,0.38-1,0.59-1.41,0.72c-0.41,0.11-0.74,0.16-0.96,0.17
													C718.48,606.35,718.37,606.35,718.37,606.35z"/>
											</g>
										</g>
									</g>
								</g>
							</g>
						</g>
					</g>
					<g>
						<g>
							<g>
								<g>
									<g>
										<g>
											<g>
												<path class="st7" d="M719.25,600.87c-0.02,0-0.02-0.17-0.1-0.45c-0.08-0.28-0.27-0.68-0.69-0.99
													c-0.41-0.31-1.07-0.48-1.71-0.24c-0.64,0.22-1.18,0.9-1.18,1.69c-0.01,0.79,0.54,1.47,1.18,1.69
													c0.64,0.24,1.31,0.07,1.71-0.24c0.42-0.31,0.61-0.72,0.69-0.99C719.24,601.04,719.23,600.87,719.25,600.87
													c0.01,0,0.01,0.04,0.02,0.12c0,0.08,0,0.2-0.03,0.35c-0.06,0.3-0.24,0.74-0.68,1.09c-0.43,0.35-1.16,0.56-1.87,0.31
													c-0.71-0.23-1.33-0.99-1.32-1.87c-0.01-0.88,0.61-1.64,1.32-1.87c0.72-0.26,1.44-0.05,1.87,0.31
													c0.44,0.35,0.63,0.8,0.68,1.09c0.03,0.15,0.04,0.27,0.03,0.35C719.27,600.83,719.26,600.87,719.25,600.87z"/>
											</g>
										</g>
									</g>
								</g>
							</g>
						</g>
						<g>
							<g>
								<g>
									<g>
										<g>
											<g>
												<path class="st7" d="M720.3,604.14c-0.04,0.04-0.46-0.34-0.93-0.85c-0.47-0.51-0.81-0.95-0.77-0.99
													c0.04-0.04,0.46,0.34,0.93,0.85C720,603.65,720.34,604.1,720.3,604.14z"/>
											</g>
										</g>
									</g>
								</g>
							</g>
						</g>
					</g>
					<g>
						<g>
							<g>
								<g>
									<g>
										<path class="st10" d="M673.01,600.07h-1.03v-0.27h2.36v0.27h-1.03v2.65h-0.31V600.07z"/>
									</g>
								</g>
							</g>
						</g>
						<g>
							<g>
								<g>
									<g>
										<path class="st10" d="M676.46,601.72h-1.84c0.03,0.46,0.38,0.76,0.86,0.76c0.27,0,0.51-0.1,0.67-0.29l0.17,0.19
											c-0.2,0.23-0.5,0.36-0.85,0.36c-0.68,0-1.15-0.47-1.15-1.12c0-0.65,0.45-1.11,1.07-1.11c0.62,0,1.06,0.45,1.06,1.11
											C676.46,601.65,676.46,601.68,676.46,601.72z M674.62,601.5h1.56c-0.04-0.43-0.35-0.73-0.78-0.73
											C674.97,600.77,674.66,601.07,674.62,601.5z"/>
									</g>
								</g>
							</g>
						</g>
						<g>
							<g>
								<g>
									<g>
										<path class="st10" d="M678.4,602.72l-0.7-0.92l-0.7,0.92h-0.33l0.87-1.13l-0.83-1.07h0.33l0.66,0.86l0.66-0.86h0.33
											l-0.83,1.07l0.88,1.13H678.4z"/>
									</g>
								</g>
							</g>
						</g>
						<g>
							<g>
								<g>
									<g>
										<path class="st10" d="M680.39,602.59c-0.12,0.1-0.29,0.15-0.46,0.15c-0.41,0-0.64-0.23-0.64-0.64v-1.33h-0.39v-0.25h0.39
											v-0.48h0.3v0.48h0.67v0.25h-0.67v1.31c0,0.26,0.13,0.4,0.38,0.4c0.12,0,0.24-0.04,0.33-0.11L680.39,602.59z"/>
									</g>
								</g>
							</g>
						</g>
					</g>
				</g>
				<g>
					<g>
						<g>
							<g>
								<g>
									<g>
										<g>
											<path class="st11" d="M704.49,616.32c0,0.06-4.21,0.11-9.41,0.11c-5.2,0-9.41-0.05-9.41-0.11c0-0.06,4.21-0.11,9.41-0.11
												C700.28,616.21,704.49,616.26,704.49,616.32z"/>
										</g>
									</g>
								</g>
							</g>
						</g>
					</g>
					<g>
						<g>
							<g>
								<g>
									<g>
										<g>
											<path class="st7" d="M719.49,620.18c0,0.06-7.57,0.11-16.9,0.11c-9.34,0-16.91-0.05-16.91-0.11s7.57-0.11,16.91-0.11
												C711.92,620.07,719.49,620.12,719.49,620.18z"/>
										</g>
									</g>
								</g>
							</g>
						</g>
					</g>
					<g>
						<g>
							<g>
								<g>
									<g>
										<g>
											<path class="st7" d="M719.09,622.93c0,0.06-7.48,0.11-16.71,0.11c-9.23,0-16.71-0.05-16.71-0.11
												c0-0.06,7.48-0.11,16.71-0.11C711.61,622.83,719.09,622.88,719.09,622.93z"/>
										</g>
									</g>
								</g>
							</g>
						</g>
					</g>
					<g>
						<g>
							<g>
								<g>
									<g>
										<g>
											<path class="st7" d="M705.41,625.56c0,0.06-4.42,0.11-9.86,0.11c-5.45,0-9.86-0.05-9.86-0.11c0-0.06,4.42-0.11,9.86-0.11
												C700.99,625.46,705.41,625.51,705.41,625.56z"/>
										</g>
									</g>
								</g>
							</g>
						</g>
					</g>
				</g>
				<g>
					<g>
						<g>
							<g>
								<g>
									<g>
										<g>
											<path class="st11" d="M704.49,637.3c0,0.06-4.21,0.11-9.41,0.11c-5.2,0-9.41-0.05-9.41-0.11s4.21-0.11,9.41-0.11
												C700.28,637.19,704.49,637.24,704.49,637.3z"/>
										</g>
									</g>
								</g>
							</g>
						</g>
					</g>
					<g>
						<g>
							<g>
								<g>
									<g>
										<g>
											<path class="st7" d="M719.49,641.16c0,0.06-7.57,0.11-16.9,0.11c-9.34,0-16.91-0.05-16.91-0.11
												c0-0.06,7.57-0.11,16.91-0.11C711.92,641.05,719.49,641.1,719.49,641.16z"/>
										</g>
									</g>
								</g>
							</g>
						</g>
					</g>
					<g>
						<g>
							<g>
								<g>
									<g>
										<g>
											<path class="st7" d="M719.09,643.92c0,0.06-7.48,0.11-16.71,0.11c-9.23,0-16.71-0.05-16.71-0.11s7.48-0.11,16.71-0.11
												C711.61,643.81,719.09,643.86,719.09,643.92z"/>
										</g>
									</g>
								</g>
							</g>
						</g>
					</g>
					<g>
						<g>
							<g>
								<g>
									<g>
										<g>
											<path class="st7" d="M705.41,646.55c0,0.06-4.42,0.11-9.86,0.11c-5.45,0-9.86-0.05-9.86-0.11c0-0.06,4.42-0.11,9.86-0.11
												C700.99,646.44,705.41,646.49,705.41,646.55z"/>
										</g>
									</g>
								</g>
							</g>
						</g>
					</g>
				</g>
				<g>
					<g>
						<g>
							<g>
								<g>
									<g>
										<g>
											<path class="st11" d="M704.49,658.28c0,0.06-4.21,0.11-9.41,0.11c-5.2,0-9.41-0.05-9.41-0.11s4.21-0.11,9.41-0.11
												C700.28,658.17,704.49,658.22,704.49,658.28z"/>
										</g>
									</g>
								</g>
							</g>
						</g>
					</g>
					<g>
						<g>
							<g>
								<g>
									<g>
										<g>
											<path class="st7" d="M719.49,662.14c0,0.06-7.57,0.11-16.9,0.11c-9.34,0-16.91-0.05-16.91-0.11
												c0-0.06,7.57-0.11,16.91-0.11C711.92,662.04,719.49,662.08,719.49,662.14z"/>
										</g>
									</g>
								</g>
							</g>
						</g>
					</g>
					<g>
						<g>
							<g>
								<g>
									<g>
										<g>
											<path class="st7" d="M719.09,664.9c0,0.06-7.48,0.11-16.71,0.11c-9.23,0-16.71-0.05-16.71-0.11
												c0-0.06,7.48-0.11,16.71-0.11C711.61,664.79,719.09,664.84,719.09,664.9z"/>
										</g>
									</g>
								</g>
							</g>
						</g>
					</g>
					<g>
						<g>
							<g>
								<g>
									<g>
										<g>
											<path class="st7" d="M705.41,667.53c0,0.06-4.42,0.11-9.86,0.11c-5.45,0-9.86-0.05-9.86-0.11c0-0.06,4.42-0.11,9.86-0.11
												C700.99,667.42,705.41,667.47,705.41,667.53z"/>
										</g>
									</g>
								</g>
							</g>
						</g>
					</g>
				</g>
				<g>
					<g>
						<g>
							<g>
								<g>
									<g>
										<g>
											<path class="st11" d="M704.49,679.26c0,0.06-4.21,0.11-9.41,0.11c-5.2,0-9.41-0.05-9.41-0.11c0-0.06,4.21-0.11,9.41-0.11
												C700.28,679.16,704.49,679.21,704.49,679.26z"/>
										</g>
									</g>
								</g>
							</g>
						</g>
					</g>
					<g>
						<g>
							<g>
								<g>
									<g>
										<g>
											<path class="st7" d="M719.49,683.12c0,0.06-7.57,0.11-16.9,0.11c-9.34,0-16.91-0.05-16.91-0.11
												c0-0.06,7.57-0.11,16.91-0.11C711.92,683.02,719.49,683.07,719.49,683.12z"/>
										</g>
									</g>
								</g>
							</g>
						</g>
					</g>
					<g>
						<g>
							<g>
								<g>
									<g>
										<g>
											<path class="st7" d="M719.09,685.88c0,0.06-7.48,0.11-16.71,0.11c-9.23,0-16.71-0.05-16.71-0.11
												c0-0.06,7.48-0.11,16.71-0.11C711.61,685.78,719.09,685.82,719.09,685.88z"/>
										</g>
									</g>
								</g>
							</g>
						</g>
					</g>
					<g>
						<g>
							<g>
								<g>
									<g>
										<g>
											<path class="st7" d="M705.41,688.51c0,0.06-4.42,0.11-9.86,0.11c-5.45,0-9.86-0.05-9.86-0.11c0-0.06,4.42-0.11,9.86-0.11
												C700.99,688.41,705.41,688.45,705.41,688.51z"/>
										</g>
									</g>
								</g>
							</g>
						</g>
					</g>
				</g>
				<g>
					<g>
						<g>
							<g>
								<g>
									<g>
										<g>
											<path class="st11" d="M704.49,700.1c0,0.06-4.21,0.11-9.41,0.11c-5.2,0-9.41-0.05-9.41-0.11c0-0.06,4.21-0.11,9.41-0.11
												C700.28,699.99,704.49,700.04,704.49,700.1z"/>
										</g>
									</g>
								</g>
							</g>
						</g>
					</g>
					<g>
						<g>
							<g>
								<g>
									<g>
										<g>
											<path class="st7" d="M719.49,703.96c0,0.06-7.57,0.11-16.9,0.11c-9.34,0-16.91-0.05-16.91-0.11
												c0-0.06,7.57-0.11,16.91-0.11C711.92,703.85,719.49,703.9,719.49,703.96z"/>
										</g>
									</g>
								</g>
							</g>
						</g>
					</g>
					<g>
						<g>
							<g>
								<g>
									<g>
										<g>
											<path class="st7" d="M719.09,706.72c0,0.06-7.48,0.11-16.71,0.11c-9.23,0-16.71-0.05-16.71-0.11
												c0-0.06,7.48-0.11,16.71-0.11C711.61,706.61,719.09,706.66,719.09,706.72z"/>
										</g>
									</g>
								</g>
							</g>
						</g>
					</g>
					<g>
						<g>
							<g>
								<g>
									<g>
										<g>
											<path class="st7" d="M705.41,709.35c0,0.06-4.42,0.11-9.86,0.11c-5.45,0-9.86-0.05-9.86-0.11c0-0.06,4.42-0.11,9.86-0.11
												C700.99,709.24,705.41,709.29,705.41,709.35z"/>
										</g>
									</g>
								</g>
							</g>
						</g>
					</g>
				</g>
			</g>
			<g>
				<g>
					<g>
						<g>
							
								<rect x="667.4" y="614.3" transform="matrix(5.572870e-03 -1 1 5.572870e-03 47.4593 1291.6487)" class="st12" width="11.52" height="15.32"/>
						</g>
					</g>
				</g>
				<g>
					<g>
						<g>
							<polygon class="st11" points="665.47,627.68 670.86,620.55 674.15,625.05 676.41,622.66 680.79,627.76 							"/>
						</g>
					</g>
				</g>
				<g>
					<g>
						<g>
							<g>
								<g>
									<path class="st11" d="M675.59,619.7c0,0.67-0.55,1.2-1.21,1.2c-0.67,0-1.2-0.55-1.2-1.21c0-0.67,0.55-1.2,1.21-1.2
										C675.06,618.49,675.59,619.03,675.59,619.7z"/>
								</g>
							</g>
						</g>
					</g>
				</g>
				<g class="st13">
					<g>
						<g>
							<polygon points="665.47,627.68 670.86,620.55 674.15,625.05 676.41,622.66 680.79,627.76 							"/>
						</g>
					</g>
				</g>
				<g class="st13">
					<g>
						<g>
							<g>
								<g>
									<path d="M675.59,619.7c0,0.67-0.55,1.2-1.21,1.2c-0.67,0-1.2-0.55-1.2-1.21c0-0.67,0.55-1.2,1.21-1.2
										C675.06,618.49,675.59,619.03,675.59,619.7z"/>
								</g>
							</g>
						</g>
					</g>
				</g>
			</g>
			<g>
				<g>
					<g>
						<g>
							
								<rect x="667.4" y="635.02" transform="matrix(5.569594e-03 -1 1 5.569594e-03 26.7462 1312.251)" class="st12" width="11.52" height="15.32"/>
						</g>
					</g>
				</g>
				<g>
					<g>
						<g>
							<polygon class="st11" points="665.47,648.39 670.86,641.26 674.15,645.76 676.41,643.38 680.79,648.48 							"/>
						</g>
					</g>
				</g>
				<g>
					<g>
						<g>
							<g>
								<g>
									<path class="st11" d="M675.59,640.41c0,0.67-0.55,1.2-1.21,1.2c-0.67,0-1.2-0.55-1.2-1.21c0-0.67,0.55-1.2,1.21-1.2
										C675.06,639.2,675.59,639.75,675.59,640.41z"/>
								</g>
							</g>
						</g>
					</g>
				</g>
				<g class="st13">
					<g>
						<g>
							<polygon points="665.47,648.39 670.86,641.26 674.15,645.76 676.41,643.38 680.79,648.48 							"/>
						</g>
					</g>
				</g>
				<g class="st13">
					<g>
						<g>
							<g>
								<g>
									<path d="M675.59,640.41c0,0.67-0.55,1.2-1.21,1.2c-0.67,0-1.2-0.55-1.2-1.21c0-0.67,0.55-1.2,1.21-1.2
										C675.06,639.2,675.59,639.75,675.59,640.41z"/>
								</g>
							</g>
						</g>
					</g>
				</g>
			</g>
			<g>
				<g>
					<g>
						<g>
							
								<rect x="667.4" y="655.73" transform="matrix(5.569594e-03 -1 1 5.569594e-03 6.031 1332.8511)" class="st12" width="11.52" height="15.32"/>
						</g>
					</g>
				</g>
				<g>
					<g>
						<g>
							<polygon class="st11" points="665.47,669.11 670.86,661.98 674.15,666.48 676.41,664.1 680.79,669.19 							"/>
						</g>
					</g>
				</g>
				<g>
					<g>
						<g>
							<g>
								<g>
									<path class="st11" d="M675.59,661.13c0,0.67-0.55,1.2-1.21,1.2c-0.67,0-1.2-0.55-1.2-1.21c0-0.67,0.55-1.2,1.21-1.2
										C675.06,659.92,675.59,660.46,675.59,661.13z"/>
								</g>
							</g>
						</g>
					</g>
				</g>
				<g class="st13">
					<g>
						<g>
							<polygon points="665.47,669.11 670.86,661.98 674.15,666.48 676.41,664.1 680.79,669.19 							"/>
						</g>
					</g>
				</g>
				<g class="st13">
					<g>
						<g>
							<g>
								<g>
									<path d="M675.59,661.13c0,0.67-0.55,1.2-1.21,1.2c-0.67,0-1.2-0.55-1.2-1.21c0-0.67,0.55-1.2,1.21-1.2
										C675.06,659.92,675.59,660.46,675.59,661.13z"/>
								</g>
							</g>
						</g>
					</g>
				</g>
			</g>
			<g>
				<g>
					<g>
						<g>
							
								<rect x="667.4" y="676.45" transform="matrix(5.572870e-03 -1 1 5.572870e-03 -14.6864 1353.449)" class="st12" width="11.52" height="15.32"/>
						</g>
					</g>
				</g>
				<g>
					<g>
						<g>
							<polygon class="st11" points="665.47,689.82 670.86,682.7 674.15,687.19 676.41,684.81 680.79,689.91 							"/>
						</g>
					</g>
				</g>
				<g>
					<g>
						<g>
							<g>
								<g>
									<path class="st11" d="M675.59,681.84c0,0.67-0.55,1.2-1.21,1.2c-0.67,0-1.2-0.55-1.2-1.21c0-0.67,0.55-1.2,1.21-1.2
										C675.06,680.64,675.59,681.18,675.59,681.84z"/>
								</g>
							</g>
						</g>
					</g>
				</g>
				<g class="st13">
					<g>
						<g>
							<polygon points="665.47,689.82 670.86,682.7 674.15,687.19 676.41,684.81 680.79,689.91 							"/>
						</g>
					</g>
				</g>
				<g class="st13">
					<g>
						<g>
							<g>
								<g>
									<path d="M675.59,681.84c0,0.67-0.55,1.2-1.21,1.2c-0.67,0-1.2-0.55-1.2-1.21c0-0.67,0.55-1.2,1.21-1.2
										C675.06,680.64,675.59,681.18,675.59,681.84z"/>
								</g>
							</g>
						</g>
					</g>
				</g>
			</g>
			<g>
				<g>
					<g>
						<g>
							
								<rect x="667.4" y="697.06" transform="matrix(5.572870e-03 -1 1 5.572870e-03 -35.3008 1373.9489)" class="st12" width="11.52" height="15.32"/>
						</g>
					</g>
				</g>
				<g>
					<g>
						<g>
							<polygon class="st11" points="665.47,710.44 670.86,703.31 674.15,707.81 676.41,705.43 680.79,710.52 							"/>
						</g>
					</g>
				</g>
				<g>
					<g>
						<g>
							<g>
								<g>
									<path class="st11" d="M675.59,702.46c0,0.67-0.55,1.2-1.21,1.2c-0.67,0-1.2-0.55-1.2-1.21c0-0.67,0.55-1.2,1.21-1.2
										C675.06,701.25,675.59,701.79,675.59,702.46z"/>
								</g>
							</g>
						</g>
					</g>
				</g>
				<g class="st13">
					<g>
						<g>
							<polygon points="665.47,710.44 670.86,703.31 674.15,707.81 676.41,705.43 680.79,710.52 							"/>
						</g>
					</g>
				</g>
				<g class="st13">
					<g>
						<g>
							<g>
								<g>
									<path d="M675.59,702.46c0,0.67-0.55,1.2-1.21,1.2c-0.67,0-1.2-0.55-1.2-1.21c0-0.67,0.55-1.2,1.21-1.2
										C675.06,701.25,675.59,701.79,675.59,702.46z"/>
								</g>
							</g>
						</g>
					</g>
				</g>
			</g>
		</g>
	</g>
	<g>
		<g>
			<g>
				<path class="st14" d="M664.08,639.11l0.3-1.19c0.2-0.78,0.18-1.59-0.05-2.36l-1.24-4.14c-0.11-0.38-0.37-0.7-0.71-0.9
					c-0.94-0.54-2.8-1.59-2.96-1.45c-1.14,0.95,1.41,2.62,1.41,2.62s0.98,1.09,0.2,1.91c-0.89,0.93-2.55-1.1-2.55-1.1
					s0.09-0.21,0.17-0.17c0.03,0.02,0.87,0.69,1.6,0.69l0-1.35l-1.51-0.95c-0.33-0.21-0.74-0.28-1.12-0.2l-0.52,0.11
					c-0.34,0.07-0.63,0.27-0.83,0.56l-0.5,0.74l-0.21,0.28c-0.21,0.28-0.24,0.64-0.1,0.95l0.24,0.53l-0.33,0.46
					c-0.27,0.39-0.34,0.88-0.17,1.32l2.54,3.5l3.77,6.15l4.08-4.38L664.08,639.11z"/>
			</g>
			<g>
				<g>
					<g>
						<path class="st15" d="M656.18,635.47c0.01-0.01-0.08-0.08-0.14-0.25c-0.06-0.17-0.05-0.43,0.12-0.65l0.02-0.02l-0.01-0.03
							c-0.01-0.03-0.03-0.06-0.04-0.09c-0.28-0.56-0.52-1.01-0.54-1c-0.02,0.01,0.18,0.48,0.45,1.04c0.02,0.03,0.03,0.06,0.04,0.09
							l0.01-0.05c-0.19,0.25-0.19,0.56-0.11,0.73C656.06,635.43,656.18,635.49,656.18,635.47z"/>
					</g>
				</g>
			</g>
			<g>
				<g>
					<path class="st15" d="M656.49,630.91c0.02,0.01-0.17,0.26-0.08,0.7c0.09,0.44,0.33,1.03,0.69,1.62
						c0.09,0.15,0.19,0.3,0.24,0.47c0.05,0.17,0.04,0.35,0.03,0.5c-0.04,0.3-0.02,0.56,0.09,0.75c0.21,0.4,0.51,0.49,0.49,0.51
						c0.01,0.01-0.33-0.04-0.59-0.46c-0.13-0.2-0.17-0.52-0.14-0.82c0.01-0.15,0.01-0.3-0.03-0.44c-0.05-0.15-0.13-0.29-0.23-0.44
						c-0.37-0.61-0.6-1.21-0.66-1.69C656.24,631.14,656.49,630.89,656.49,630.91z"/>
				</g>
			</g>
			<g>
				<g>
					<path class="st15" d="M658.5,632.44c-0.04-0.01-0.03-0.27-0.19-0.56c-0.15-0.29-0.32-0.51-0.29-0.54
						c0.03-0.03,0.26,0.15,0.43,0.47C658.64,632.13,658.55,632.46,658.5,632.44z"/>
				</g>
			</g>
		</g>
		<g>
			<polygon class="st16" points="665.47,660.15 667.02,662.09 675.08,652.41 664.53,638.52 659.31,642.62 			"/>
		</g>
		<g>
			<g>
				<g>
					<g>
						<polygon class="st11" points="701.34,753.84 702,769.58 710.5,769.39 709.86,753.62 						"/>
					</g>
				</g>
			</g>
			<g>
				<g>
					<g>
						<g>
							<path class="st7" d="M706.18,768.89c0.07,0-0.06-3.45-0.29-7.7c-0.23-4.25-0.48-7.69-0.55-7.68c-0.07,0,0.06,3.45,0.29,7.7
								C705.86,765.45,706.1,768.89,706.18,768.89z"/>
						</g>
					</g>
				</g>
			</g>
			<g>
				<g>
					<g>
						<polygon class="st7" points="701.96,768.49 710.45,768.27 710.5,769.39 702,769.58 						"/>
					</g>
				</g>
			</g>
			<g>
				<g>
					<g>
						<g>
							<path class="st7" d="M710.3,764.35c0.01-0.01-0.07-0.13-0.23-0.33c-0.17-0.2-0.43-0.48-0.79-0.77
								c-0.36-0.3-0.83-0.61-1.41-0.86c-0.57-0.25-1.27-0.41-2-0.37c-1.47,0.07-2.67,0.85-3.24,1.59c-0.3,0.37-0.48,0.71-0.58,0.95
								c-0.1,0.24-0.13,0.39-0.12,0.39c0.05,0.02,0.23-0.54,0.83-1.22c0.59-0.68,1.73-1.39,3.12-1.45c1.39-0.07,2.56,0.58,3.29,1.11
								C709.89,763.93,710.26,764.38,710.3,764.35z"/>
						</g>
					</g>
				</g>
			</g>
			<g class="st17">
				<g>
					<g>
						<polygon points="710.04,758.11 710.11,759.84 701.6,759.99 701.54,758.69 						"/>
					</g>
				</g>
			</g>
		</g>
		<g>
			<g>
				<g>
					<g>
						<g>
							<g>
								<path class="st11" d="M681.34,754.78l0.41,9.58c0,0-9.6,3.64-9.69,5.42l18.6-0.14l-0.03-14.95L681.34,754.78z"/>
							</g>
						</g>
					</g>
					<g>
						<g>
							<g>
								<g>
									<path class="st10" d="M687.37,763.55c0.36,0.1,0.62,0.5,0.54,0.87c-0.08,0.37-0.49,0.63-0.86,0.54
										c-0.36-0.09-0.68-0.57-0.56-0.92c0.12-0.36,0.62-0.64,0.95-0.46"/>
								</g>
							</g>
						</g>
					</g>
					<g>
						<g>
							<g>
								<path class="st7" d="M690.66,769.64l0-1.5l-17.99,0.68c0,0-0.83,0.37-0.73,0.96L690.66,769.64z"/>
							</g>
						</g>
					</g>
					<g>
						<g>
							<g>
								<g>
									<path class="st7" d="M681.58,764.42c0,0.09,0.46,0.13,0.91,0.42c0.46,0.28,0.69,0.67,0.78,0.64
										c0.08-0.02-0.06-0.56-0.61-0.91C682.11,764.23,681.56,764.34,681.58,764.42z"/>
								</g>
							</g>
						</g>
					</g>
					<g>
						<g>
							<g>
								<g>
									<path class="st7" d="M679.62,765.25c-0.02,0.09,0.38,0.24,0.69,0.63c0.32,0.38,0.41,0.79,0.5,0.79
										c0.09,0.01,0.15-0.52-0.25-0.99C680.16,765.2,679.63,765.16,679.62,765.25z"/>
								</g>
							</g>
						</g>
					</g>
					<g>
						<g>
							<g>
								<g>
									<path class="st7" d="M678.53,767.61c0.08,0.02,0.21-0.44-0.03-0.94c-0.23-0.5-0.67-0.7-0.71-0.62
										c-0.05,0.08,0.23,0.34,0.42,0.76C678.41,767.22,678.43,767.6,678.53,767.61z"/>
								</g>
							</g>
						</g>
					</g>
					<g>
						<g>
							<g>
								<g>
									<path class="st7" d="M681.73,762.22c0.04,0.08,0.46-0.05,0.97-0.01c0.52,0.02,0.92,0.19,0.97,0.11
										c0.05-0.07-0.34-0.4-0.95-0.43C682.11,761.85,681.69,762.14,681.73,762.22z"/>
								</g>
							</g>
						</g>
					</g>
				</g>
				<g>
					<g>
						<g>
							<g>
								<path class="st7" d="M681.38,760.15c0,0.04,0.36,0.09,0.94-0.01c0.29-0.05,0.63-0.15,0.98-0.31
									c0.18-0.08,0.36-0.18,0.54-0.29c0.09-0.06,0.19-0.11,0.28-0.22c0.1-0.1,0.16-0.34,0.04-0.49c-0.1-0.14-0.27-0.2-0.4-0.21
									c-0.14,0-0.25,0.03-0.35,0.05c-0.21,0.05-0.4,0.12-0.58,0.2c-0.36,0.17-0.65,0.37-0.86,0.57c-0.43,0.41-0.58,0.75-0.55,0.77
									c0.04,0.03,0.25-0.26,0.69-0.59c0.22-0.17,0.5-0.34,0.83-0.48c0.17-0.07,0.35-0.13,0.54-0.17c0.2-0.05,0.37-0.06,0.42,0.03
									c0.02,0.03,0.02,0.05-0.02,0.11c-0.04,0.05-0.12,0.11-0.21,0.16c-0.16,0.11-0.33,0.2-0.49,0.29
									c-0.33,0.16-0.64,0.28-0.9,0.35C681.73,760.08,681.38,760.1,681.38,760.15z"/>
							</g>
						</g>
					</g>
				</g>
				<g>
					<g>
						<g>
							<g>
								<path class="st7" d="M681.5,760.28c0.03,0.01,0.21-0.32,0.24-0.91c0.01-0.29-0.02-0.65-0.14-1.03
									c-0.06-0.19-0.14-0.38-0.24-0.57c-0.11-0.18-0.25-0.43-0.6-0.47c-0.19-0.01-0.34,0.14-0.39,0.26
									c-0.06,0.13-0.07,0.24-0.09,0.34c-0.03,0.22-0.03,0.43,0,0.63c0.06,0.4,0.23,0.73,0.41,0.97c0.37,0.48,0.75,0.59,0.76,0.56
									c0.03-0.05-0.29-0.22-0.57-0.68c-0.14-0.23-0.26-0.53-0.3-0.88c-0.02-0.17-0.02-0.36,0.01-0.54c0.03-0.2,0.1-0.36,0.18-0.34
									c0.09,0,0.25,0.15,0.33,0.3c0.1,0.17,0.18,0.34,0.24,0.51c0.12,0.34,0.17,0.66,0.19,0.93
									C681.55,759.93,681.45,760.27,681.5,760.28z"/>
							</g>
						</g>
					</g>
				</g>
			</g>
			<g class="st17">
				<g>
					<g>
						<polygon points="690.66,760.43 690.64,762.56 681.67,762.56 681.67,760.63 						"/>
					</g>
				</g>
			</g>
		</g>
		<g>
			<g>
				<g>
					<path class="st14" d="M720.73,601.05l1.34,5.16c0,0,0.5,2.85-0.84,2.85c-1.17,0-1.29-1.53-1.29-1.53s0.58-3.12-0.95-2.95
						c-0.21,0.02-0.77,2.18-1.05,3.27c-0.1,0.4-0.04,0.82,0.16,1.18l2.21,3.92c0.41,0.73,1.01,1.33,1.74,1.74l1.11,0.63l0.14,2.33
						l6.23,0.1l-1.9-7.27l-0.79-4.43c-0.21-0.44-0.63-0.75-1.12-0.83l-0.58-0.09l-0.22-0.56c-0.13-0.33-0.44-0.57-0.79-0.61
						l-0.36-0.05l-0.51-1.26c-0.17-0.42-1.39-3.16-1.84-3.16C721.42,599.5,720.4,599.78,720.73,601.05z"/>
				</g>
			</g>
			<g>
				<g>
					<g>
						<path class="st15" d="M725.17,607.3c-0.02,0,0-0.23-0.12-0.57c-0.11-0.35-0.37-0.75-0.85-1.08c-0.26-0.52-0.38-0.99-0.47-1.35
							c-0.08-0.36-0.08-0.58-0.07-0.58c0.02,0,0.04,0.22,0.14,0.57c0.1,0.34,0.25,0.84,0.48,1.3c0.09,0.08,0.2,0.16,0.3,0.25
							c0.1,0.09,0.18,0.19,0.25,0.29c0.14,0.2,0.23,0.41,0.28,0.58c0.05,0.18,0.06,0.33,0.06,0.43
							C725.19,607.24,725.18,607.3,725.17,607.3z"/>
					</g>
				</g>
			</g>
			<g>
				<g>
					<g>
						<path class="st15" d="M726.12,606.77c-0.01,0,0-0.12-0.09-0.28c-0.08-0.16-0.29-0.35-0.58-0.38l-0.03,0l-0.01-0.03
							c-0.01-0.03-0.02-0.06-0.04-0.1c-0.22-0.61-0.38-1.12-0.36-1.13c0.03-0.01,0.23,0.48,0.45,1.09c0.01,0.03,0.02,0.07,0.04,0.1
							l-0.04-0.03c0.32,0.03,0.56,0.26,0.63,0.45C726.18,606.65,726.14,606.78,726.12,606.77z"/>
					</g>
				</g>
			</g>
		</g>
		<g>
			<g>
				<g>
					<g>
						<g>
							<g>
								<g>
									<g>
										<g>
											<path class="st14" d="M689.45,631.74l11.3-0.15l-1.26-9.62c0,0,0.77-0.17,0.82-4.35s0.24-11.3,0.24-11.3l0,0
												c-4.85-2.08-10.44-1.38-14.62,1.84l-0.62,0.48L689.45,631.74z"/>
										</g>
									</g>
								</g>
							</g>
						</g>
					</g>
				</g>
			</g>
			<g>
				<g>
					<g>
						<g>
							<g>
								<g>
									<path class="st14" d="M686.63,613.79c-0.07-0.03-2.88-0.85-2.78,2.01c0.09,2.86,2.95,2.18,2.95,2.1
										C686.79,617.81,686.63,613.79,686.63,613.79z"/>
								</g>
							</g>
						</g>
					</g>
				</g>
			</g>
			<g>
				<g>
					<g>
						<g>
							<g>
								<g>
									<path class="st14" d="M700.07,613.19c0.07-0.03,2.62-0.72,2.53,2.14c-0.09,2.86-2.95,2.18-2.95,2.1
										S700.07,613.19,700.07,613.19z"/>
								</g>
							</g>
						</g>
					</g>
				</g>
			</g>
			<g>
				<g>
					<path class="st18" d="M685.7,613.47c0.43,2.4,0.34,3.66,0.74,5.26c0.63,2.53,1.88,4.48,4.17,5.74
						c2.28,1.27,5.37,1.24,7.33-0.48c1.36-1.2,2.33-2.55,2.53-4.35c0.2-1.8,0.4-4.99,0.42-6.8c0.02-3.27,0.24-6.39,0.24-6.39
						l-9.33-1.69l-5.31,3.16L685.7,613.47z"/>
				</g>
			</g>
			<g>
				<g>
					<g>
						<path class="st7" d="M695.33,625.92c0.01,0.07-0.72,0.25-1.64,0.14c-0.92-0.1-1.59-0.44-1.56-0.5
							c0.03-0.07,0.72,0.14,1.59,0.24C694.6,625.9,695.32,625.84,695.33,625.92z"/>
					</g>
				</g>
			</g>
			<g>
				<g>
					<path class="st18" d="M686.15,617.55c-0.27-2.46-0.45-5.27-0.83-7.86c-0.14-0.97-0.49-2.37-0.4-3.35
						c0.09-0.98,0.18-1.99,0.61-2.88c0.54-1.11,1.62-1.95,2.84-2.19c1.21-0.24,2.53,0.11,3.46,0.92c0.68-1.02,2.01-1.55,3.2-1.27
						c1.19,0.28,2.16,1.34,2.32,2.55c0.66-0.63,1.76-0.75,2.54-0.27s1.18,1.5,0.93,2.38c0.67,0.11,1.27,0.58,1.54,1.2
						c0.27,0.62,0.21,1.38-0.16,1.95c-0.43,0.67-1.21,1.03-1.69,1.67c-0.55,0.73-0.61,1.8-0.14,2.58"/>
				</g>
				<g>
					<g>
						<path class="st16" d="M699.11,608.67c0.01,0-0.01,0.1-0.1,0.27c-0.09,0.16-0.25,0.4-0.54,0.61c-0.28,0.21-0.71,0.4-1.21,0.38
							c-0.5-0.01-1.08-0.23-1.5-0.7l0.2-0.05c-0.1,0.62-0.59,1.18-1.25,1.43c-0.65,0.28-1.48,0.17-2.1-0.26
							c-0.58-0.39-0.97-0.96-1.18-1.55l0.23,0.03c-0.51,0.77-1.36,1.14-2.11,1.16c-0.77,0.02-1.4-0.34-1.78-0.73
							c-0.39-0.39-0.57-0.81-0.64-1.09c-0.08-0.29-0.07-0.45-0.05-0.45c0.02,0,0.04,0.16,0.14,0.43c0.1,0.27,0.29,0.65,0.67,1
							c0.37,0.35,0.96,0.66,1.66,0.62c0.68-0.03,1.46-0.39,1.91-1.08l0.14-0.21l0.09,0.24c0.2,0.54,0.57,1.07,1.09,1.42
							c0.57,0.39,1.28,0.49,1.87,0.25c0.59-0.22,1.02-0.71,1.12-1.24l0.04-0.24l0.15,0.18c0.36,0.43,0.88,0.64,1.33,0.66
							c0.46,0.03,0.85-0.13,1.13-0.31C698.95,609.06,699.08,608.64,699.11,608.67z"/>
					</g>
				</g>
				<g>
					<g>
						<path class="st16" d="M699.1,607.53c-0.05,0.01,0.01-0.47-0.4-1.04c-0.2-0.28-0.53-0.56-0.98-0.66
							c-0.44-0.11-0.99-0.04-1.42,0.27l-0.23,0.16l0.02-0.28c0.02-0.27-0.01-0.55-0.1-0.82c-0.2-0.61-0.64-1.1-1.15-1.34
							c-0.5-0.24-1.04-0.23-1.45-0.13c-0.85,0.22-1.18,0.73-1.21,0.68c-0.01-0.01,0.05-0.14,0.23-0.32
							c0.18-0.18,0.49-0.41,0.93-0.54c0.44-0.13,1.03-0.17,1.6,0.09c0.57,0.25,1.07,0.79,1.3,1.48c0.1,0.31,0.13,0.62,0.1,0.93
							l-0.2-0.12c0.51-0.36,1.13-0.42,1.63-0.28c0.51,0.13,0.86,0.47,1.06,0.78c0.2,0.32,0.27,0.62,0.29,0.82
							C699.14,607.42,699.11,607.53,699.1,607.53z"/>
					</g>
				</g>
				<g>
					<g>
						<path class="st16" d="M693.14,607.62c-0.04-0.02,0.01-0.16-0.01-0.39c-0.01-0.23-0.1-0.54-0.29-0.85
							c-0.19-0.3-0.41-0.6-0.54-0.76c-0.14-0.15-0.28-0.04-0.3-0.06c-0.01,0-0.02-0.06,0.06-0.12c0.07-0.05,0.23-0.06,0.35,0.03
							c0.13,0.09,0.21,0.2,0.32,0.33c0.11,0.13,0.22,0.27,0.33,0.44c0.21,0.34,0.29,0.72,0.25,0.99
							C693.29,607.5,693.17,607.63,693.14,607.62z"/>
					</g>
				</g>
				<g>
					<g>
						<path class="st16" d="M687.61,604.02c-0.03-0.01,0-0.22,0.17-0.52c0.09-0.15,0.22-0.32,0.43-0.45
							c0.2-0.13,0.48-0.21,0.76-0.17c0.56,0.08,0.93,0.46,1.13,0.71c0.21,0.26,0.3,0.45,0.28,0.47c-0.03,0.02-0.18-0.12-0.41-0.34
							c-0.23-0.22-0.58-0.52-1.03-0.58c-0.45-0.07-0.81,0.22-1,0.46C687.74,603.85,687.65,604.03,687.61,604.02z"/>
					</g>
				</g>
				<g>
					<g>
						<path class="st16" d="M689.06,616.15c-0.06,0.04-0.61-0.73-0.99-1.83c-0.38-1.09-0.41-2.04-0.35-2.05
							c0.08-0.01,0.22,0.9,0.59,1.96C688.69,615.31,689.13,616.11,689.06,616.15z"/>
					</g>
				</g>
				<g>
					<g>
						<path class="st16" d="M690.31,616.84c-0.06,0.03-0.41-0.54-0.69-1.3c-0.29-0.76-0.41-1.41-0.34-1.43
							c0.07-0.02,0.3,0.59,0.58,1.34C690.15,616.2,690.38,616.81,690.31,616.84z"/>
					</g>
				</g>
				<g>
					<g>
						<path class="st16" d="M698.18,617.03c0.06-0.01,0.19,1.17-0.32,2.51c-0.5,1.35-1.39,2.15-1.42,2.1
							c-0.06-0.05,0.7-0.9,1.18-2.19C698.1,618.17,698.1,617.03,698.18,617.03z"/>
					</g>
				</g>
				<g>
					<g>
						<path class="st16" d="M699.43,614.95c0.06-0.03,0.42,0.99,0.18,2.27c-0.23,1.28-0.93,2.1-0.97,2.06
							c-0.07-0.04,0.5-0.89,0.71-2.1C699.58,615.96,699.35,614.96,699.43,614.95z"/>
					</g>
				</g>
			</g>
		</g>
		<g>
			<g>
				<g>
					<polyline class="st7" points="695.82,693.82 698.56,720.31 700.54,760.2 711.06,760.2 711.35,675.3 681.21,677.45 
						674.97,721.99 680.37,760.98 691.92,760.98 689.22,723.91 695.82,693.82 					"/>
				</g>
			</g>
			<g>
				<g>
					<g>
						<path class="st16" d="M695.82,693.82c0.05,0.05-0.87,0.96-2.05,2.02c-1.18,1.06-2.17,1.88-2.22,1.83s0.87-0.96,2.05-2.02
							C694.77,694.59,695.77,693.77,695.82,693.82z"/>
					</g>
				</g>
			</g>
			<g>
				<g>
					<g>
						<path class="st16" d="M695.79,693.29c-0.07-0.01-0.01-1.53,0.06-3.4c0.07-1.87,0.12-3.39,0.2-3.4c0.07,0,0.14,1.53,0.06,3.41
							C696.04,691.78,695.86,693.3,695.79,693.29z"/>
					</g>
				</g>
			</g>
			<g>
				<g>
					<g>
						<path class="st16" d="M699.27,683.41c-0.01,0,0.05-0.01,0.17-0.02c0.14-0.01,0.31-0.02,0.52-0.03c0.49-0.02,1.16-0.06,2-0.1
							c1.77-0.07,4.23-0.18,7.14-0.3l0.12-0.01l0,0.12c0,2.23,0.01,4.75,0.01,7.41l0,0.14v0.09l-0.08,0.03
							c-1.62,0.65-3.18,1.27-4.64,1.86l-0.04,0.02l-0.04-0.02c-1.47-0.51-2.85-0.99-4.1-1.43l-0.06-0.02l-0.01-0.07
							c-0.3-2.31-0.55-4.24-0.73-5.62c-0.08-0.64-0.14-1.16-0.19-1.54C699.28,683.58,699.26,683.4,699.27,683.41
							c0,0,0.02,0.05,0.03,0.15c0.02,0.11,0.04,0.25,0.07,0.42c0.06,0.39,0.14,0.91,0.25,1.56c0.21,1.36,0.49,3.26,0.83,5.53
							l-0.07-0.09c1.26,0.43,2.64,0.9,4.11,1.4l-0.09,0c1.47-0.59,3.02-1.22,4.64-1.87l-0.08,0.12v-0.14c0-2.66,0.01-5.18,0.01-7.41
							l0.12,0.12c-2.88,0.07-5.31,0.13-7.06,0.17c-0.85,0.02-1.53,0.03-2.03,0.04c-0.22,0-0.4,0-0.55,0
							C699.34,683.41,699.27,683.41,699.27,683.41z"/>
					</g>
				</g>
			</g>
			<g>
				<g>
					<g>
						<path class="st16" d="M684.07,683.54c0,0,0.05-0.01,0.15-0.02c0.13-0.01,0.28-0.01,0.47-0.02c0.45-0.01,1.05-0.03,1.81-0.06
							c1.6-0.04,3.84-0.09,6.51-0.15l0.12,0l0,0.12c-0.07,2.2-0.15,4.73-0.24,7.43l0,0.07l-0.06,0.04c-0.24,0.16-0.5,0.32-0.75,0.49
							c-1.32,0.86-2.6,1.7-3.82,2.49l-0.07,0.04l-0.07-0.04c-1.55-0.94-3-1.83-4.3-2.62l-0.05-0.03l0-0.06
							c0.08-2.31,0.15-4.23,0.2-5.61c0.03-0.64,0.05-1.16,0.07-1.54C684.05,683.71,684.06,683.53,684.07,683.54
							c0,0,0.01,0.06,0.01,0.15c0,0.11,0,0.25,0,0.42c0,0.39-0.01,0.91-0.01,1.57c-0.02,1.36-0.05,3.27-0.08,5.55l-0.05-0.1
							c1.31,0.78,2.76,1.66,4.32,2.59l-0.13,0c1.21-0.79,2.49-1.63,3.81-2.5c0.26-0.17,0.51-0.34,0.75-0.49l-0.06,0.1
							c0.1-2.7,0.19-5.23,0.27-7.43l0.12,0.12c-2.64,0.01-4.85,0.03-6.44,0.04c-0.77,0-1.38,0-1.83,0c-0.2,0-0.36,0-0.49-0.01
							C684.14,683.54,684.08,683.54,684.07,683.54z"/>
					</g>
				</g>
			</g>
			<g>
				<g>
					<g>
						<path class="st16" d="M708.1,695.54c0,0.04-0.55,0.02-1.43-0.04c-0.88-0.07-2.09-0.18-3.42-0.36
							c-1.33-0.17-2.53-0.37-3.4-0.53c-0.87-0.16-1.4-0.29-1.39-0.32c0.01-0.04,0.55,0.02,1.42,0.14c0.96,0.13,2.12,0.28,3.41,0.45
							c1.29,0.16,2.45,0.31,3.41,0.43C707.56,695.42,708.1,695.5,708.1,695.54z"/>
					</g>
				</g>
			</g>
			<g>
				<g>
					<g>
						<path class="st16" d="M707.85,725.06c0.01,0.01-0.04,0.15-0.25,0.33c-0.2,0.18-0.58,0.37-1.08,0.37
							c-0.5,0.02-1.07-0.21-1.57-0.6c-0.51-0.39-0.96-0.91-1.43-1.45c-0.94-1.09-1.66-2.18-2.13-3c-0.47-0.82-0.7-1.36-0.67-1.37
							c0.03-0.02,0.32,0.49,0.82,1.27c0.5,0.79,1.24,1.85,2.17,2.92c0.47,0.54,0.92,1.05,1.38,1.43c0.47,0.38,0.98,0.6,1.43,0.61
							c0.45,0.02,0.8-0.12,1.01-0.26C707.75,725.17,707.83,725.05,707.85,725.06z"/>
					</g>
				</g>
			</g>
			<g>
				<g>
					<g>
						<path class="st16" d="M687.06,725.99c0.01,0-0.02,0.14-0.14,0.34c-0.12,0.2-0.36,0.47-0.73,0.69
							c-0.37,0.22-0.87,0.39-1.44,0.38c-0.57-0.01-1.19-0.21-1.74-0.55c-1.11-0.71-1.72-1.77-2.09-2.49
							c-0.37-0.75-0.55-1.23-0.52-1.24c0.04-0.02,0.28,0.44,0.68,1.15c0.41,0.7,1.02,1.7,2.07,2.36c0.52,0.32,1.08,0.51,1.61,0.53
							c0.52,0.02,1-0.12,1.35-0.3C686.82,726.48,687.02,725.96,687.06,725.99z"/>
					</g>
				</g>
			</g>
			<g>
				<g>
					<g>
						<path class="st16" d="M687.73,721.99c0.02,0.03-0.29,0.26-0.86,0.5c-0.57,0.25-1.41,0.48-2.36,0.53
							c-0.95,0.04-1.81-0.13-2.4-0.33c-0.59-0.2-0.92-0.4-0.9-0.43c0.02-0.08,1.43,0.59,3.29,0.5
							C686.36,722.7,687.7,721.91,687.73,721.99z"/>
					</g>
				</g>
			</g>
		</g>
		<g>
			<g>
				<g>
					<g>
						<path class="st16" d="M721.99,628.51h-15.35c0,0-2.08-1.2-3.09-1c-1.01,0.2-1.88,1.28-1.88,1.28l2.03,16.91l4.97-3.68
							l18.5-1.93c1.6-0.02,3.13-0.68,4.23-1.85l0,0c1.19-1.27,1.76-3,1.56-4.73l-3.42-18.19l-7.02,0.23l-0.28,4.62L721.99,628.51z"
							/>
					</g>
				</g>
				<g>
					<g>
						<path class="st16" d="M679.74,632.78c0,0-2.48,1.37-3.71,4.31c-0.9,2.15-7.01,12.88-10.23,18.49
							c-1.17,2.04-0.86,4.61,0.77,6.31l0,0c1.96,2.05,4.3,1.25,7.15,0.32c1.28-0.42,7.04-9.26,7.04-9.26L679.74,632.78z"/>
					</g>
				</g>
				<g>
					<g>
						<polygon class="st16" points="682.41,671.12 678.89,640.85 679.74,632.78 688.7,628.96 700.3,628.2 711.35,629.42 
							708.77,660.47 711.59,677.98 680.65,679.38 						"/>
					</g>
				</g>
				<g>
					<g>
						<g>
							<path class="st7" d="M682.4,670.99c-0.07,0.01-0.91-6.73-1.88-15.06c-0.97-8.33-1.69-15.08-1.62-15.09
								c0.07-0.01,0.91,6.73,1.88,15.06C681.74,664.23,682.47,670.99,682.4,670.99z"/>
						</g>
					</g>
				</g>
				<g>
					<g>
						<g>
							<path class="st7" d="M711.12,636.21c0.01,0,0.01,0.1-0.01,0.27c-0.02,0.21-0.04,0.46-0.07,0.78
								c-0.07,0.71-0.17,1.68-0.29,2.86c-0.25,2.44-0.58,5.76-0.95,9.42c-0.35,3.68-0.64,7.02-0.82,9.43
								c-0.09,1.18-0.15,2.15-0.21,2.86c-0.03,0.31-0.05,0.57-0.06,0.78c-0.02,0.18-0.03,0.27-0.04,0.27
								c-0.01,0-0.01-0.09-0.01-0.27c0-0.21,0.01-0.47,0.01-0.78c0.01-0.68,0.06-1.66,0.12-2.87c0.13-2.42,0.39-5.76,0.74-9.44
								c0.35-3.68,0.73-7.01,1.02-9.42c0.15-1.2,0.28-2.18,0.37-2.85c0.05-0.31,0.09-0.57,0.12-0.77
								C711.09,636.3,711.11,636.21,711.12,636.21z"/>
						</g>
					</g>
				</g>
				<g>
					<g>
						<g>
							<path class="st7" d="M705.8,666.35c0.01,0.01-0.16,0.22-0.49,0.6c-0.16,0.19-0.37,0.42-0.63,0.66
								c-0.26,0.24-0.54,0.54-0.89,0.81c-0.34,0.29-0.72,0.59-1.16,0.88c-0.42,0.31-0.91,0.59-1.42,0.89
								c-1.04,0.56-2.23,1.09-3.54,1.49c-1.31,0.38-2.6,0.59-3.78,0.69c-0.59,0.03-1.15,0.07-1.68,0.03c-0.53,0-1.01-0.05-1.46-0.1
								c-0.45-0.03-0.84-0.12-1.19-0.18c-0.35-0.06-0.65-0.13-0.89-0.2c-0.48-0.13-0.74-0.22-0.74-0.23
								c0.01-0.06,1.07,0.27,2.83,0.44c0.44,0.04,0.92,0.08,1.44,0.07c0.52,0.02,1.07-0.03,1.65-0.06c1.16-0.11,2.43-0.33,3.72-0.7
								c1.29-0.39,2.47-0.91,3.5-1.45c0.5-0.29,0.99-0.56,1.42-0.86c0.44-0.28,0.82-0.57,1.17-0.85
								C705.05,667.17,705.76,666.31,705.8,666.35z"/>
						</g>
					</g>
				</g>
				<g class="st17">
					<g>
						<g>
							<path d="M689.44,672.01c-1.5-0.43-1.59-1.85-1.01-2.46c0.58-0.61,1.53-0.69,2.37-0.57c0.83,0.12,1.66,0.4,2.5,0.34
								c1.38-0.09,2.53-1.05,3.49-2.05c0.96-1,1.86-2.11,3.12-2.68c1.26-0.57,3-0.37,3.66,0.84c0.42,0.77,0.29,1.75-0.15,2.51
								s-1.14,1.33-1.86,1.83C698.05,672.15,693.54,673.04,689.44,672.01"/>
						</g>
					</g>
				</g>
				<g>
					<g>
						<g>
							<path class="st7" d="M707.74,629.13c0.01-0.06,1.16,0.4,2.01,1.6c0.87,1.19,0.95,2.42,0.89,2.42
								c-0.08,0.02-0.27-1.13-1.1-2.26C708.73,629.75,707.7,629.2,707.74,629.13z"/>
						</g>
					</g>
				</g>
			</g>
			<g>
				<g>
					<path class="st6" d="M706.67,628.79c-0.01,0.01-0.08-0.07-0.26-0.15c-0.18-0.08-0.47-0.14-0.83-0.05
						c-0.36,0.08-0.78,0.3-1.14,0.68c-0.38,0.37-0.72,0.88-1.27,1.29c-0.54,0.41-1.29,0.6-2.08,0.64c-0.79,0.04-1.63-0.04-2.51-0.07
						c-1.76-0.06-3.7-0.04-5.73,0.12c-4.06,0.33-7.66,1.26-10.14,2.24c-1.24,0.48-2.22,0.95-2.89,1.28c-0.31,0.16-0.56,0.3-0.76,0.4
						c-0.17,0.09-0.27,0.13-0.27,0.13s0.09-0.06,0.26-0.15c0.2-0.11,0.45-0.25,0.75-0.42c0.66-0.35,1.63-0.83,2.88-1.31
						c2.48-1,6.09-1.94,10.16-2.27c2.03-0.17,3.98-0.18,5.74-0.12c0.88,0.03,1.72,0.11,2.5,0.08c0.78-0.03,1.51-0.21,2.04-0.61
						c0.53-0.4,0.88-0.9,1.27-1.27c0.37-0.38,0.8-0.6,1.17-0.68c0.37-0.08,0.67-0.02,0.85,0.07
						C706.6,628.71,706.67,628.79,706.67,628.79z"/>
				</g>
			</g>
			<g>
				<g>
					<path class="st6" d="M710.14,634.99c0,0.01-0.11-0.03-0.31-0.07c-0.2-0.04-0.51-0.07-0.91-0.03c-0.39,0.04-0.87,0.15-1.39,0.37
						c-0.52,0.21-1.08,0.53-1.7,0.87c-0.62,0.35-1.33,0.7-2.14,0.92c-0.81,0.23-1.7,0.36-2.64,0.43c-1.88,0.12-3.94,0.15-6.1,0.31
						c-4.32,0.3-8.22,0.82-11.02,1.28c-1.4,0.22-2.53,0.44-3.31,0.58c-0.37,0.07-0.67,0.13-0.9,0.17c-0.21,0.04-0.31,0.05-0.31,0.05
						s0.11-0.03,0.31-0.07c0.23-0.05,0.53-0.11,0.9-0.19c0.78-0.15,1.91-0.38,3.31-0.61c2.8-0.48,6.7-1.01,11.02-1.31
						c2.16-0.17,4.23-0.19,6.1-0.31c0.93-0.07,1.82-0.19,2.62-0.41c0.8-0.22,1.51-0.56,2.13-0.9c0.62-0.34,1.19-0.66,1.71-0.86
						c0.53-0.21,1.01-0.32,1.41-0.35c0.4-0.03,0.71,0,0.91,0.05C710.04,634.95,710.14,634.99,710.14,634.99z"/>
				</g>
			</g>
			<g>
				<g>
					<path class="st6" d="M710.22,643.53c0,0-0.39,0.18-1.11,0.47c-0.72,0.29-1.78,0.66-3.12,1.04c-2.67,0.77-6.48,1.43-10.72,1.6
						c-4.24,0.17-8.08-0.07-10.85-0.26c-1.36-0.11-2.47-0.19-3.28-0.25c-0.36-0.03-0.66-0.06-0.89-0.08
						c-0.2-0.02-0.31-0.03-0.31-0.03s0.11,0,0.31,0.01c0.23,0.02,0.53,0.03,0.89,0.06c0.81,0.05,1.92,0.13,3.28,0.22
						c2.77,0.17,6.6,0.4,10.84,0.23c4.23-0.17,8.03-0.82,10.7-1.57c1.34-0.37,2.4-0.73,3.13-1.01c0.37-0.13,0.64-0.25,0.83-0.32
						C710.12,643.56,710.22,643.53,710.22,643.53z"/>
				</g>
			</g>
			<g>
				<g>
					<path class="st6" d="M709.04,653.38c0,0-0.36,0.16-1.04,0.39c-0.68,0.24-1.68,0.52-2.94,0.75c-1.26,0.24-2.79,0.4-4.48,0.46
						c-1.7,0.06-3.56,0-5.52-0.11c-3.91-0.26-7.44-0.53-10-0.44c-1.28,0.03-2.31,0.12-3.03,0.2c-0.36,0.03-0.63,0.08-0.82,0.1
						c-0.19,0.02-0.29,0.03-0.29,0.03s1.56-0.33,4.13-0.41c2.57-0.11,6.11,0.16,10.01,0.41c1.95,0.12,3.81,0.17,5.51,0.12
						c1.69-0.05,3.21-0.21,4.47-0.43c1.26-0.23,2.26-0.5,2.94-0.72c0.34-0.1,0.6-0.21,0.78-0.26
						C708.95,653.41,709.04,653.38,709.04,653.38z"/>
				</g>
			</g>
			<g>
				<g>
					<path class="st6" d="M708.09,661.01c0,0-1.42,0.47-3.77,1.01c-1.17,0.27-2.58,0.54-4.16,0.79c-1.58,0.23-3.32,0.43-5.15,0.54
						c-1.84,0.11-3.59,0.12-5.18,0.08c-1.59-0.05-3.02-0.15-4.22-0.28c-2.4-0.25-3.86-0.54-3.86-0.54s0.09,0.01,0.27,0.03
						c0.2,0.03,0.46,0.06,0.77,0.11c0.67,0.1,1.63,0.22,2.83,0.33c1.2,0.12,2.63,0.21,4.22,0.26c1.59,0.03,3.34,0.02,5.17-0.09
						c1.83-0.12,3.57-0.31,5.14-0.54c1.57-0.24,2.98-0.5,4.16-0.76c1.17-0.26,2.12-0.49,2.77-0.67c0.3-0.08,0.55-0.15,0.75-0.2
						C708,661.03,708.09,661.01,708.09,661.01z"/>
				</g>
			</g>
			<g>
				<g>
					<path class="st6" d="M709.15,663.79c0,0-0.09,0.04-0.26,0.1c-0.2,0.07-0.45,0.16-0.76,0.27c-0.65,0.24-1.59,0.62-2.73,1.13
						c-1.14,0.5-2.49,1.13-4.01,1.76c-1.53,0.63-3.26,1.22-5.13,1.57c-3.76,0.72-7.24,0.62-9.73,0.54
						c-1.25-0.05-2.26-0.12-2.95-0.16c-0.32-0.02-0.59-0.04-0.8-0.06c-0.18-0.01-0.28-0.03-0.28-0.03s0.1,0,0.28,0.01
						c0.21,0.01,0.48,0.02,0.8,0.04c0.73,0.03,1.73,0.08,2.95,0.13c2.49,0.07,5.96,0.16,9.7-0.57c1.87-0.35,3.59-0.93,5.12-1.56
						c1.53-0.62,2.87-1.25,4.02-1.74c1.15-0.5,2.09-0.87,2.75-1.1C708.78,663.89,709.15,663.79,709.15,663.79z"/>
				</g>
			</g>
			<g>
				<g>
					<path class="st6" d="M710.72,672.11c0,0-0.34,0.24-1,0.61c-0.65,0.37-1.64,0.86-2.9,1.33c-2.52,0.96-6.22,1.67-10.34,1.75
						c-4.11,0.07-7.82-0.25-10.51-0.37c-1.34-0.07-2.43-0.1-3.18-0.12c-0.35-0.01-0.64-0.01-0.87-0.02c-0.2,0-0.3-0.01-0.3-0.01
						s0.1-0.01,0.3-0.01c0.23,0,0.51,0,0.87,0c0.75,0,1.84,0.03,3.19,0.09c2.69,0.09,6.4,0.41,10.51,0.33
						c4.1-0.07,7.79-0.77,10.31-1.71c1.26-0.46,2.25-0.93,2.9-1.29c0.34-0.17,0.58-0.33,0.75-0.43
						C710.63,672.15,710.72,672.11,710.72,672.11z"/>
				</g>
			</g>
			<g>
				<g>
					<path class="st6" d="M715.4,641.45c0,0,0.01-0.04,0.03-0.13c0.03-0.11,0.06-0.23,0.1-0.36c0.09-0.31,0.2-0.76,0.31-1.32
						c0.24-1.12,0.45-2.69,0.42-4.44c-0.03-1.75-0.29-3.31-0.56-4.42c-0.13-0.56-0.26-1-0.35-1.31c-0.04-0.13-0.07-0.24-0.11-0.35
						c-0.02-0.08-0.03-0.12-0.03-0.13c0,0,0.02,0.04,0.05,0.12c0.04,0.11,0.08,0.22,0.12,0.35c0.11,0.3,0.24,0.75,0.39,1.3
						c0.29,1.11,0.56,2.68,0.59,4.44c0.02,1.75-0.2,3.34-0.46,4.45c-0.13,0.56-0.25,1.01-0.35,1.31c-0.04,0.13-0.08,0.24-0.11,0.35
						C715.42,641.41,715.4,641.46,715.4,641.45z"/>
				</g>
			</g>
			<g>
				<g>
					<path class="st6" d="M722.83,639.64c0,0,0-0.04,0-0.12c0-0.1,0.01-0.21,0.01-0.33c0.02-0.28,0.03-0.7,0.02-1.2
						c-0.01-1.02-0.12-2.42-0.47-3.94c-0.35-1.51-0.86-2.83-1.29-3.75c-0.22-0.46-0.4-0.83-0.54-1.08c-0.05-0.1-0.11-0.2-0.15-0.29
						c-0.03-0.07-0.05-0.1-0.05-0.1c0,0,0.03,0.03,0.07,0.09c0.05,0.09,0.11,0.18,0.17,0.28c0.15,0.24,0.35,0.61,0.57,1.06
						c0.45,0.91,0.97,2.24,1.32,3.76c0.35,1.52,0.45,2.94,0.44,3.96c0,0.51-0.02,0.92-0.05,1.21c-0.01,0.12-0.02,0.22-0.03,0.33
						C722.84,639.6,722.84,639.64,722.83,639.64z"/>
				</g>
			</g>
			<g>
				<g>
					<path class="st6" d="M732.88,636.15c0,0-0.04-0.03-0.09-0.1c-0.08-0.09-0.16-0.19-0.25-0.3c-0.22-0.26-0.54-0.63-0.96-1.08
						c-0.83-0.89-2.07-2.05-3.58-3.14c-1.52-1.08-3.01-1.88-4.12-2.38c-0.56-0.25-1.01-0.44-1.33-0.56
						c-0.13-0.05-0.25-0.1-0.37-0.14c-0.08-0.03-0.13-0.05-0.13-0.06c0,0,0.05,0.01,0.13,0.04c0.11,0.04,0.24,0.08,0.37,0.13
						c0.32,0.11,0.79,0.29,1.35,0.53c1.12,0.48,2.63,1.27,4.15,2.36c1.52,1.09,2.75,2.26,3.57,3.17c0.41,0.45,0.73,0.83,0.94,1.1
						c0.09,0.11,0.17,0.22,0.24,0.31C732.85,636.11,732.88,636.15,732.88,636.15z"/>
				</g>
			</g>
			<g>
				<g>
					<path class="st6" d="M730.6,621.93c0,0.01-0.11,0.01-0.32,0.01c-0.27,0-0.56-0.01-0.87-0.02c-0.73-0.01-1.75-0.02-2.87,0
						c-1.12,0.02-2.13,0.06-2.87,0.1c-0.31,0.02-0.6,0.03-0.87,0.05c-0.21,0.01-0.32,0.01-0.32,0.01s0.11-0.02,0.32-0.05
						c0.2-0.02,0.5-0.05,0.87-0.08c0.73-0.06,1.75-0.11,2.87-0.13c1.12-0.02,2.14,0,2.87,0.03c0.37,0.02,0.66,0.03,0.87,0.05
						C730.49,621.91,730.6,621.92,730.6,621.93z"/>
				</g>
			</g>
			<g>
				<g>
					<path class="st6" d="M673.73,641.85c0.01,0,0.07,0.07,0.19,0.2c0.11,0.13,0.29,0.32,0.51,0.54c0.44,0.45,1.09,1.02,1.88,1.57
						c0.79,0.54,1.55,0.97,2.1,1.27c0.23,0.13,0.45,0.24,0.65,0.36c0.15,0.08,0.24,0.13,0.23,0.14c0,0.01-0.09-0.03-0.25-0.1
						c-0.16-0.07-0.39-0.18-0.67-0.33c-0.56-0.29-1.33-0.71-2.12-1.25c-0.79-0.55-1.45-1.14-1.87-1.6
						c-0.21-0.23-0.38-0.43-0.48-0.57C673.78,641.93,673.72,641.85,673.73,641.85z"/>
				</g>
			</g>
			<g>
				<g>
					<path class="st6" d="M675.85,637.83c0.02-0.01,0.12,0.17,0.35,0.4c0.23,0.23,0.6,0.52,1.01,0.8c0.42,0.28,0.82,0.52,1.11,0.67
						c0.29,0.16,0.48,0.24,0.48,0.25c-0.01,0.04-0.8-0.26-1.64-0.84c-0.42-0.29-0.78-0.59-1.01-0.84
						C675.92,638.04,675.84,637.84,675.85,637.83z"/>
				</g>
			</g>
			<g>
				<g>
					<path class="st6" d="M679.42,654.96c0,0-0.04-0.01-0.11-0.05c-0.1-0.05-0.2-0.1-0.31-0.16c-0.26-0.14-0.64-0.36-1.09-0.65
						c-0.9-0.58-2.09-1.47-3.27-2.59c-1.18-1.13-2.12-2.28-2.73-3.16c-0.31-0.44-0.53-0.81-0.68-1.07c-0.06-0.11-0.11-0.21-0.16-0.3
						c-0.04-0.07-0.05-0.11-0.05-0.11s0.03,0.03,0.07,0.1c0.06,0.09,0.12,0.19,0.18,0.29c0.15,0.25,0.39,0.62,0.7,1.05
						c0.62,0.87,1.56,2,2.74,3.13c1.18,1.12,2.35,2.02,3.24,2.61c0.44,0.3,0.81,0.52,1.07,0.67c0.11,0.06,0.2,0.12,0.3,0.18
						C679.38,654.93,679.42,654.96,679.42,654.96z"/>
				</g>
			</g>
		</g>
		<g>
			<g>
				<path class="st7" d="M665.47,660.15c-0.02,0-0.05-0.2-0.09-0.57c-0.04-0.37-0.07-0.92-0.03-1.59c0.07-1.33,0.52-3.22,1.67-4.93
					c1.08-1.73,2.07-3.28,2.8-4.4c0.34-0.52,0.64-0.96,0.87-1.32c0.21-0.31,0.33-0.47,0.35-0.46c0.02,0.01-0.08,0.19-0.26,0.52
					c-0.22,0.37-0.49,0.82-0.8,1.36c-0.69,1.14-1.65,2.71-2.73,4.44c-1.12,1.69-1.58,3.5-1.7,4.81
					C665.41,659.32,665.53,660.15,665.47,660.15z"/>
			</g>
		</g>
		<g>
			<g>
				<path class="st6" d="M674.26,662.18c0,0-0.68,0.02-1.73-0.26c-1.05-0.27-2.46-0.92-3.64-2.1c-1.18-1.18-1.83-2.6-2.1-3.64
					c-0.28-1.05-0.26-1.73-0.26-1.73c0,0,0.01,0.04,0.02,0.12c0.01,0.08,0.02,0.2,0.04,0.35c0.04,0.3,0.12,0.73,0.27,1.25
					c0.29,1.03,0.94,2.42,2.11,3.59c1.17,1.17,2.56,1.82,3.59,2.11c0.52,0.15,0.95,0.23,1.25,0.27c0.15,0.02,0.27,0.03,0.35,0.04
					C674.21,662.17,674.26,662.17,674.26,662.18z"/>
			</g>
		</g>
		<g>
			<g>
				<path class="st6" d="M669.21,645.04c0,0-0.03,0.02-0.09,0.06c-0.08,0.05-0.17,0.1-0.26,0.16c-0.23,0.13-0.55,0.34-0.94,0.62
					c-0.77,0.55-1.77,1.41-2.67,2.53c-0.9,1.13-1.52,2.3-1.88,3.17c-0.18,0.44-0.32,0.8-0.39,1.05c-0.03,0.1-0.07,0.2-0.1,0.29
					c-0.02,0.07-0.04,0.1-0.04,0.1c0,0,0-0.04,0.02-0.1c0.02-0.09,0.05-0.19,0.08-0.3c0.07-0.26,0.19-0.62,0.36-1.07
					c0.35-0.89,0.96-2.07,1.87-3.21c0.91-1.14,1.93-2,2.71-2.53c0.39-0.27,0.72-0.47,0.96-0.59c0.1-0.05,0.19-0.1,0.27-0.14
					C669.18,645.05,669.21,645.04,669.21,645.04z"/>
			</g>
		</g>
		<g>
			<g>
				<path class="st6" d="M666.4,641.32c0,0.01-0.1,0.04-0.29,0.1c-0.19,0.06-0.45,0.15-0.77,0.28c-0.64,0.26-1.49,0.72-2.31,1.4
					c-0.81,0.68-1.44,1.41-1.87,1.96c-0.21,0.27-0.38,0.5-0.5,0.65c-0.12,0.16-0.18,0.24-0.19,0.24c-0.01,0,0.05-0.1,0.16-0.26
					c0.1-0.16,0.27-0.4,0.47-0.68c0.42-0.56,1.04-1.31,1.86-1.99c0.82-0.68,1.69-1.14,2.34-1.38c0.33-0.12,0.6-0.21,0.79-0.25
					C666.29,641.34,666.4,641.32,666.4,641.32z"/>
			</g>
		</g>
	</g>
</g>
</svg>
