<svg id="Layer_1" data-name="Layer 1" xmlns="http://www.w3.org/2000/svg" xmlns:xlink="http://www.w3.org/1999/xlink" viewBox="0 0 2138.25 970.78"><defs><style>.cls-1{fill:url(#linear-gradient);}.cls-2{fill:url(#linear-gradient-2);}.cls-3{fill:url(#linear-gradient-3);}.cls-4,.cls-6{fill:#f9f9f9;}.cls-4,.cls-5{opacity:0.08;}.cls-7{fill:#fafafa;}.cls-8{fill:#263238;}.cls-13,.cls-9{fill:#ffb347;}.cls-9{stroke:#ffb347;stroke-miterlimit:10;}.cls-10{fill:#f5f5f5;}.cls-11{fill:#e0e0e0;}.cls-12{fill:#e8505b;}.cls-14{opacity:0.2;}.cls-15{fill:#ffbe9d;}.cls-16{fill:#eb996e;}.cls-17{fill:#455a64;}.cls-18{opacity:0.3;}.cls-19{fill:#b89778;}.cls-20{fill:#606060;}</style><linearGradient id="linear-gradient" x1="5.34" y1="584.84" x2="1972.25" y2="584.84" gradientUnits="userSpaceOnUse"><stop offset="0" stop-color="#734ae8"/><stop offset="0.24" stop-color="#6041f7"/><stop offset="1" stop-color="#89d4cf"/></linearGradient><linearGradient id="linear-gradient-2" x1="172.73" y1="319.22" x2="2138.25" y2="319.22" xlink:href="#linear-gradient"/><linearGradient id="linear-gradient-3" x1="166.72" y1="323.88" x2="2114.64" y2="323.88" xlink:href="#linear-gradient"/></defs><g id="Gradient_shape" data-name="Gradient shape"><path class="cls-1" d="M5.34,373.59C57.16,418.75,89,466.69,125.89,501.12c36,33.53,65.78,56.94,74.55,63.77,79.8,62.1,161.8,108.4,161.8,108.4h0a725.21,725.21,0,0,0,111,65.36c53.77,25.5,95.6,37.2,145.94,51,0,0,114.39,31.38,257,35.07a169.51,169.51,0,0,0,71.38-14.35C964.14,803,988.86,792,992,772.12c3.58-22.93-23.61-44.11-28.55-47.82-38.88-29.12-83-11.53-95.18-36.67-3.09-6.38-4.3-15.9,0-22.31,16.44-24.5,104,9.91,111,12.75,48.16,19.29,87.58,48.27,106.27,62.17,23.51,17.49,32.69,27.12,55.52,38.26,18.63,9.09,40.43,16.28,73,20.72,114.38,15.61,211-14.34,211-14.34,55.22-17.13,91.8-40.65,165-87.68,15.73-10.11,68-44.18,131.66-97.24C1778,553,1816,514,1856.46,472.43c31.17-32,71.16-74.82,115.79-127.53Z" transform="translate(166 146)"/><rect class="cls-2" x="172.73" y="147.54" width="1965.52" height="343.36"/><rect class="cls-3" x="166.72" y="128.64" width="1947.92" height="390.49"/></g><g id="opacity_8_shapes" data-name="opacity 8% shapes"><path class="cls-4" d="M-4.66,6.47C-12.72,20.31,44.39,56.8,99,126.26c29.73,37.83,30.57,42.16,60.64,96.19,5.7,10.24,55.93,99,128.42,154.21,88.29,67.28,191.3,70.92,225.82,72.14,113.12,4,128.82-39.91,239.6-25.62,28.77,3.71,90,12.23,154,50.71,65.86,39.57,61.79,67,122,97.75,52.5,26.81,100,28.63,171.47,31.37a679.16,679.16,0,0,0,177.73-16.73c63.41-14.56,107.13-34.19,165.19-60.64a1413.24,1413.24,0,0,0,186.09-102.46c188.91-116.93,239.78-170.87,239.94-196.55V184.81c0-36.24,2.52-84.38,0-85.73-8.39-4.52-36.77,34.94-99.49,116.05-36.16,46.75-54.51,70.32-65.87,81.55-38.25,37.78-73.42,57.71-119.19,83.64-26,14.72-54.61,27.94-111.86,54.36-57.78,26.67-87.17,40.16-111.87,48.09-37.36,12-76.84,24.67-129.64,24.05-31.26-.37-55.67-5.26-102.46-14.64a651.42,651.42,0,0,1-72.14-18.82c-53.12-16.8-128.22-40.57-190.25-96.1-58.6-52.46-36.38-72.35-84.69-103.51-54-34.81-79.14-6.27-166.23-31.36C640.92,220.7,586.58,178.31,528,132.61c-43.19-33.69-64.77-50.53-75.27-65.86-13-19-34.12-57.45-56.83-60.28C386,5.23,372.9,5,372.9,5c-29.52.37-39.33,1.31-54.92,1.49-17.42.19-17.15-.86-51.72-1.49-34.78-.63-36.22.41-36.6,1.49-2.79,8.09,51.46,30.12,132.78,80.06,35.92,22.06,52.65,34.2,69,52.28A221.22,221.22,0,0,1,475.36,212c10.75,30.12,7.67,43.29,6.27,48.09-6,20.68-23.18,31.84-30.5,36.6-27.54,17.9-57.5,15.91-70.57,14.11-12.21-1.68-53.17-8.82-103.5-53.32-23.63-20.89-37-39.3-62.73-75.27-29-40.57-56.07-83.57-92.53-117.62C100.79,45,103.16,35.3,103.16,35.3,91,14.3,91.58,11,85.39,6.47,77.82,1,70.84,4.36,36.25,3,10.9,2-1.78,1.52-4.66,6.47Z" transform="translate(166 146)"/><path class="cls-4" d="M.91,364.58c-1.1,3.33,1.79,5.81,36.07,42.35,17.86,19,27.29,29.25,32.74,35.2,3.21,3.51,6.53,7.07,8.42,9.13,21.21,23.14,38.46,45.66,41.74,49.86,14.86,19,33.83,33.89,74.56,63.77,89.6,65.73,134,99.12,152.54,103,47.77,10.1,65-7.65,120,8.39,36.37,10.61,71.65,28.5,71.65,28.5,17.8,9,15.11,9.91,28.38,15.75,46.26,20.36,94,24.88,112.91,26.66,34.55,3.27,38.88-.78,70.58,4.71,22.41,3.88,33.18,8.14,48.7,3.34,17.2-5.32,38.69-21.29,36-37.84-2.21-13.5-19.86-23.45-34.5-23.53-11.69,0-14,6.22-31.37,12.55-13.93,5.07-26.53,5.47-51.75,6.27-13.55.43-27.58.88-45.48-1.57-18.06-2.47-29.05-6.38-48.61-12.54-45.27-14.27-45.51-11.94-70.57-20.39-25.6-8.63-26.29-11.39-89.39-40.77-45.92-21.39-43.38-18.91-94.58-45.81-29.5-15.5-44.25-23.24-52.5-30.33-7.82-6.73-26.58-24.26-56.45-85.73-23.37-48.09-16.94-47.75-27-62.39C179.34,335.13,8.48,341.7.91,364.58Z" transform="translate(166 146)"/><g class="cls-5"><path class="cls-6" d="M1890.5,5.18C1877.67,14.48,1858,6.34,1846,3c-14.64-4.06-18.06-1-58.13.92-43.21,2.09-63.28-.92-174-1H1063.47c27.36,3,66.7,11.13,105.07,36.18,35.35,23.08,43.06,43,80,78.41,19.2,18.43,64.75,62.15,125.46,84.69,66.29,24.61,125.25,13.75,183.48,4.7,36.81-5.71,102.76-17.38,172.51-59.59C1825.71,89.36,1893.44,3.41,1893.06,3A30.56,30.56,0,0,1,1890.5,5.18Zm-377,120.13c-54.83,16.15-104.22,12.48-110.31-8.2s33.43-50.53,88.26-66.68S1595.71,38,1601.8,58.63,1568.37,109.16,1513.53,125.31Z" transform="translate(166 146)"/></g></g><g id="Man"><path class="cls-7" d="M717,569.36h-5.37a4.21,4.21,0,0,0-1.61.18,2.6,2.6,0,0,0-1.28,1.13,2.64,2.64,0,0,0-.3.87,4.93,4.93,0,0,0,0,1v1a5.13,5.13,0,0,1-.06,1,2.77,2.77,0,0,1-1.2,1.73,2.81,2.81,0,0,1-1,.37c-.39,0-.76,0-1.14,0H685.48a2.62,2.62,0,0,1-.78-.08,2.48,2.48,0,0,1-1.33-.82,2.72,2.72,0,0,1-.66-1.46,7.3,7.3,0,0,1,0-.81v-.8a4.18,4.18,0,0,0-.17-1.58,2.53,2.53,0,0,0-.95-1.26,2.48,2.48,0,0,0-1.55-.42H667.64a8.19,8.19,0,0,0-8.31,6.36c-.08.31-.11.64-.17,1l0,.83V709.86a8.47,8.47,0,0,0,.33,2.61,8.21,8.21,0,0,0,3.19,4.4,8.42,8.42,0,0,0,5.25,1.44h16.64l21.63,0H716.7c1.74,0,3.48,0,5.19,0a8.12,8.12,0,0,0,4.65-1.8,8.46,8.46,0,0,0,1.67-1.86,8,8,0,0,0,1-2.26,8.59,8.59,0,0,0,.31-2.47v-2.5c0-3.34,0-6.63,0-9.89,0-26,0-49.48,0-69.17s0-35.63,0-46.64c0-1.38,0-2.68,0-3.9a8.45,8.45,0,0,0-.61-3.33,8,8,0,0,0-1.55-2.45,7.77,7.77,0,0,0-1.87-1.53,7.92,7.92,0,0,0-3.08-1.09c-.37-.07-.65,0-.84-.08l-.28,0-1.12,0Z" transform="translate(166 146)"/><path class="cls-8" d="M721.5,569.38h.29a6.49,6.49,0,0,1,.83.07,7.62,7.62,0,0,1,3.1,1.07,8,8,0,0,1,1.88,1.52,8.11,8.11,0,0,1,1.57,2.47,8.51,8.51,0,0,1,.62,3.35v3.89c0,11,0,26.9,0,46.55s0,43.06,0,69.05v12.36a9,9,0,0,1-.31,2.52,8.45,8.45,0,0,1-1.06,2.33,8.61,8.61,0,0,1-1.72,1.9,8.27,8.27,0,0,1-4.76,1.85c-1.73,0-3.45,0-5.19,0H668.12a8.75,8.75,0,0,1-5.38-1.48,8.45,8.45,0,0,1-3.27-4.52,9.09,9.09,0,0,1-.34-2.79V695.71q0-11,0-21.57c0-14.14,0-27.78,0-40.78s0-25.34,0-36.9q0-8.67,0-16.73v-2c0-.33,0-.67.05-1s.08-.66.17-1a8.53,8.53,0,0,1,1.73-3.5,8.68,8.68,0,0,1,3.06-2.29,8.81,8.81,0,0,1,3.67-.69h12.35a2.57,2.57,0,0,1,1.62.45,2.73,2.73,0,0,1,1,1.32,4.56,4.56,0,0,1,.17,1.63v.81a6.66,6.66,0,0,0,0,.78,2.71,2.71,0,0,0,.62,1.39,2.5,2.5,0,0,0,1.26.78,2.69,2.69,0,0,0,.75.07h19.41c.38,0,.76,0,1.12,0a2.36,2.36,0,0,0,1-.36,2.61,2.61,0,0,0,1.16-1.66,4.81,4.81,0,0,0,.07-1v-1a5.11,5.11,0,0,1,0-1,2.94,2.94,0,0,1,.31-.89,2.61,2.61,0,0,1,1.32-1.16,4.23,4.23,0,0,1,1.64-.18l5.35,0h4.41l-1.12,0h-8.64a4.21,4.21,0,0,0-1.61.18,2.55,2.55,0,0,0-1.28,1.13,2.93,2.93,0,0,0-.3.86,7.47,7.47,0,0,0,0,.95v1a4.4,4.4,0,0,1-.06,1,2.71,2.71,0,0,1-1.19,1.72,2.5,2.5,0,0,1-1,.37c-.39,0-.76,0-1.14,0H685.65a2.88,2.88,0,0,1-.77-.08,2.55,2.55,0,0,1-1.33-.82,2.72,2.72,0,0,1-.66-1.46,7.18,7.18,0,0,1,0-.8v-.81a4.2,4.2,0,0,0-.17-1.58,2.55,2.55,0,0,0-1-1.25,2.46,2.46,0,0,0-1.54-.42H667.86a8.3,8.3,0,0,0-3.6.68,8.42,8.42,0,0,0-3,2.24,8.31,8.31,0,0,0-1.69,3.43c-.09.31-.11.64-.17,1s0,.65,0,1v18.73c0,11.56,0,23.9,0,36.9v40.78q0,10.61,0,21.57v13.82a8.61,8.61,0,0,0,.34,2.72,8.19,8.19,0,0,0,3.18,4.4,8.5,8.5,0,0,0,5.24,1.44h48.67c1.74,0,3.47,0,5.18,0a8.06,8.06,0,0,0,4.63-1.8,8.51,8.51,0,0,0,1.68-1.86,8.09,8.09,0,0,0,1-2.26,8.52,8.52,0,0,0,.31-2.46v-2.5c0-3.33,0-6.61,0-9.86,0-26,0-49.39,0-69.05s0-35.56,0-46.55c0-1.38,0-2.68,0-3.89a8.63,8.63,0,0,0-.6-3.33,8.29,8.29,0,0,0-1.55-2.45,7.72,7.72,0,0,0-1.87-1.52,7.89,7.89,0,0,0-3.07-1.09,6.63,6.63,0,0,0-.83-.07Z" transform="translate(166 146)"/><path class="cls-8" d="M723.1,582.75s-1.36.07-3.05.09-3,0-3,0,1.36-.08,3-.09S723.1,582.71,723.1,582.75Z" transform="translate(166 146)"/><path class="cls-8" d="M723.11,584.31s-1.36.07-3,.09-3.05,0-3.05,0,1.36-.08,3.05-.09S723.11,584.27,723.11,584.31Z" transform="translate(166 146)"/><path class="cls-8" d="M723.12,585.87s-1.36.07-3,.09-3.05,0-3.05,0,1.37-.08,3.05-.09S723.12,585.83,723.12,585.87Z" transform="translate(166 146)"/><path class="cls-9" d="M667.69,587.65h.48l1.3,0,0,0c0-.29,0-.6,0-.94a5,5,0,0,1,0-.55.5.5,0,0,1,.44-.4h.62a.5.5,0,0,1,.42.5c0,.44,0,.9,0,1.38l-.06-.06,1.64,0-.06.07c0-.66,0-1.35,0-2.05V585a.55.55,0,0,0-.24-.39l-.71-.7-.69-.69-.34-.33a.85.85,0,0,0-.34-.25.43.43,0,0,0-.38.07c-.1.08-.2.2-.3.3l-.59.59c-.37.39-.76.74-1,1.07a1.3,1.3,0,0,0-.08.62v.57c0,.36,0,.67,0,.94v.59c0,.14,0,.21,0,.22a1.57,1.57,0,0,1,0-.2c0-.16,0-.35,0-.59s0-.58,0-.94c0-.18,0-.38,0-.59s0-.21,0-.32a.59.59,0,0,1,.1-.34c.3-.37.66-.7,1-1.1l.59-.6.31-.31a.59.59,0,0,1,.48-.1.84.84,0,0,1,.39.29l.34.33.7.68.71.7a1.23,1.23,0,0,1,.19.2.54.54,0,0,1,.08.28c0,.17,0,.34,0,.52,0,.7,0,1.38,0,2.05v.06H670.8v-.06c0-.48,0-.94,0-1.38a.38.38,0,0,0-.33-.39h-.59a.42.42,0,0,0-.36.32c0,.17,0,.36,0,.53v1h-1.82Z" transform="translate(166 146)"/><rect class="cls-10" x="831.24" y="741.88" width="57.54" height="10.47" rx="4.41"/><path class="cls-8" d="M718.37,606.35l.33,0a4.29,4.29,0,0,0,.95-.18,4.53,4.53,0,0,0,1.38-.73,4.4,4.4,0,0,0,1.31-1.66,4.32,4.32,0,0,0,.35-1.22,10.81,10.81,0,0,0,0-1.41,10,10,0,0,0-.07-1.54,4.45,4.45,0,0,0-.57-1.53,4.4,4.4,0,0,0-2.9-2,12.05,12.05,0,0,0-2-.07h-2.12l-45.4,0a4.3,4.3,0,0,0-4.29,4c0,.52,0,1.07,0,1.6a4.76,4.76,0,0,0,.16,1.56,4.36,4.36,0,0,0,1.78,2.44,4.22,4.22,0,0,0,1.4.59,6.29,6.29,0,0,0,1.51.12h8.95l20.41,0,13.76,0,3.74,0h0l-3.74,0-13.76,0-20.41,0H670.2a6.34,6.34,0,0,1-1.56-.11,4.32,4.32,0,0,1-1.46-.63,4.47,4.47,0,0,1-1.87-2.55,5.24,5.24,0,0,1-.18-1.62c0-.54,0-1.06,0-1.62a4.53,4.53,0,0,1,4.51-4.14l45.4,0h2.12a12.39,12.39,0,0,1,2,.09,4.43,4.43,0,0,1,3,2.09,4.54,4.54,0,0,1,.58,1.57,9.2,9.2,0,0,1,.06,1.56,11,11,0,0,1-.05,1.42,4.36,4.36,0,0,1-.36,1.24,4.49,4.49,0,0,1-1.35,1.68,4.59,4.59,0,0,1-1.41.72,4.68,4.68,0,0,1-1,.16Z" transform="translate(166 146)"/><path class="cls-8" d="M719.25,600.87s0-.17-.1-.46a1.91,1.91,0,0,0-.69-1,1.81,1.81,0,0,0-2.89,1.45,1.81,1.81,0,0,0,2.89,1.44,1.87,1.87,0,0,0,.69-1c.09-.28.08-.45.1-.45s0,0,0,.12a1.68,1.68,0,0,1,0,.35,1.9,1.9,0,0,1-.69,1.09,1.93,1.93,0,0,1-1.87.31,2,2,0,1,1,1.87-3.44,1.86,1.86,0,0,1,.68,1.09,1.28,1.28,0,0,1,0,.35C719.27,600.83,719.26,600.87,719.25,600.87Z" transform="translate(166 146)"/><path class="cls-8" d="M720.3,604.14a3.64,3.64,0,0,1-.93-.85,3.86,3.86,0,0,1-.77-1,3.91,3.91,0,0,1,.93.84A3.81,3.81,0,0,1,720.3,604.14Z" transform="translate(166 146)"/><path class="cls-11" d="M673,600.07h-1v-.27h2.36v.27h-1v2.65H673Z" transform="translate(166 146)"/><path class="cls-11" d="M676.46,601.72h-1.84a.8.8,0,0,0,.86.76.82.82,0,0,0,.67-.29l.17.2a1.17,1.17,0,0,1-2-.76,1.07,1.07,0,0,1,1.08-1.12,1.05,1.05,0,0,1,1.06,1.12Zm-1.84-.22h1.56a.78.78,0,0,0-1.56,0Z" transform="translate(166 146)"/><path class="cls-11" d="M678.4,602.72l-.7-.91-.7.91h-.33l.87-1.12-.83-1.07H677l.66.86.66-.86h.33l-.83,1.07.88,1.12Z" transform="translate(166 146)"/><path class="cls-11" d="M680.39,602.59a.75.75,0,0,1-.47.15.58.58,0,0,1-.64-.63v-1.33h-.39v-.25h.39v-.48h.3v.48h.66v.25h-.66v1.31a.35.35,0,0,0,.38.4.5.5,0,0,0,.32-.11Z" transform="translate(166 146)"/><path class="cls-12" d="M704.49,616.32c0,.06-4.21.1-9.41.1s-9.4,0-9.4-.1,4.21-.11,9.4-.11S704.49,616.26,704.49,616.32Z" transform="translate(166 146)"/><path class="cls-8" d="M719.49,620.18c0,.06-7.57.1-16.91.1s-16.9,0-16.9-.1,7.57-.11,16.9-.11S719.49,620.12,719.49,620.18Z" transform="translate(166 146)"/><path class="cls-8" d="M719.09,622.93c0,.06-7.48.11-16.7.11s-16.71,0-16.71-.11,7.48-.1,16.71-.1S719.09,622.88,719.09,622.93Z" transform="translate(166 146)"/><path class="cls-8" d="M705.41,625.56c0,.06-4.42.11-9.87.11s-9.86,0-9.86-.11,4.41-.1,9.86-.1S705.41,625.51,705.41,625.56Z" transform="translate(166 146)"/><path class="cls-12" d="M704.49,637.3c0,.06-4.21.11-9.41.11s-9.4,0-9.4-.11,4.21-.11,9.4-.11S704.49,637.24,704.49,637.3Z" transform="translate(166 146)"/><path class="cls-8" d="M719.49,641.16c0,.06-7.57.11-16.91.11s-16.9,0-16.9-.11,7.57-.11,16.9-.11S719.49,641.1,719.49,641.16Z" transform="translate(166 146)"/><path class="cls-8" d="M719.09,643.92c0,.06-7.48.1-16.7.1s-16.71,0-16.71-.1,7.48-.11,16.71-.11S719.09,643.86,719.09,643.92Z" transform="translate(166 146)"/><path class="cls-8" d="M705.41,646.55c0,.06-4.42.1-9.87.1s-9.86,0-9.86-.1,4.41-.11,9.86-.11S705.41,646.49,705.41,646.55Z" transform="translate(166 146)"/><path class="cls-12" d="M704.49,658.28c0,.06-4.21.11-9.41.11s-9.4,0-9.4-.11,4.21-.11,9.4-.11S704.49,658.22,704.49,658.28Z" transform="translate(166 146)"/><path class="cls-8" d="M719.49,662.14c0,.06-7.57.11-16.91.11s-16.9,0-16.9-.11,7.57-.1,16.9-.1S719.49,662.08,719.49,662.14Z" transform="translate(166 146)"/><path class="cls-8" d="M719.09,664.9c0,.06-7.48.11-16.7.11s-16.71,0-16.71-.11,7.48-.11,16.71-.11S719.09,664.84,719.09,664.9Z" transform="translate(166 146)"/><path class="cls-8" d="M705.41,667.53c0,.06-4.42.11-9.87.11s-9.86,0-9.86-.11,4.41-.11,9.86-.11S705.41,667.47,705.41,667.53Z" transform="translate(166 146)"/><path class="cls-12" d="M704.49,679.26c0,.06-4.21.11-9.41.11s-9.4,0-9.4-.11,4.21-.1,9.4-.1S704.49,679.21,704.49,679.26Z" transform="translate(166 146)"/><path class="cls-8" d="M719.49,683.12c0,.06-7.57.11-16.91.11s-16.9-.05-16.9-.11,7.57-.1,16.9-.1S719.49,683.07,719.49,683.12Z" transform="translate(166 146)"/><path class="cls-8" d="M719.09,685.88c0,.06-7.48.11-16.7.11s-16.71,0-16.71-.11,7.48-.1,16.71-.1S719.09,685.82,719.09,685.88Z" transform="translate(166 146)"/><path class="cls-8" d="M705.41,688.51c0,.06-4.42.11-9.87.11s-9.86,0-9.86-.11,4.41-.1,9.86-.1S705.41,688.45,705.41,688.51Z" transform="translate(166 146)"/><path class="cls-12" d="M704.49,700.1c0,.06-4.21.11-9.41.11s-9.4-.05-9.4-.11,4.21-.11,9.4-.11S704.49,700,704.49,700.1Z" transform="translate(166 146)"/><path class="cls-8" d="M719.49,704c0,.06-7.57.11-16.91.11s-16.9-.05-16.9-.11,7.57-.11,16.9-.11S719.49,703.9,719.49,704Z" transform="translate(166 146)"/><path class="cls-8" d="M719.09,706.72c0,.06-7.48.1-16.7.1s-16.71,0-16.71-.1,7.48-.11,16.71-.11S719.09,706.66,719.09,706.72Z" transform="translate(166 146)"/><path class="cls-8" d="M705.41,709.35c0,.06-4.42.1-9.87.1s-9.86,0-9.86-.1,4.41-.11,9.86-.11S705.41,709.29,705.41,709.35Z" transform="translate(166 146)"/><rect class="cls-13" x="667.4" y="614.3" width="11.52" height="15.32" transform="translate(213.46 1437.65) rotate(-89.68)"/><polygon class="cls-12" points="831.47 773.68 836.86 766.55 840.15 771.05 842.41 768.66 846.79 773.76 831.47 773.68"/><path class="cls-12" d="M675.59,619.7a1.21,1.21,0,1,1-2.41,0,1.21,1.21,0,0,1,2.41,0Z" transform="translate(166 146)"/><g class="cls-14"><polygon points="831.47 773.68 836.86 766.55 840.15 771.05 842.41 768.66 846.79 773.76 831.47 773.68"/></g><g class="cls-14"><path d="M675.59,619.7a1.21,1.21,0,1,1-2.41,0,1.21,1.21,0,0,1,2.41,0Z" transform="translate(166 146)"/></g><rect class="cls-13" x="667.4" y="635.02" width="11.52" height="15.32" transform="translate(192.75 1458.25) rotate(-89.68)"/><polygon class="cls-12" points="831.47 794.39 836.86 787.26 840.15 791.76 842.41 789.38 846.79 794.48 831.47 794.39"/><path class="cls-12" d="M675.59,640.41a1.21,1.21,0,0,1-1.21,1.2,1.21,1.21,0,1,1,0-2.41A1.21,1.21,0,0,1,675.59,640.41Z" transform="translate(166 146)"/><g class="cls-14"><polygon points="831.47 794.39 836.86 787.26 840.15 791.76 842.41 789.38 846.79 794.48 831.47 794.39"/></g><g class="cls-14"><path d="M675.59,640.41a1.21,1.21,0,0,1-1.21,1.2,1.21,1.21,0,1,1,0-2.41A1.21,1.21,0,0,1,675.59,640.41Z" transform="translate(166 146)"/></g><rect class="cls-13" x="667.4" y="655.73" width="11.52" height="15.32" transform="translate(172.03 1478.85) rotate(-89.68)"/><polygon class="cls-12" points="831.47 815.11 836.86 807.98 840.15 812.48 842.41 810.1 846.79 815.19 831.47 815.11"/><path class="cls-12" d="M675.59,661.13a1.21,1.21,0,0,1-1.21,1.2,1.21,1.21,0,1,1,1.21-1.2Z" transform="translate(166 146)"/><g class="cls-14"><polygon points="831.47 815.11 836.86 807.98 840.15 812.48 842.41 810.1 846.79 815.19 831.47 815.11"/></g><g class="cls-14"><path d="M675.59,661.13a1.21,1.21,0,0,1-1.21,1.2,1.21,1.21,0,1,1,1.21-1.2Z" transform="translate(166 146)"/></g><rect class="cls-13" x="667.4" y="676.45" width="11.52" height="15.32" transform="translate(151.31 1499.45) rotate(-89.68)"/><polygon class="cls-12" points="831.47 835.82 836.86 828.7 840.15 833.19 842.41 830.81 846.79 835.91 831.47 835.82"/><path class="cls-12" d="M675.59,681.84a1.21,1.21,0,0,1-1.21,1.2,1.19,1.19,0,0,1-1.2-1.21,1.21,1.21,0,1,1,2.41,0Z" transform="translate(166 146)"/><g class="cls-14"><polygon points="831.47 835.82 836.86 828.7 840.15 833.19 842.41 830.81 846.79 835.91 831.47 835.82"/></g><g class="cls-14"><path d="M675.59,681.84a1.21,1.21,0,0,1-1.21,1.2,1.19,1.19,0,0,1-1.2-1.21,1.21,1.21,0,1,1,2.41,0Z" transform="translate(166 146)"/></g><rect class="cls-13" x="667.4" y="697.06" width="11.52" height="15.32" transform="translate(130.7 1519.95) rotate(-89.68)"/><polygon class="cls-12" points="831.47 856.44 836.86 849.31 840.15 853.81 842.41 851.43 846.79 856.52 831.47 856.44"/><path class="cls-12" d="M675.59,702.46a1.21,1.21,0,0,1-1.21,1.2,1.21,1.21,0,1,1,1.21-1.2Z" transform="translate(166 146)"/><g class="cls-14"><polygon points="831.47 856.44 836.86 849.31 840.15 853.81 842.41 851.43 846.79 856.52 831.47 856.44"/></g><g class="cls-14"><path d="M675.59,702.46a1.21,1.21,0,0,1-1.21,1.2,1.21,1.21,0,1,1,1.21-1.2Z" transform="translate(166 146)"/></g><path class="cls-15" d="M664.08,639.11l.3-1.19a4.5,4.5,0,0,0-.06-2.36l-1.24-4.13a1.46,1.46,0,0,0-.71-.9,13.06,13.06,0,0,0-3-1.46c-1.14.95,1.41,2.62,1.41,2.62s1,1.1.2,1.91-2.55-1.1-2.55-1.1.09-.21.17-.17a3.33,3.33,0,0,0,1.6.69v-1.35l-1.5-.94a1.53,1.53,0,0,0-1.12-.2l-.53.11a1.31,1.31,0,0,0-.82.56l-.5.74-.21.29a1,1,0,0,0-.1.95l.24.53-.33.46a1.45,1.45,0,0,0-.17,1.32l2.55,3.5,3.77,6.15,4.07-4.38Z" transform="translate(166 146)"/><path class="cls-16" d="M656.18,635.47a.82.82,0,0,1-.13-.25.71.71,0,0,1,.12-.65l0,0v0l0-.09a7.06,7.06,0,0,0-.54-1,6.25,6.25,0,0,0,.45,1l.05.09v0a.75.75,0,0,0-.11.73C656.06,635.43,656.18,635.49,656.18,635.47Z" transform="translate(166 146)"/><path class="cls-16" d="M656.49,630.91a1.34,1.34,0,0,0-.07.71,5.47,5.47,0,0,0,.68,1.62,2.08,2.08,0,0,1,.24.47,1.45,1.45,0,0,1,0,.5,1.2,1.2,0,0,0,.09.75,1.6,1.6,0,0,0,.49.52.88.88,0,0,1-.59-.46,1.29,1.29,0,0,1-.13-.82,1.08,1.08,0,0,0,0-.44,1.81,1.81,0,0,0-.22-.44,4.61,4.61,0,0,1-.66-1.69A.79.79,0,0,1,656.49,630.91Z" transform="translate(166 146)"/><path class="cls-16" d="M658.5,632.44a2.32,2.32,0,0,0-.19-.56c-.15-.29-.32-.51-.28-.54s.25.15.42.47S658.55,632.46,658.5,632.44Z" transform="translate(166 146)"/><polygon class="cls-17" points="831.47 806.15 833.02 808.09 841.08 798.41 830.53 784.52 825.31 788.62 831.47 806.15"/><polygon class="cls-12" points="867.34 899.84 868 915.58 876.5 915.39 875.86 899.62 867.34 899.84"/><path class="cls-8" d="M706.18,768.89c.07,0-.07-3.45-.3-7.7s-.48-7.68-.55-7.68.06,3.45.29,7.7S706.1,768.89,706.18,768.89Z" transform="translate(166 146)"/><polygon class="cls-8" points="867.96 914.49 876.46 914.27 876.5 915.39 868 915.58 867.96 914.49"/><path class="cls-8" d="M710.3,764.35a1.41,1.41,0,0,0-.24-.34,5.86,5.86,0,0,0-.79-.77,6.19,6.19,0,0,0-1.41-.86,4.61,4.61,0,0,0-2-.36,4.54,4.54,0,0,0-3.25,1.59,4,4,0,0,0-.58.95c-.09.25-.13.39-.11.39a8,8,0,0,1,.83-1.22,4.51,4.51,0,0,1,3.12-1.45,5.18,5.18,0,0,1,3.29,1.1C709.89,763.93,710.26,764.38,710.3,764.35Z" transform="translate(166 146)"/><g class="cls-18"><polygon points="876.04 904.11 876.11 905.84 867.6 905.99 867.54 904.69 876.04 904.11"/></g><path class="cls-12" d="M681.34,754.78l.41,9.58s-9.59,3.64-9.69,5.42l18.6-.14,0-14.95Z" transform="translate(166 146)"/><path class="cls-11" d="M687.37,763.55a.76.76,0,0,1,.54.87.74.74,0,0,1-.86.54.82.82,0,0,1-.56-.93.77.77,0,0,1,1-.46" transform="translate(166 146)"/><path class="cls-8" d="M690.66,769.64v-1.5l-18,.68s-.83.37-.73,1Z" transform="translate(166 146)"/><path class="cls-8" d="M681.58,764.42c0,.1.46.13.92.42s.69.68.77.64,0-.56-.61-.91S681.56,764.34,681.58,764.42Z" transform="translate(166 146)"/><path class="cls-8" d="M679.62,765.25c0,.09.38.24.69.63s.41.79.5.79.15-.53-.25-1S679.63,765.16,679.62,765.25Z" transform="translate(166 146)"/><path class="cls-8" d="M678.53,767.61c.08,0,.2-.44,0-.94s-.66-.69-.7-.62.23.35.42.76S678.43,767.6,678.53,767.61Z" transform="translate(166 146)"/><path class="cls-8" d="M681.73,762.22c0,.08.46-.05,1,0s.92.19,1,.11-.34-.4-.95-.43S681.69,762.14,681.73,762.22Z" transform="translate(166 146)"/><path class="cls-8" d="M681.38,760.15a1.65,1.65,0,0,0,.94,0,4.06,4.06,0,0,0,1-.31,3.56,3.56,0,0,0,.54-.29,1.21,1.21,0,0,0,.28-.22.42.42,0,0,0,0-.49.51.51,0,0,0-.41-.2,1,1,0,0,0-.35,0,3.17,3.17,0,0,0-1.44.78c-.43.4-.58.75-.55.76s.25-.25.69-.59a3.64,3.64,0,0,1,.84-.48,3.44,3.44,0,0,1,.54-.17c.19-.05.36-.05.41,0s0,0,0,.11a.87.87,0,0,1-.2.16,4.29,4.29,0,0,1-.5.29,4.72,4.72,0,0,1-.9.35A7.87,7.87,0,0,0,681.38,760.15Z" transform="translate(166 146)"/><path class="cls-8" d="M681.5,760.28a1.47,1.47,0,0,0,.24-.9,3,3,0,0,0-.13-1,2.83,2.83,0,0,0-.25-.57.77.77,0,0,0-.6-.47.45.45,0,0,0-.39.27,1.15,1.15,0,0,0-.09.34,2.21,2.21,0,0,0,0,.63,2.16,2.16,0,0,0,.41,1c.37.48.75.59.76.56s-.29-.22-.57-.69a2.18,2.18,0,0,1-.31-.88,2,2,0,0,1,0-.54c0-.2.1-.36.17-.34s.26.15.33.31a2.55,2.55,0,0,1,.24.5,3.56,3.56,0,0,1,.19.94C681.55,759.93,681.45,760.27,681.5,760.28Z" transform="translate(166 146)"/><g class="cls-18"><polygon points="856.66 906.43 856.64 908.56 847.67 908.56 847.67 906.63 856.66 906.43"/></g><path class="cls-15" d="M720.73,601.05l1.33,5.16s.5,2.85-.83,2.85-1.29-1.53-1.29-1.53.58-3.12-1-2.95c-.22,0-.78,2.18-1,3.27a1.64,1.64,0,0,0,.16,1.19l2.22,3.91a4.69,4.69,0,0,0,1.73,1.75l1.11.63.15,2.33,6.23.1-1.9-7.27-.79-4.44a1.49,1.49,0,0,0-1.12-.82l-.58-.09-.23-.56a1,1,0,0,0-.79-.61l-.36-.05-.51-1.26c-.17-.42-1.39-3.16-1.84-3.16A1.15,1.15,0,0,0,720.73,601.05Z" transform="translate(166 146)"/><path class="cls-16" d="M725.17,607.3a3.73,3.73,0,0,0-.11-.57,2.2,2.2,0,0,0-.85-1.08,6.26,6.26,0,0,1-.47-1.35,1.43,1.43,0,0,1-.06-.58s0,.22.13.56a8.34,8.34,0,0,0,.48,1.31l.3.25a1.75,1.75,0,0,1,.26.29,1.92,1.92,0,0,1,.28.58,1.6,1.6,0,0,1,.06.43C725.19,607.24,725.18,607.3,725.17,607.3Z" transform="translate(166 146)"/><path class="cls-16" d="M726.12,606.77a.85.85,0,0,0-.09-.28.75.75,0,0,0-.58-.38h0v0l0-.1a6.35,6.35,0,0,1-.35-1.13,6.24,6.24,0,0,1,.45,1.1l0,.09,0,0a.77.77,0,0,1,.63.45C726.18,606.65,726.14,606.78,726.12,606.77Z" transform="translate(166 146)"/><path class="cls-15" d="M689.45,631.74l11.3-.15L699.49,622s.77-.16.82-4.35.24-11.29.24-11.29h0a14.53,14.53,0,0,0-14.61,1.83l-.62.48Z" transform="translate(166 146)"/><path class="cls-15" d="M686.63,613.79c-.07,0-2.88-.85-2.79,2a2.16,2.16,0,0,0,2.95,2.1C686.79,617.81,686.63,613.79,686.63,613.79Z" transform="translate(166 146)"/><path class="cls-15" d="M700.07,613.19a1.89,1.89,0,0,1,2.53,2.14,2.15,2.15,0,0,1-3,2.1C699.65,617.35,700.07,613.19,700.07,613.19Z" transform="translate(166 146)"/><path class="cls-19" d="M685.7,613.47c.43,2.4.34,3.66.74,5.26a8.42,8.42,0,0,0,4.17,5.74,6.55,6.55,0,0,0,7.33-.48,6.69,6.69,0,0,0,2.53-4.35c.2-1.8.4-5,.41-6.8,0-3.26.25-6.39.25-6.39l-9.34-1.68-5.31,3.15Z" transform="translate(166 146)"/><path class="cls-8" d="M695.33,625.92a3.19,3.19,0,0,1-1.64.14,3,3,0,0,1-1.56-.5c0-.07.72.15,1.59.24S695.32,625.84,695.33,625.92Z" transform="translate(166 146)"/><path class="cls-19" d="M686.15,617.55c-.27-2.46-.45-5.27-.83-7.86a16.67,16.67,0,0,1-.41-3.35,8,8,0,0,1,.62-2.88,4,4,0,0,1,6.3-1.27,3,3,0,0,1,5.52,1.28,2.1,2.1,0,0,1,3.47,2.11,2.05,2.05,0,0,1,1.39,3.15c-.43.66-1.21,1-1.69,1.66a2.39,2.39,0,0,0-.14,2.59" transform="translate(166 146)"/><path class="cls-17" d="M699.11,608.67s0,.1-.1.27a2,2,0,0,1-.54.61,2,2,0,0,1-1.22.38,2.08,2.08,0,0,1-1.49-.7l.19-.06a1.93,1.93,0,0,1-1.24,1.44,2.23,2.23,0,0,1-2.11-.27,3.18,3.18,0,0,1-1.18-1.55l.22,0a2.62,2.62,0,0,1-2.11,1.15,2.42,2.42,0,0,1-1.78-.72,2.47,2.47,0,0,1-.64-1.1,1,1,0,0,1-.06-.45s0,.16.14.43a2.56,2.56,0,0,0,.68,1,2.29,2.29,0,0,0,1.65.63,2.43,2.43,0,0,0,1.91-1.08l.14-.22.09.24a3,3,0,0,0,1.09,1.42,1.94,1.94,0,0,0,1.86.25,1.72,1.72,0,0,0,1.12-1.23l0-.24.16.18a1.88,1.88,0,0,0,1.33.66,1.85,1.85,0,0,0,1.13-.3A2.72,2.72,0,0,0,699.11,608.67Z" transform="translate(166 146)"/><path class="cls-17" d="M699.1,607.53a2.61,2.61,0,0,0-.4-1,1.69,1.69,0,0,0-1-.66,1.79,1.79,0,0,0-1.43.27l-.22.17,0-.28a2.18,2.18,0,0,0-.1-.83,2.13,2.13,0,0,0-2.6-1.46,3.1,3.1,0,0,0-1.21.68.83.83,0,0,1,.23-.31,2.32,2.32,0,0,1,2.54-.46,2.43,2.43,0,0,1,1.29,1.47,2.31,2.31,0,0,1,.11.93l-.21-.12a2,2,0,0,1,1.63-.28,1.8,1.8,0,0,1,1.07.79,1.73,1.73,0,0,1,.28.82A.59.59,0,0,1,699.1,607.53Z" transform="translate(166 146)"/><path class="cls-17" d="M693.14,607.62s0-.17,0-.4a1.92,1.92,0,0,0-.29-.84,8.88,8.88,0,0,0-.54-.76.27.27,0,0,0-.3-.06s0-.06.06-.12a.33.33,0,0,1,.35,0,2,2,0,0,1,.32.33,3.15,3.15,0,0,1,.33.44,1.57,1.57,0,0,1,.25,1C693.29,607.5,693.17,607.63,693.14,607.62Z" transform="translate(166 146)"/><path class="cls-17" d="M687.61,604s0-.22.17-.52a1.29,1.29,0,0,1,.43-.45,1.08,1.08,0,0,1,.76-.17,1.81,1.81,0,0,1,1.13.71c.21.27.3.45.28.47s-.18-.12-.42-.34a1.88,1.88,0,0,0-1-.58,1.1,1.1,0,0,0-1,.46C687.74,603.85,687.65,604,687.61,604Z" transform="translate(166 146)"/><path class="cls-17" d="M689.06,616.15a4.7,4.7,0,0,1-1-1.82,4.66,4.66,0,0,1-.35-2.05c.08,0,.22.9.59,2S689.13,616.11,689.06,616.15Z" transform="translate(166 146)"/><path class="cls-17" d="M690.31,616.84a3.63,3.63,0,0,1-.69-1.3,3.42,3.42,0,0,1-.34-1.43,5.5,5.5,0,0,1,.59,1.34A5.11,5.11,0,0,1,690.31,616.84Z" transform="translate(166 146)"/><path class="cls-17" d="M698.18,617a4.55,4.55,0,0,1-.33,2.52,4.49,4.49,0,0,1-1.42,2.1,15.3,15.3,0,0,0,1.18-2.19A16.62,16.62,0,0,0,698.18,617Z" transform="translate(166 146)"/><path class="cls-17" d="M699.43,615a3.61,3.61,0,0,1,.18,2.26,3.56,3.56,0,0,1-1,2.06,11.12,11.12,0,0,0,.72-2.1A13.47,13.47,0,0,0,699.43,615Z" transform="translate(166 146)"/><polyline class="cls-8" points="861.82 839.82 864.56 866.31 866.54 906.2 877.06 906.2 877.35 821.3 847.21 823.45 840.97 868 846.37 906.98 857.92 906.98 855.22 869.91 861.82 839.82"/><path class="cls-17" d="M695.82,693.82a16,16,0,0,1-2.05,2,17.45,17.45,0,0,1-2.22,1.83,14.77,14.77,0,0,1,2-2A16.37,16.37,0,0,1,695.82,693.82Z" transform="translate(166 146)"/><path class="cls-17" d="M695.79,693.29a26.11,26.11,0,0,1,.05-3.4,29,29,0,0,1,.2-3.39,31.28,31.28,0,0,1-.25,6.79Z" transform="translate(166 146)"/><path class="cls-17" d="M699.27,683.41s.05,0,.17,0l.52,0,2-.1,7.14-.3h.12v.12c0,2.23,0,4.75,0,7.41v.23l-.08,0-4.64,1.86,0,0h-.05l-4.1-1.43-.07,0v-.07c-.3-2.31-.55-4.24-.72-5.62-.08-.64-.15-1.16-.19-1.54a4.55,4.55,0,0,1-.05-.53l0,.15.07.42.25,1.56c.2,1.36.49,3.26.83,5.53l-.07-.09,4.11,1.4h-.08l4.63-1.87-.08.12v-.14c0-2.66,0-5.18,0-7.41l.13.12-7.06.17-2,0h-.74Z" transform="translate(166 146)"/><path class="cls-17" d="M684.07,683.54l.15,0,.47,0,1.81-.06,6.51-.15h.12v.12c-.07,2.2-.15,4.73-.24,7.43v.07l0,0-.76.49-3.81,2.49-.07,0-.07,0-4.3-2.62-.05,0v-.06c.08-2.31.15-4.24.2-5.61,0-.65,0-1.16.06-1.55a3.77,3.77,0,0,1,0-.52s0,.05,0,.15v.42c0,.39,0,.91,0,1.56,0,1.37-.05,3.27-.08,5.55l-.06-.09,4.32,2.59h-.13l3.81-2.5.75-.49-.06.1c.1-2.69.19-5.23.27-7.43l.12.12-6.44,0h-2.5Z" transform="translate(166 146)"/><path class="cls-17" d="M708.1,695.54a7.78,7.78,0,0,1-1.43,0c-.88-.06-2.09-.18-3.42-.36s-2.54-.36-3.4-.52a7,7,0,0,1-1.39-.33,9.84,9.84,0,0,1,1.41.14l3.41.45,3.41.44A7.61,7.61,0,0,1,708.1,695.54Z" transform="translate(166 146)"/><path class="cls-17" d="M707.85,725.06s0,.15-.25.34a1.69,1.69,0,0,1-1.07.36,2.55,2.55,0,0,1-1.58-.6,11.57,11.57,0,0,1-1.43-1.45,19.73,19.73,0,0,1-2.13-3,6.53,6.53,0,0,1-.67-1.37,13.72,13.72,0,0,1,.83,1.27,25.4,25.4,0,0,0,2.17,2.93A11.83,11.83,0,0,0,705.1,725a2.47,2.47,0,0,0,1.43.61,1.69,1.69,0,0,0,1-.27C707.75,725.17,707.83,725.05,707.85,725.06Z" transform="translate(166 146)"/><path class="cls-17" d="M687.06,726a.63.63,0,0,1-.14.34,2.12,2.12,0,0,1-.73.69,2.72,2.72,0,0,1-1.44.38,3.49,3.49,0,0,1-1.74-.55,6.06,6.06,0,0,1-2.09-2.5,5.69,5.69,0,0,1-.53-1.24,8.16,8.16,0,0,1,.69,1.15,6.61,6.61,0,0,0,2.07,2.37,3.34,3.34,0,0,0,1.6.53,2.75,2.75,0,0,0,1.35-.3A3,3,0,0,0,687.06,726Z" transform="translate(166 146)"/><path class="cls-17" d="M687.73,722a2.37,2.37,0,0,1-.86.51,6.88,6.88,0,0,1-4.76.19,2.63,2.63,0,0,1-.9-.43,10.88,10.88,0,0,0,3.29.5A10.69,10.69,0,0,0,687.73,722Z" transform="translate(166 146)"/><path class="cls-17" d="M722,628.51H706.64s-2.08-1.2-3.09-1a4,4,0,0,0-1.88,1.27l2,16.91,5-3.67,18.5-1.93a5.94,5.94,0,0,0,4.23-1.85h0a5.91,5.91,0,0,0,1.56-4.74l-3.42-18.18-7,.23-.28,4.62Z" transform="translate(166 146)"/><path class="cls-17" d="M679.74,632.78a9.4,9.4,0,0,0-3.7,4.3c-.9,2.15-7,12.88-10.23,18.5a5.3,5.3,0,0,0,.77,6.31h0c1.95,2,4.29,1.24,7.15.32,1.28-.42,7-9.26,7-9.26Z" transform="translate(166 146)"/><polygon class="cls-17" points="848.41 817.12 844.89 786.85 845.74 778.78 854.7 774.96 866.3 774.2 877.35 775.42 874.77 806.47 877.59 823.99 846.65 825.38 848.41 817.12"/><path class="cls-8" d="M682.4,671c-.07,0-.92-6.73-1.88-15s-1.7-15.09-1.63-15.1.92,6.74,1.89,15.06S682.47,671,682.4,671Z" transform="translate(166 146)"/><path class="cls-8" d="M711.12,636.21a1,1,0,0,1,0,.27c0,.21,0,.47-.07.78l-.29,2.86c-.25,2.44-.58,5.75-1,9.42s-.64,7-.82,9.43c-.08,1.18-.15,2.15-.2,2.86l-.06.78a1.3,1.3,0,0,1,0,.27.9.9,0,0,1,0-.28l0-.78c0-.67.06-1.65.12-2.87.13-2.42.39-5.76.74-9.44s.73-7,1-9.41c.15-1.21.28-2.18.38-2.85,0-.31.08-.57.11-.77A1,1,0,0,1,711.12,636.21Z" transform="translate(166 146)"/><path class="cls-8" d="M705.8,666.35a3.72,3.72,0,0,1-.49.6,7.29,7.29,0,0,1-.63.66c-.26.24-.54.53-.89.8a13.21,13.21,0,0,1-1.17.89,16.63,16.63,0,0,1-1.42.89,19.52,19.52,0,0,1-3.54,1.49,18.81,18.81,0,0,1-3.78.69,16,16,0,0,1-1.67,0,12.73,12.73,0,0,1-1.46-.1c-.45,0-.84-.13-1.19-.19a10,10,0,0,1-1.62-.43c0-.06,1.07.27,2.83.43a12.86,12.86,0,0,0,1.44.07c.52,0,1.07,0,1.65-.06a19.91,19.91,0,0,0,3.73-.7,20.44,20.44,0,0,0,3.5-1.45c.5-.29,1-.56,1.41-.86s.82-.58,1.17-.85C705.05,667.17,705.76,666.31,705.8,666.35Z" transform="translate(166 146)"/><g class="cls-18"><path d="M689.44,672a1.54,1.54,0,0,1-1-2.46,2.68,2.68,0,0,1,2.37-.57,12.43,12.43,0,0,0,2.5.34,5.68,5.68,0,0,0,3.48-2.05,11.06,11.06,0,0,1,3.12-2.68c1.26-.57,3-.37,3.66.84a2.63,2.63,0,0,1-.15,2.52,5.68,5.68,0,0,1-1.86,1.82A15.25,15.25,0,0,1,689.44,672" transform="translate(166 146)"/></g><path class="cls-8" d="M707.74,629.13a4,4,0,0,1,2,1.6,4.1,4.1,0,0,1,.89,2.42,10.09,10.09,0,0,0-1.1-2.26A10.39,10.39,0,0,0,707.74,629.13Z" transform="translate(166 146)"/><path class="cls-7" d="M706.67,628.79s-.08-.07-.26-.15a1.27,1.27,0,0,0-.83,0,2.24,2.24,0,0,0-1.14.68,13.79,13.79,0,0,1-1.27,1.28,3.61,3.61,0,0,1-2.08.64c-.79,0-1.62,0-2.5-.06a46.64,46.64,0,0,0-5.73.12,36.65,36.65,0,0,0-10.15,2.24,30.18,30.18,0,0,0-2.88,1.28l-.76.4-.27.13.26-.15.75-.42a30.37,30.37,0,0,1,2.88-1.31,35.93,35.93,0,0,1,10.16-2.27,46.88,46.88,0,0,1,5.74-.12c.88,0,1.72.11,2.5.08a3.7,3.7,0,0,0,2-.62,12.66,12.66,0,0,0,1.27-1.27,2.29,2.29,0,0,1,1.17-.67,1.25,1.25,0,0,1,.85.07A.87.87,0,0,1,706.67,628.79Z" transform="translate(166 146)"/><path class="cls-7" d="M710.14,635l-.31-.07a3.57,3.57,0,0,0-.9,0,5.1,5.1,0,0,0-1.39.36,17.53,17.53,0,0,0-1.7.88,9.78,9.78,0,0,1-2.14.92,14.15,14.15,0,0,1-2.64.42c-1.87.12-3.94.15-6.1.32-4.32.3-8.22.82-11,1.28-1.4.22-2.53.43-3.31.58l-.9.17-.31,0,.31-.07.89-.19c.78-.16,1.91-.38,3.31-.62,2.8-.47,6.7-1,11-1.31,2.17-.16,4.24-.19,6.11-.3a13.93,13.93,0,0,0,2.62-.42,8.9,8.9,0,0,0,2.12-.9,17.18,17.18,0,0,1,1.72-.86,4.84,4.84,0,0,1,1.4-.35,3.15,3.15,0,0,1,.92,0Z" transform="translate(166 146)"/><path class="cls-7" d="M710.22,643.53s-.39.18-1.11.47-1.79.66-3.12,1a47.13,47.13,0,0,1-10.72,1.6,98.44,98.44,0,0,1-10.85-.26l-3.27-.26-.89-.07-.31,0h.31l.89.06,3.28.22a101.84,101.84,0,0,0,10.84.23A47.78,47.78,0,0,0,706,645c1.33-.36,2.4-.73,3.12-1,.37-.13.65-.25.84-.32Z" transform="translate(166 146)"/><path class="cls-7" d="M709,653.38s-.36.16-1,.4a22.54,22.54,0,0,1-2.94.75,30.22,30.22,0,0,1-4.48.46c-1.7,0-3.57,0-5.52-.12-3.9-.25-7.44-.53-10-.44-1.28,0-2.32.12-3,.2-.35,0-.63.08-.82.1l-.28,0a25.35,25.35,0,0,1,4.13-.4c2.56-.11,6.1.15,10,.41,1.95.12,3.81.17,5.5.12a31.84,31.84,0,0,0,4.48-.43,23.37,23.37,0,0,0,2.94-.72c.34-.1.6-.21.78-.27Z" transform="translate(166 146)"/><path class="cls-7" d="M708.09,661s-1.42.47-3.77,1c-1.17.28-2.58.55-4.15.79s-3.32.43-5.16.55-3.58.12-5.18.08-3-.15-4.22-.28c-2.4-.26-3.86-.55-3.86-.55l.27,0,.77.11c.66.1,1.63.22,2.83.33s2.63.21,4.22.26,3.34,0,5.17-.09,3.57-.31,5.14-.53,3-.5,4.16-.77,2.12-.49,2.77-.67l.75-.2Z" transform="translate(166 146)"/><path class="cls-7" d="M709.15,663.79l-.26.1-.76.28c-.65.24-1.58.62-2.73,1.12s-2.48,1.14-4,1.76a26.16,26.16,0,0,1-5.13,1.57,42,42,0,0,1-9.73.54c-1.25,0-2.25-.12-2.95-.16l-.8-.06-.28,0h.28l.8,0,2.95.13a44.4,44.4,0,0,0,9.71-.57,26.44,26.44,0,0,0,5.11-1.55c1.53-.63,2.88-1.25,4-1.75s2.09-.86,2.75-1.09S709.15,663.79,709.15,663.79Z" transform="translate(166 146)"/><path class="cls-7" d="M710.72,672.11s-.34.23-1,.6a19.13,19.13,0,0,1-2.89,1.33,32,32,0,0,1-10.34,1.75c-4.11.07-7.83-.25-10.51-.37l-3.19-.12h-.86l-.3,0h1.16c.76,0,1.85,0,3.19.09,2.69.09,6.4.41,10.51.33A32.48,32.48,0,0,0,706.8,674a21.05,21.05,0,0,0,2.9-1.29c.34-.17.58-.33.76-.43Z" transform="translate(166 146)"/><path class="cls-7" d="M715.4,641.45a.39.39,0,0,1,0-.12l.09-.36c.09-.31.2-.76.32-1.32a21.24,21.24,0,0,0,.42-4.43,20.62,20.62,0,0,0-.56-4.42c-.13-.56-.26-1-.35-1.31l-.11-.35,0-.13s0,0,0,.12l.13.35c.11.3.24.74.38,1.3a19.26,19.26,0,0,1,.14,8.89c-.13.56-.25,1-.35,1.31l-.11.35Z" transform="translate(166 146)"/><path class="cls-7" d="M722.83,639.64v-.44c0-.29,0-.7,0-1.21a18.48,18.48,0,0,0-1.75-7.68c-.21-.46-.4-.83-.54-1.08l-.15-.29,0-.1.06.09.18.28c.15.24.34.61.57,1.07A17.62,17.62,0,0,1,722.5,634a17.37,17.37,0,0,1,.44,4c0,.51,0,.92-.06,1.21l0,.33C722.84,639.6,722.84,639.64,722.83,639.64Z" transform="translate(166 146)"/><path class="cls-7" d="M732.88,636.15l-.1-.1-.25-.3c-.22-.26-.55-.63-1-1.08a24.07,24.07,0,0,0-7.7-5.51c-.56-.25-1-.44-1.34-.56l-.36-.15-.13-.06.14,0,.37.13c.32.11.79.29,1.35.53a22.88,22.88,0,0,1,7.72,5.53c.41.45.73.83.94,1.11l.24.31Z" transform="translate(166 146)"/><path class="cls-7" d="M730.6,621.93a2.59,2.59,0,0,1-.32,0h-.87c-.73,0-1.75,0-2.87,0s-2.13.06-2.87.1l-.86,0h-.32a1.16,1.16,0,0,1,.31-.05l.87-.08c.73-.05,1.75-.11,2.87-.13s2.14,0,2.87,0l.87,0Z" transform="translate(166 146)"/><path class="cls-7" d="M673.73,641.85a2,2,0,0,1,.19.2c.11.13.29.32.5.54a13.6,13.6,0,0,0,1.89,1.57,23.06,23.06,0,0,0,2.09,1.27l.66.36c.15.08.24.13.23.14a1.23,1.23,0,0,1-.25-.1l-.67-.33a19,19,0,0,1-2.12-1.26,10.82,10.82,0,0,1-1.88-1.6,5.58,5.58,0,0,1-.48-.57A1.25,1.25,0,0,1,673.73,641.85Z" transform="translate(166 146)"/><path class="cls-7" d="M675.85,637.83a3,3,0,0,0,.35.41,8.47,8.47,0,0,0,1,.8c.42.28.82.51,1.11.67a4,4,0,0,1,.48.26,6,6,0,0,1-1.64-.85,5.14,5.14,0,0,1-1-.83A1.16,1.16,0,0,1,675.85,637.83Z" transform="translate(166 146)"/><path class="cls-7" d="M679.42,655l-.11-.05-.31-.16c-.26-.14-.64-.35-1.09-.65a22.21,22.21,0,0,1-3.27-2.59,20.79,20.79,0,0,1-2.72-3.16c-.31-.44-.53-.81-.68-1.07l-.16-.3c0-.07-.06-.11-.05-.11l.07.1.18.29c.15.25.39.62.7,1a22.2,22.2,0,0,0,2.74,3.13A24.6,24.6,0,0,0,678,654c.45.3.81.53,1.07.68l.3.17Z" transform="translate(166 146)"/><path class="cls-8" d="M665.47,660.15a2.43,2.43,0,0,1-.09-.58,9.42,9.42,0,0,1,0-1.59,10.34,10.34,0,0,1,1.67-4.93c1.08-1.73,2.07-3.28,2.79-4.4l.88-1.32a2.39,2.39,0,0,1,.35-.46,2.94,2.94,0,0,1-.27.52l-.8,1.36c-.69,1.14-1.65,2.71-2.73,4.44a10.68,10.68,0,0,0-1.7,4.81C665.41,659.32,665.53,660.15,665.47,660.15Z" transform="translate(166 146)"/><path class="cls-7" d="M674.26,662.18a6.76,6.76,0,0,1-1.74-.26,8.25,8.25,0,0,1-3.64-2.1,8.4,8.4,0,0,1-2.11-3.65,6.34,6.34,0,0,1-.25-1.73,1.13,1.13,0,0,1,0,.12,3.26,3.26,0,0,0,0,.34,10,10,0,0,0,.26,1.25,8.35,8.35,0,0,0,6.95,6l.35,0Z" transform="translate(166 146)"/><path class="cls-7" d="M669.21,645l-.08.06-.26.16a9.73,9.73,0,0,0-.94.62,13.52,13.52,0,0,0-2.68,2.53,13.93,13.93,0,0,0-1.88,3.17c-.18.44-.31.8-.39,1l-.1.29,0,.1s0,0,0-.11l.08-.29a11.17,11.17,0,0,1,.36-1.07,12.93,12.93,0,0,1,1.87-3.2,12.54,12.54,0,0,1,2.72-2.53,8.44,8.44,0,0,1,1-.59l.27-.15Z" transform="translate(166 146)"/><path class="cls-7" d="M666.4,641.32a1.21,1.21,0,0,1-.29.11,8,8,0,0,0-.77.28,8.83,8.83,0,0,0-2.3,1.39,12.62,12.62,0,0,0-1.87,2c-.22.27-.39.5-.5.65a1.86,1.86,0,0,1-.19.24,1.29,1.29,0,0,1,.16-.26,8,8,0,0,1,.47-.68,12.07,12.07,0,0,1,1.86-2,8.37,8.37,0,0,1,2.34-1.38,6.59,6.59,0,0,1,.79-.25Z" transform="translate(166 146)"/></g><ellipse class="cls-20" cx="65" cy="56.5" rx="65" ry="56.5"/></svg>