<svg id="SvgjsSvg1001" width="360" height="360" xmlns="http://www.w3.org/2000/svg" version="1.1" xmlns:xlink="http://www.w3.org/1999/xlink" xmlns:svgjs="http://svgjs.com/svgjs"><defs id="SvgjsDefs1002"></defs><g id="SvgjsG1008" transform="matrix(0.9167,0,0,0.9167,15.025146619415295,15.422949369049093)"><svg xmlns="http://www.w3.org/2000/svg" xmlns:xlink="http://www.w3.org/1999/xlink" viewBox="0 0 1000 1000" width="360" height="360"><defs><linearGradient id="h" x1="-5185.983" x2="-4391.456" y1="179.514" y2="889.706" gradientTransform="matrix(-1.0091 -.0018 -.1357 .9907 -4256.062 34.607)" gradientUnits="userSpaceOnUse"><stop offset="0" stop-color="#ffffff" class="stopColorfff svgShape"></stop><stop offset=".064" stop-color="#f6f7fc" class="stopColorf6f7fc svgShape"></stop><stop offset=".17" stop-color="#dce3f4" class="stopColordce3f4 svgShape"></stop><stop offset=".305" stop-color="#b3c1e7" class="stopColorb3c1e7 svgShape"></stop><stop offset=".464" stop-color="#7993d5" class="stopColor7993d5 svgShape"></stop><stop offset=".642" stop-color="#3158be" class="stopColor3158be svgShape"></stop><stop offset=".646" stop-color="#2f57bd" class="stopColor2f57bd svgShape"></stop></linearGradient><linearGradient id="l" x1="-7822.065" x2="-7847.036" y1="634.218" y2="634.218" gradientTransform="matrix(-1 0 0 1 -7557.327 0)" gradientUnits="userSpaceOnUse"><stop offset="0" stop-color="#596a87" class="stopColor596a87 svgShape"></stop><stop offset=".391" stop-color="#4f6283" class="stopColor4f6283 svgShape"></stop><stop offset="1" stop-color="#36507a" class="stopColor36507a svgShape"></stop></linearGradient><linearGradient id="k" x1="-133.736" x2="-164.482" y1="-301.511" y2="-301.511" gradientTransform="rotate(11.982 -3484.106 3863.812)" xlink:href="#e"></linearGradient><linearGradient id="j" x1="378" x2="345.29" y1="492.416" y2="492.416" xlink:href="#e"></linearGradient><linearGradient id="e" x1="595.894" x2="394.248" y1="513.052" y2="595.674" gradientUnits="userSpaceOnUse"><stop offset="0" stop-color="#121e3c" class="stopColor121e3c svgShape"></stop><stop offset="1" stop-color="#ffffff" class="stopColorfff svgShape"></stop></linearGradient><linearGradient id="d" x1="-5185.983" x2="-4391.456" y1="179.514" y2="889.706" gradientTransform="matrix(-1.0091 -.0018 -.1357 .9907 -4256.062 34.607)" gradientUnits="userSpaceOnUse"><stop offset="0" stop-color="#ebebeb" class="stopColorebebeb svgShape"></stop><stop offset=".105" stop-color="#e2e2e2" class="stopColore2e2e2 svgShape"></stop><stop offset=".279" stop-color="#c8c8c8" class="stopColorc8c8c8 svgShape"></stop><stop offset=".499" stop-color="#9f9f9f" class="stopColor9f9f9f svgShape"></stop><stop offset=".646" stop-color="gray" class="stopColorgray svgShape"></stop></linearGradient><linearGradient id="i" x1="283.562" x2="823.956" y1="434.943" y2="741.436" gradientUnits="userSpaceOnUse"><stop offset="0" stop-color="#b0b0ff" class="stopColorb0b0ff svgShape"></stop><stop offset="1" stop-color="#ffffff" class="stopColorfff svgShape"></stop></linearGradient><filter id="c" width="486.348" height="307.572" x="248.559" y="427.531" color-interpolation-filters="sRGB" filterUnits="userSpaceOnUse"><feFlood flood-color="#fff" result="bg"></feFlood><feBlend in="SourceGraphic" in2="bg"></feBlend></filter><filter id="a" width="486.348" height="32766" x="248.559" y="-11407.429" color-interpolation-filters="sRGB" filterUnits="userSpaceOnUse"><feFlood flood-color="#fff" result="bg"></feFlood><feBlend in="SourceGraphic" in2="bg"></feBlend></filter><radialGradient id="f" cx="139.365" cy="233.527" r="953.016" gradientUnits="userSpaceOnUse"><stop offset="0" stop-color="#6469d4" class="stopColor6469d4 svgShape"></stop><stop offset="1" stop-color="#d4f3fb" class="stopColord4f3fb svgShape"></stop></radialGradient><mask id="g" width="486.348" height="307.572" x="248.559" y="427.531" maskUnits="userSpaceOnUse"><g filter="url(#c)" mask="url(#b)" fill="#000000" class="color000 svgShape"><path fill="url(#d)" style="mix-blend-mode:multiply" d="M719.3301,735.1029a7.54759,7.54759,0,0,0,5.3715-2.5373,8.93062,8.93062,0,0,0,2.4805-5.7876l7.723-292.7131c.0872-3.2973-2.0478-5.6917-5.0795-5.6973l-463.389-.8368a7.58773,7.58773,0,0,0-5.3602,2.509,8.91423,8.91423,0,0,0-2.5161,5.7384l-9.9967,292.7335c-.1134,3.3263,2.0133,5.7444,5.0601,5.7499Z"></path></g></mask></defs><g data-name="Layer 1" fill="#000000" class="color000 svgShape"><path fill="#ebe9f4" d="M103.6971,613.7913c20.2289,156.2854,160.6741,250.6969,266.4134,224.605,175.0786-43.2019,332.3081,57.3258,458.0208-82.5798,125.7132-139.9055,38.1679-302.8753-63.3835-416.0752C663.1955,226.5412,546.7191,170.6968,395.71,200.4126,140.0436,250.7238,88.8815,499.326,103.6971,613.7913Z" class="colorebe9f4 svgShape"></path><path fill="url(#f)" d="M837.9945,781.6886c-116.25,98.85-248.57,6.87-402.9199,13.48-132.3301,5.67-227.6199-39.87-278.77-113.88a232.75883,232.75883,0,0,1-21.8699-39.23c-8.9001-20.3401-14.0901-44.13-15.1702-70-4.0998-95.9001,47.68-220.6399,172.22-305.3301.28-.1999.5701-.3899.8601-.5798,1.28-.8801,2.5701-1.7402,3.8699-2.6001,82.0701-54.3301,205.3401-124.8401,381.9001-33.8301q10.30485,5.31015,20.25,11.4702c.23.1299.45.2698.67.41,51.8801,32.2199,96.05,80.7299,129.6899,136.2299a514.42,514.42,0,0,1,60.5501,147.48C913.3746,627.8587,900.7846,728.2886,837.9945,781.6886Z"></path><path fill="#c0f0ff" d="M307.9208,664.126c-3.8263-1.8951-8.085-2.9498-11.674-5.2538a7.24065,7.24065,0,0,1-3.1023-3.3802c-1.1148-3.0276,1.0511-6.3162,2.2908-9.4106,3.8081-9.485-1.0935-19.6412-5.8772-28.2269-1.3293-2.3832-2.8918-4.9595-5.5162-5.6893-3.8142-1.0586-7.536,2.2389-10.5047,5.1161-2.9693,2.8771-7.1908,5.8101-10.6871,3.9938-3.4654-1.7984-3.3969-6.9996-1.7336-10.7371,1.8864-4.2307,5.1341-7.7712,7.0473-11.9941,1.9126-4.2237,2.0412-9.8893-1.5505-12.4563-4.2701-3.053-10.2695.1525-14.8867,3.119-4.6128,2.9638-11.0929,5.5957-14.7539,1.8309-2.0808-2.139-2.2385-5.671-1.2346-8.6234,1.011-2.9532,2.9855-5.4831,4.8443-8.0026,1.0261-1.3891,2.0797-2.9444,2.0097-4.6345a5.90918,5.90918,0,0,0-2.1597-3.8807c-6.216-5.8555-17.0404-5.8656-23.8287-.0243-6.7869,5.8419-8.6342,16.7617-4.0642,24.0298,1.7342,2.7597,4.2734,6.2584,2.177,8.9421-2.7542,3.525-7.9201-.6639-12.2436-.2562-3.6286.34-6.2933,4.3232-6.3058,8.0064-.0128,3.6788,1.9756,6.9686,4.2934,9.6889,4.4576,5.2342,10.2632,9.0585,15.641,13.3089a5.66012,5.66012,0,0,1,2.0958,2.4786c.5799,1.7683-.5486,3.736-1.9088,5.0931-3.0665,3.0636-7.2938,4.4634-11.1137,6.4206-3.8222,1.959-7.6728,5.0738-8.2779,9.3178-.6535,4.5751,2.8011,8.6031,6.7498,10.6598,3.9491,2.0572,8.4949,2.7979,12.517,4.7131a5.24583,5.24583,0,0,1,2.8636,2.5298c.7488,1.9022-.4904,4.0499-1.6764,5.8089q-9.569,14.206-19.142,28.4138c-.8777,1.3063-1.8009,2.7805-1.6038,4.302a5.05169,5.05169,0,0,0,.8641,2.0422c4.2496,6.6184,12.7885,9.2072,20.7508,8.688,6.8033-.4438,13.3848-2.7681,19.9162-5.104a7.04429,7.04429,0,0,1,4.0164-3.6214c18.672-7.2895,38.586-10.1446,57.6161-16.2134,3.3599-2.8945,6.8638-5.6499,10.0133-8.7755,3.502-3.4744,6.7523-8.0511,6.1408-12.8285C315.3678,669.1777,311.7464,666.0232,307.9208,664.126Z" class="colorc0f0ff svgShape"></path><path fill="#76dbff" d="M257.8666,701.6621c1.2645,1.0911,2.4661,2.2699,3.6386,3.487,4.6865-1.2548,9.4035-2.4023,14.1212-3.5496q-4.43865-11.03235-8.3651-22.261c-.9312-2.6764-1.8526-5.4806-1.4728-8.289.354-2.6203,1.8113-4.9746,2.3209-7.5691.8368-4.2578-.9759-8.6177-3.417-12.2049s-5.5354-6.7133-7.778-10.4283a64.44136,64.44136,0,0,1-4.1863-9.141c-4.3755-10.7449-9.784-21.0331-15.1832-31.3013a2.6233,2.6233,0,0,0-1.3084-1.4331,2.36,2.36,0,0,0-1.7494.3258c-4.6332,2.3604-7.2086,7.6558-7.6043,12.8405s1.0515,10.3227,2.6864,15.2591c1.6348,4.9358,3.4876,9.8719,3.9465,15.0514.6732,7.599-1.6961,15.3218-.3183,22.825.8928,4.8621,3.3284,9.398,3.7171,14.3263a19.634,19.634,0,0,0,.542,4.7139,10.50752,10.50752,0,0,0,2.6362,3.8695C245.297,693.5088,252.2287,696.7981,257.8666,701.6621Z" opacity=".6" class="color76dbff svgShape"></path><path fill="#e4f7ff" d="M249.9366,696.3996c3.5258,1.0737,7.8279,1.5719,11.5227,2.3435q1.5987,2.80755,3.3353,5.5429.81675-.21015,1.6344-.4154a163.74593,163.74593,0,0,1-14.8048-29.0318c2.2766-2.4796,4.9772-5.1265,7.0019-7.6685,7.286-9.1476,10.5674-15.575,14.8637-23.933l-.093-.0465c-4.4138,8.2836-10.845,17.5841-15.4907,22.6243a81.02869,81.02869,0,0,1-7.103,6.9316q-2.114-5.44125-3.9811-10.9761l.0048.0012a.44051.44051,0,0,0-.0527-.1401q-1.10085-3.255-2.1329-6.5275c-.8066-2.6117-1.5731-5.2365-2.3194-7.868a40.168,40.168,0,0,0,2.8115-3.0902,77.59149,77.59149,0,0,0,6.5206-10.4997l-.0406-.0203c-1.9369,3.6341-4.4231,6.3005-6.909,9.5762-.8189,1.0647-1.7546,2.029-2.6641,3.0194a340.023,340.023,0,0,1-9.35-44.3398l-.2009.0238q1.6119,12.80625,4.2254,25.4612c-1.2948-.6764-2.6182-1.2954-3.8523-2.0732-3.4647-2.2161-6.7187-3.8593-9.7912-6.601l-.0315.0332a77.56687,77.56687,0,0,0,9.7462,7.6013c1.2303.7942,2.8145,1.4557,4.1504,2.1516q2.83215,13.58265,6.7385,26.9197.64875,2.133,1.3282,4.2611c-2.7099-.5557-5.4391-1.0015-8.0907-1.7774-7.576-2.2709-14.461-3.5945-21.589-7.0449l-.0402.0782a145.3836,145.3836,0,0,0,21.9004,8.4004c2.527.7693,5.7035,1.6744,8.4134,2.2009a204.29834,204.29834,0,0,0,14.4511,34.6972c-4.3777-.5996-7.3748-.6084-10.858-1.6275-9.7562-2.9248-18.3957-5.3293-27.5752-9.7731l-.0518.1007A192.13481,192.13481,0,0,0,249.9366,696.3996Z" class="colore4f7ff svgShape"></path><path fill="#ffffff" d="M231.5345 565.965s-18.6226-1.3541-18.1476 18.5082c0 0 2.935-12.5888 13.795-15.4337S231.5345 565.965 231.5345 565.965zM207.3452 603.2493s-8.7483 6.8047-.0474 13.7667C207.2978 617.016 190.7336 601.368 207.3452 603.2493zM257.2564 590.1746s10.9608 1.6418 6.7906 11.9755C264.047 602.1501 270.8118 580.391 257.2564 590.1746zM208.8843 646.0437s-9.8879 4.0944-7.2063 9.4097c2.6817 5.3149 14.2836 8.0783 14.2836 8.0783s-9.8541-4.2956-9.6051-9.0891C206.6052 649.6493 213.2471 652.8527 208.8843 646.0437zM275.0339 617.5498s9.0581-5.7003 11.8441-.439c2.7859 5.2611-1.6673 16.325-1.6673 16.325s2.1924-10.5239-1.8621-13.0923C279.2939 617.7752 278.0671 625.0462 275.0339 617.5498zM300.8746 669.3481s10.3811-2.6029 11.3943 3.2634S305.611 687.61 305.611 687.61s5.3542-9.3213 2.2985-13.0226C304.8538 670.8859 301.4282 677.416 300.8746 669.3481zM215.2503 687.5737c-.7514-.548-13.8185 17.8041-13.8185 17.8041s.2925 12.6031 17.2484 9.2362c0 0-12.4213-1.4743-13.0061-8.6283C205.6741 705.9857 225.8764 695.3208 215.2503 687.5737z" opacity=".1" class="colorfff svgShape"></path><path fill="#c0f0ff" d="M203.9985 688.0478s-12.9022-7.2091-13.2534-14.8893c-.3513-7.6798-1.8448-9.9387-1.8448-9.9387s9.7903 1.212 13.9479 7.6648 1.3009 16.4978 1.3009 16.4978-.6866-7.6724-5.8347-13.347A115.44187 115.44187 0 00203.9985 688.0478zM191.3112 635.2315s2.056-7.088 5.7529-8.1228 4.6278-2.0156 4.6278-2.0156.5117 4.8996-2.1599 7.6481c-2.6718 2.7487-7.8802 2.4888-7.8802 2.4888a12.73222 12.73222 0 005.8372-4.3401A57.65445 57.65445 0 00191.3112 635.2315zM196.6834 594.1503s6.2775-11.0868 3.0982-16.902c-3.1794-5.8147-3.0903-8.1478-3.0903-8.1478s-6.6699 5.2759-6.8441 11.8908 6.4273 12.7361 6.4273 12.7361a21.98169 21.98169 0 01-1.6766-12.4446A99.52538 99.52538 0 01196.6834 594.1503zM700.3592 641.311c3.1124-1.5416 6.5767-2.3996 9.4962-4.2737a5.89106 5.89106 0 002.5235-2.7495c.9068-2.4628-.855-5.1379-1.8635-7.6551-3.0977-7.7156.8896-15.9771 4.7807-22.9611 1.0814-1.9386 2.3524-4.0343 4.4872-4.6279 3.1028-.8611 6.1301 1.8213 8.5451 4.1617 2.4152 2.3403 5.8493 4.7262 8.6934 3.2487 2.8189-1.4629 2.7631-5.6938 1.4101-8.734-1.5345-3.4413-4.1763-6.3214-5.7326-9.7566-1.5556-3.4358-1.6604-8.0445 1.2613-10.1325 3.4735-2.4836 8.3536.1241 12.1096 2.5371 3.7522 2.4109 9.0233 4.5518 12.0015 1.4894 1.6926-1.74 1.8208-4.6131 1.0042-7.0148a25.12332 25.12332 0 00-3.9407-6.5096 6.31735 6.31735 0 01-1.6347-3.7699 4.80655 4.80655 0 011.7569-3.1567c5.0564-4.7631 13.8614-4.7714 19.3833-.0198 5.5208 4.752 7.0234 13.6346 3.306 19.547-1.4106 2.2449-3.4761 5.0909-1.7708 7.2738 2.2404 2.8675 6.4426-.54 9.9594-.2084 2.9517.2766 5.1193 3.5168 5.1295 6.5128.0103 2.9925-1.6069 5.6686-3.4925 7.8815-3.626 4.2577-8.3486 7.3685-12.7229 10.826a4.60543 4.60543 0 00-1.7051 2.0163c-.4716 1.4383.4463 3.039 1.5528 4.1429 2.4945 2.4921 5.9332 3.6306 9.0404 5.2228 3.1092 1.5936 6.2414 4.1272 6.7337 7.5796.5315 3.7215-2.2785 6.9981-5.4907 8.671-3.2123 1.6735-6.9101 2.276-10.1819 3.834a4.267 4.267 0 00-2.3293 2.0579c-.6092 1.5472.399 3.2943 1.3636 4.7252q7.7838 11.5557 15.571 23.1131a5.44321 5.44321 0 011.3047 3.4994 4.108 4.108 0 01-.703 1.6612c-3.4567 5.3838-10.4027 7.4896-16.8796 7.0672-5.5342-.3609-10.8878-2.2516-16.2009-4.1518a5.73009 5.73009 0 00-3.2671-2.9459c-15.1885-5.9295-31.3877-8.252-46.8676-13.1886-2.7331-2.3545-5.5833-4.596-8.1452-7.1385-2.8487-2.8262-5.4927-6.549-4.9952-10.4352C694.3014 645.4204 697.2472 642.8542 700.3592 641.311z" class="colorc0f0ff svgShape"></path><path fill="#76dbff" d="M741.0756,671.8447c-1.0286.8875-2.006,1.8463-2.9598,2.8364-3.8123-1.0206-7.6492-1.9542-11.4868-2.8873q3.6105-8.9742,6.8045-18.1082c.7575-2.177,1.5069-4.4582,1.198-6.7427-.288-2.1315-1.4733-4.0465-1.8879-6.157-.6807-3.4634.7938-7.01,2.7794-9.928,1.9858-2.918,4.5029-5.4609,6.3271-8.483a52.38134,52.38134,0,0,0,3.4052-7.4357c3.5593-8.7403,7.9589-17.1092,12.3509-25.4617a2.13335,2.13335,0,0,1,1.0643-1.1659,1.91963,1.91963,0,0,1,1.423.265c3.769,1.9201,5.8638,6.2275,6.1856,10.4451.322,4.2175-.8552,8.397-2.1851,12.4125-1.3299,4.0149-2.837,8.0301-3.2103,12.2435-.5476,6.1813,1.3797,12.4634.2589,18.5668-.7263,3.9552-2.7075,7.6448-3.0235,11.6537a15.98239,15.98239,0,0,1-.441,3.8346,8.54408,8.54408,0,0,1-2.1445,3.1475C751.3002,665.2123,745.6616,667.8881,741.0756,671.8447Z" opacity=".6" class="color76dbff svgShape"></path><path fill="#e4f7ff" d="M747.5262,667.5639c-2.8681.8734-6.3675,1.2786-9.3732,1.9064q-1.30035,2.28375-2.713,4.5087-.66435-.17085-1.3296-.3378a133.19523,133.19523,0,0,0,12.043-23.6158c-1.8518-2.0171-4.0488-4.1702-5.6957-6.238-5.9268-7.4411-8.596-12.6694-12.0908-19.4681l.0756-.0379a100.56035,100.56035,0,0,0,12.601,18.4036,65.913,65.913,0,0,0,5.7778,5.6385q1.7196-4.4262,3.2385-8.9284l-.0039.001a.35442.35442,0,0,1,.0428-.1139q.8955-2.648,1.735-5.3099c.6562-2.1244,1.2797-4.2596,1.8868-6.4002a32.63681,32.63681,0,0,1-2.2871-2.5138,63.12838,63.12838,0,0,1-5.3041-8.5408l.0329-.0166c1.5756,2.9563,3.598,5.1252,5.6202,7.7898.6661.8661,1.4273,1.6505,2.1671,2.4561a276.60935,276.60935,0,0,0,7.6058-36.068l.1634.0192q-1.3113,10.41735-3.4372,20.7115c1.0534-.5503,2.1297-1.0539,3.1336-1.6865,2.8185-1.8026,5.4654-3.1394,7.9647-5.3695l.0255.0269a63.09678,63.09678,0,0,1-7.9278,6.1833c-1.0009.6461-2.2896,1.1841-3.3763,1.7502q-2.3037,11.0487-5.4813,21.8976-.52785,1.73535-1.0804,3.4662c2.2042-.4519,4.4243-.8145,6.5812-1.4457,6.1628-1.8473,11.7633-2.924,17.5615-5.7308l.0327.0638a118.25135,118.25135,0,0,1-17.8147,6.8331c-2.0557.6259-4.6396,1.3621-6.8439,1.7904a166.18042,166.18042,0,0,1-11.7553,28.2244c3.5611-.4878,5.9991-.4949,8.8325-1.3239,7.9361-2.3792,14.9639-4.3351,22.431-7.9499l.0421.0819A156.30417,156.30417,0,0,1,747.5262,667.5639Z" class="colore4f7ff svgShape"></path><path fill="#ffffff" d="M762.4952 561.4624s15.1486-1.1015 14.7621 15.0553c0 0-2.3873-10.2403-11.2213-12.5544C757.2018 561.649 762.4952 561.4624 762.4952 561.4624zM782.172 591.7911s7.1163 5.5353.0385 11.1985C782.2105 602.9896 795.6846 590.2608 782.172 591.7911zM741.5719 581.1555s-8.9161 1.3356-5.5238 9.7415C736.0481 590.897 730.5454 573.197 741.5719 581.1555zM780.9201 626.6021s8.0432 3.3306 5.8619 7.6543c-2.1815 4.3234-11.619 6.5713-11.619 6.5713s8.0158-3.4943 7.8133-7.3936C782.774 629.5352 777.3712 632.1408 780.9201 626.6021zM727.1108 603.4239s-7.3683-4.637-9.6344-.3572c-2.2662 4.2796 1.3563 13.2795 1.3563 13.2795s-1.7835-8.5606 1.5146-10.6499C723.6456 603.6071 724.6435 609.5217 727.1108 603.4239zM706.0908 645.5589s-8.4444-2.1173-9.2686 2.6547c-.8241 4.7718 5.4158 12.2005 5.4158 12.2005s-4.3553-7.5824-1.8697-10.5933S705.6405 652.1218 706.0908 645.5589zM775.7416 660.3845c.6113-.4458 11.2407 14.4827 11.2407 14.4827s-.2379 10.252-14.0307 7.5131c0 0 10.104-1.1993 10.5797-7.0187C783.5313 675.3616 767.0979 666.6863 775.7416 660.3845z" opacity=".1" class="colorfff svgShape"></path><path fill="#c0f0ff" d="M784.8943 660.7701s10.4953-5.8641 10.7811-12.1115c.2856-6.2471 1.5006-8.0846 1.5006-8.0846s-7.964.9858-11.3458 6.2347c-3.382 5.2491-1.0584 13.4202-1.0584 13.4202a20.74067 20.74067 0 014.7464-10.857A93.91732 93.91732 0 01784.8943 660.7701zM795.2149 617.807s-1.6725-5.7658-4.6797-6.6075-3.7646-1.6397-3.7646-1.6397-.4162 3.9857 1.757 6.2214c2.1735 2.2359 6.4101 2.0245 6.4101 2.0245a10.35754 10.35754 0 01-4.7482-3.5305A46.88891 46.88891 0 01795.2149 617.807zM790.8448 584.3896s-5.1065-9.0187-2.5201-13.7489c2.5862-4.73 2.5137-6.6278 2.5137-6.6278s5.4256 4.2916 5.5672 9.6725-5.2282 10.3601-5.2282 10.3601a17.88028 17.88028 0 001.3639-10.1229A80.953 80.953 0 00790.8448 584.3896z" class="colorc0f0ff svgShape"></path><path fill="#06375b" d="M744.9398,741.8024a33.76211,33.76211,0,0,1-7.9187,20.3712c-.491.6008-1.0119,1.2018-1.5614,1.7729a30.95127,30.95127,0,0,1-14.3538,8.8682,23.67486,23.67486,0,0,1-6.1971.8398L248.92,772.8114c-11.6577-.021-19.7956-9.2819-19.3439-22.0055l.92-26.7828.1869-5.3566,1.5186-43.9971,8.1339-235.2922a34.04305,34.04305,0,0,1,9.6194-21.9238c5.8265-6.1094,13.2965-9.6038,20.4855-9.5907l463.239.8381c11.5827.021,19.7553,9.1793,19.4292,21.771l-2.2556,85.9558Z" class="color06375b svgShape"></path><path fill="#fdfdfd" d="M267.7725,420.9713l463.3409.837c5.8864.0105,10.0286,4.6573,9.8592,11.0593l-7.6951,292.7001c-.2217,8.4109-7.5433,16.1763-15.2416,16.1625l-465.755-.8412c-5.917-.0107-10.0433-4.7044-9.8208-11.1702l10.0242-292.7432C252.7704,428.6443,260.1145,420.9576,267.7725,420.9713Z" class="colorfdfdfd svgShape"></path><g mask="url(#g)" fill="#000000" class="color000 svgShape"><path fill="url(#h)" d="M719.3301,735.1029a7.54759,7.54759,0,0,0,5.3715-2.5373,8.93062,8.93062,0,0,0,2.4805-5.7876l7.723-292.7131c.0872-3.2973-2.0478-5.6917-5.0795-5.6973l-463.389-.8368a7.58773,7.58773,0,0,0-5.3602,2.509,8.91423,8.91423,0,0,0-2.5161,5.7384l-9.9967,292.7335c-.1134,3.3263,2.0133,5.7444,5.0601,5.7499Z"></path></g><polygon fill="#312c58" points="706.566 408.09 734.062 408.09 714.435 665.935 706.566 408.09" opacity=".2" class="color312c58 svgShape"></polygon><polygon fill="#f9c5c7" points="822.986 776.857 829.795 776.007 830.944 781.067 823.315 783.368 822.986 776.857" class="colorf9c5c7 svgShape"></polygon><path fill="#121e3c" d="M834.1661,785.0781c.9207-4.472-3.8489-3.22-3.8489-3.22s-.3187-5.3469-1.432-5.7513c0,0-2.3053.1142.0855-1.1552,2.3906-1.2693,4.2582-1.9455,5.0164-1.3944.6378.4634,3.8823,10.4495,4.8968,13.6099.1915.5966-2.2846.6074-2.2846.6074S833.458,788.5176,834.1661,785.0781Z" class="color121e3c svgShape"></path><path fill="#203a6f" d="M765.902,709.9746s-34.469,65.0591-27.8843,73.1306c10.8732,13.3283,88.4539.4604,88.4539.4604s-.5919-8.5276-2.1702-8.5276c-1.5785,0-55.9532-6.2065-55.9532-6.2065s46.9072-46.9072,16.4942-57.2786C769.5995,706.3549,765.902,709.9746,765.902,709.9746Z" class="color203a6f svgShape"></path><path fill="#e5adb3" d="M727.0456,674.9068s-9.522,45.1158-22.6713,38.0878c-13.1494-7.0282-12.0668-31.9566-12.0668-31.9566s3.7686-1.9879,4.4257-.8928c5.825,9.7084,7.6411,14.1771,7.6411,14.1771s-.6468-35.7087,10.2355-39.1094C725.4919,651.8123,727.0456,674.9068,727.0456,674.9068Z" class="colore5adb3 svgShape"></path><path fill="#6f6eb2" d="M723.2031,688.3688c-2.88,4.7999-15.6005-5.0288-18.6883-7.8698-3.0878-2.8408,2.5977-30.6789,9.1743-30.6789C717.6395,649.8201,734.7777,669.0777,723.2031,688.3688Z" class="color6f6eb2 svgShape"></path><polygon fill="#f9c5c7" points="696.288 776.777 693.565 783.509 687.822 783.509 689.356 773.644 696.288 776.777" class="colorf9c5c7 svgShape"></polygon><path fill="#0f4c86" d="M703.543,718.1334c8.1617-5.1388,32.949-3.9297,32.949-3.9297l2.4183-5.1389h53.6555s12.7242,18.9394-2.0194,29.8114c-23.5921,17.3969-66.7503,3.44-66.7503,3.44s-17.9085,31.6901-28.1266,37.3781c-1.6653.927-7.8452.7095-7.5429-1.1041S695.3814,723.2722,703.543,718.1334Z" class="color0f4c86 svgShape"></path><path fill="#6f6eb2" d="M734.527,635.6375s23.8051-.8589,39.6749,30.881c15.8699,31.7397,25.8453,39.6746,22.4447,42.6219-3.4008,2.9473-44.2955,13.2351-55.9983,1.3603-11.823-11.997-36.2709-49.2304-31.4346-56.905C714.4414,645.3002,719.2118,638.5485,734.527,635.6375Z" class="color6f6eb2 svgShape"></path><path fill="#feaa32" d="M743.8522,637.1004s-8.795,15.4404-7.0361,31.6625c1.7591,16.222-.5212,18.9582-6.5801,14.2676-6.0587-4.6907-9.9677-16.0267-9.9677-27.1672s3.7977-17.0908,3.7977-17.0908l-3.5846,1.3443s-6.337,11.8377-2.9494,23.76c2.0025,7.0469,5.668,26.3852,12.3132,33.6167s10.5542,15.6357,21.4992,17.9811,48.0797-.912,47.8843-6.9709l-25.0172-41.6954s1.6939,20.9779-10.0329,22.5417c-11.7267,1.5634-21.1757-6.3914-22.5415-17.5903-.6515-5.3422-.3909-26.8414,8.3391-32.1836Z" class="colorfeaa32 svgShape"></path><polygon fill="#0f4c86" points="723.203 688.369 722.501 689.07 722.589 672.147 723.992 688.895 723.203 688.369" class="color0f4c86 svgShape"></polygon><path fill="#f9c5c7" d="M721.7978,618.2623s-5.8193,15.3417-2.2781,16.0134a29.96238,29.96238,0,0,0,7.1862.3509l-3.9394,10.9241s6.6087,4.7161,14.6045-.6787c0,0,3.4847-2.1432,1.7437-5.6361a25.83887,25.83887,0,0,1-2.112-8.0962s.2264-10.3091-4.7157-12.9331S721.7978,618.2623,721.7978,618.2623Z" class="colorf9c5c7 svgShape"></path><path fill="#e4b0b3" d="M729.6443 628.7854l-.5242 5.1452 4.2632-.0196s-7.5503 5.9568-8.3359 5.2939l1.6585-4.5783zM720.7344 621.2966l-.288.8872s5.4758.9977 7.5958-.4833l1.5429 2.1922.3554-5.0589-8.6225 1.5481z" class="colore4b0b3 svgShape"></path><path fill="#121e3c" d="M737.6652,632.7976s-8.703-.8775-8.0875-5.1603c0,0,4.335-2.4388,2.7201-4.2631s-2.7127.5185-2.7127.5185-.5427-3.919-.7227-3.637c-.18.2822-9.43,3.3993-11.4752-1.4833s1.8989-11.8935,7.6191-9.0376,6.2598-.7446,9.171-.4659C742.971,610.1107,750.1376,620.4892,737.6652,632.7976Z" class="color121e3c svgShape"></path><path fill="#121e3c" d="M726.6616,628.6849l-2.3257,3.6446s-1.3955-3.172-3.3332-4.2002-2.0293-.628-2.0293-.628-2.4421,6.1978-.1499,6.8057,7.8824.3196,7.8824.3196l2.9384-5.8412h0A1.73374,1.73374,0,0,0,726.6616,628.6849Z" class="color121e3c svgShape"></path><path fill="#f9c5c7" d="M719.087,629.084s3.073,1.1314,3.7676,3.1297c.6946,1.9985-4.0839.1415-4.0839.1415S717.7128,631.0584,719.087,629.084Z" class="colorf9c5c7 svgShape"></path><path fill="#feaa32" d="M743.0735,625.8866a13.52631,13.52631,0,0,0-6.2765-7.4055c-6.2653-3.3607-16.471-4.8377-17.6488-5.9476-2.0962-1.975,6.8087-11.8395,14.4383-9.9158C750.9341,606.9918,748.5849,622.0708,743.0735,625.8866Z" class="colorfeaa32 svgShape"></path><path fill="#ea9024" d="M737.3751,618.7439s-12.1974-10.2536-16.5886-10.8237c-4.3911-.5703-10.4508-1.0095-1.6383,4.6133A42.67115,42.67115,0,0,0,737.3751,618.7439Z" class="colorea9024 svgShape"></path><path fill="#d88225" d="M732.4088,616.372s-12.3301-4.2011-13.8419-6.0691,3.0839-1.3265,3.0839-1.3265Z" class="colord88225 svgShape"></path><path fill="#d88225" d="M744.0132,608.6331s-9.4389-1.1343-12.2699,5.3483l-6.6319-4.6567s5.8861-5.9099,10.938-5.2152A12.65166,12.65166,0,0,1,744.0132,608.6331Z" opacity=".5" class="colord88225 svgShape"></path><path fill="#121e3c" d="M680.9662,785.9742a20.24222,20.24222,0,0,0,6.8445-3.6499s5.2125,1.2339,5.9201.2839c0,0,.554-2.2406,1.0817.4142.5277,2.655.6377,4.6381-.1083,5.2056-.7457.5677-15.4405.7902-15.4405.7902S677.5494,786.784,680.9662,785.9742Z" class="color121e3c svgShape"></path><path fill="#0f4c86" d="M749.9343,676.7567s7.0273-13.459,7.887-16.6257c0,0-4.3315,20.0888-10.3059,23.5241C746.5274,684.2232,749.9343,676.7567,749.9343,676.7567Z" class="color0f4c86 svgShape"></path><polygon fill="#c0f0ff" points="336.909 272.266 371.267 306.47 389.732 248.279 336.909 272.266" opacity=".1" class="colorc0f0ff svgShape"></polygon><polygon fill="#c0f0ff" points="570.736 323.286 616.844 308.304 573.474 265.337 570.736 323.286" opacity=".1" class="colorc0f0ff svgShape"></polygon><path fill="#ffffff" d="M804.3957,746.7638a1.94575,1.94575,0,1,1-1.9457-1.9459A1.94546,1.94546,0,0,1,804.3957,746.7638Z" opacity=".2" class="colorfff svgShape"></path><path fill="#ffffff" d="M811.2812,746.7638a1.9458,1.9458,0,1,1-1.9457-1.9459A1.94578,1.94578,0,0,1,811.2812,746.7638Z" opacity=".5" class="colorfff svgShape"></path><path fill="#ffffff" d="M818.1666,746.7638a1.94575,1.94575,0,1,1-1.9458-1.9459A1.94619,1.94619,0,0,1,818.1666,746.7638Z" class="colorfff svgShape"></path><path fill="#ffffff" d="M825.0519 746.7638a1.946 1.946 0 11-1.9456-1.9459A1.946 1.946 0 01825.0519 746.7638zM476.1469 708.8182a3.669 3.669 0 11-3.6691-3.6694A3.66857 3.66857 0 01476.1469 708.8182z" opacity=".2" class="colorfff svgShape"></path><path fill="#ffffff" d="M489.1307,708.8182a3.669,3.669,0,1,1-3.6688-3.6694A3.669,3.669,0,0,1,489.1307,708.8182Z" opacity=".5" class="colorfff svgShape"></path><path fill="#ffffff" d="M502.1147,708.8182a3.669,3.669,0,1,1-3.6692-3.6694A3.66975,3.66975,0,0,1,502.1147,708.8182Z" class="colorfff svgShape"></path><path fill="#ffffff" d="M515.0986,708.8182a3.6695,3.6695,0,1,1-3.6691-3.6694A3.66966,3.66966,0,0,1,515.0986,708.8182Z" opacity=".2" class="colorfff svgShape"></path><path fill="#0682c0" d="M717.781,384.7014V640.1587H273.2291V384.7014a25.47605,25.47605,0,0,1,25.4691-25.469H692.3119A25.468,25.468,0,0,1,717.781,384.7014Z" class="color0682c0 svgShape"></path><path fill="#312c58" d="M282.1965,410.1177V665.5794a25.469,25.469,0,0,0,25.4689,25.469H701.2775a25.46909,25.46909,0,0,0,25.4692-25.469l-7.3109-257.7167Z" opacity=".2" class="color312c58 svgShape"></path><path fill="#d8f0fa" d="M273.2349 399.3637V654.8256a25.46894 25.46894 0 0025.4689 25.4689H692.3159a25.469 25.469 0 0025.4692-25.4689V399.3637zM359.6376 381.3554a6.68885 6.68885 0 11-6.6887-6.6889A6.68881 6.68881 0 01359.6376 381.3554zM376.1025 381.3554a6.6889 6.6889 0 11-6.6889-6.6889A6.68885 6.68885 0 01376.1025 381.3554z" class="colord8f0fa svgShape"></path><path fill="#feaa32" d="M392.5673,381.3554a6.6889,6.6889,0,1,1-6.6888-6.6889A6.68883,6.68883,0,0,1,392.5673,381.3554Z" class="colorfeaa32 svgShape"></path><path fill="#0682c0" d="M308.2315 557.2624l46.7606-125.4715 31.6839-2.4147L395.9133 550.58l20.2856-1.5461 2.2103 29.0034-20.2854 1.546 3.1411 41.2154-31.6865 2.415-3.1411-41.2155-55.9953 4.2676zm55.9954-4.2675l-4.5564-59.7838L338.0603 554.989zM546.4572 588.2429q-.5826 19.1304-15.7776 31.9907-15.19575 12.8616-35.8657 12.2324-21.0105-.6399-35.305-14.4766-14.3004-13.83675-13.7197-32.8124l3.1878-104.6668q.58245-19.1262 15.7799-32.0666 15.19335-12.93765 36.0363-12.304 21.00555.63975 35.2184 14.5508 14.21115 13.9122 13.6333 32.8857zM516.7235 481.9614a15.39138 15.39138 0 00-5.0188-11.9467 18.56364 18.56364 0 00-12.7918-5.2908 18.25936 18.25936 0 00-13.0053 4.5051 15.49353 15.49353 0 00-5.6531 11.6217l-3.1924 104.8194a15.48914 15.48914 0 004.9355 11.944 18.24828 18.24828 0 0012.7069 5.2882 18.55258 18.55258 0 0013.09-4.5025 15.38724 15.38724 0 005.7367-11.6191zM576.2444 535.8151l72.9509-112.2846 31.4499 4.5398L663.2784 548.3786l20.1357 2.9066-4.1558 28.7891-20.1356-2.9067-5.9055 40.911-31.4523-4.5402 5.9055-40.911-55.5817-8.0232zm55.5818 8.0232l8.5661-59.3418-34.5394 55.5926zM421.1672 448.1897a7.29325 7.29325 0 006.6412-6.3374 7.30881 7.30881 0 006.6492 6.3374 7.31652 7.31652 0 00-6.6492 6.3375A7.3086 7.3086 0 00421.1672 448.1897z" class="color0682c0 svgShape"></path><path fill="#0682c0" d="M680.6049 519.4342a7.29315 7.29315 0 006.6412-6.3373 7.30863 7.30863 0 006.6493 6.3373 7.31653 7.31653 0 00-6.6493 6.3375A7.3085 7.3085 0 00680.6049 519.4342zM574.4102 484.036a7.29352 7.29352 0 006.6412-6.3374 7.30853 7.30853 0 006.6492 6.3374 7.31643 7.31643 0 00-6.6492 6.3375A7.30869 7.30869 0 00574.4102 484.036zM308.4055 471.2718a7.2935 7.2935 0 009.1772.2147 7.30872 7.30872 0 00.2205 9.1829 7.3164 7.3164 0 00-9.183-.2203A7.30878 7.30878 0 00308.4055 471.2718zM588.9028 590.4607a7.29351 7.29351 0 009.1773.2148 7.30859 7.30859 0 00.2205 9.1829 7.31667 7.31667 0 00-9.183-.2205A7.30852 7.30852 0 00588.9028 590.4607zM387.8404 419.4843c7.1641 1.6933 10.5203 9.4394 11.7406 15.9998a92.84091 92.84091 0 011.2794 10.7726q.1899 2.84445.2476 5.6961a27.36327 27.36327 0 00.2566 5.0469c.038.1791.7076-1.054.7422-1.2419a53.74965 53.74965 0 00.4302-12.5407 79.81481 79.81481 0 00-1.255-11.0618c-1.3358-6.8-4.9456-13.7491-12.5045-14.8137-.4796-.0675-1.1862 2.0837-.9371 2.1427zM544.2199 448.1613c7.1641 1.6934 10.5204 9.4394 11.7406 15.9998a92.86457 92.86457 0 011.2795 10.7727q.1896 2.84445.2476 5.696a27.36172 27.36172 0 00.2565 5.0468c.038.1793.7076-1.0538.7422-1.2417a53.73959 53.73959 0 00.4301-12.5408 79.82661 79.82661 0 00-1.2548-11.0617c-1.3359-6.8-4.9457-13.7493-12.5045-14.8137-.4796-.0675-1.1863 2.0837-.9372 2.1426zM654.2335 419.0287c-6.9425-2.4481-13.9534 2.2542-18.5264 7.1138a92.84913 92.84913 0 00-6.8997 8.3713q-1.69755 2.29065-3.2876 4.6583a27.35589 27.35589 0 01-2.9441 4.1072c-.1288.1303-.0256-1.2691.0469-1.4459a53.74394 53.74394 0 016.4173-10.7831 79.8528 79.8528 0 017.0356-8.6278c4.7997-4.9986 11.5933-8.8935 18.5278-5.703.4399.2025-.1284 2.3943-.3698 2.3092zM302.7312 592.1511c4.4581 5.858 12.8996 5.7777 19.39 4.2272a92.89693 92.89693 0 0010.3631-3.2079q2.67645-.9825 5.3055-2.0881a27.35476 27.35476 0 014.7156-1.8161c.1793-.0381-.6754 1.0747-.8332 1.1826a53.73807 53.73807 0 01-11.2842 5.4885 79.81406 79.81406 0 01-10.6174 3.3478c-6.7561 1.5421-14.5725 1.0671-18.6163-5.4071-.2566-.4108 1.4219-1.9306 1.5769-1.7269z" class="color0682c0 svgShape"></path><path fill="#0f4c86" d="M699.0346,241.5987l-5.24,33.9399-4.18,27.0998-4.28,27.1001-4.52,27.0501-2.26,13.53-2.3699,13.51-.1301-.02,1.9299-13.5801,2.03-13.57,4.0701-27.1199,4.3001-27.0901,4.4199-27.0698,5.56-34.19C698.5946,241.3186,698.8146,241.4585,699.0346,241.5987Z" class="color0f4c86 svgShape"></path><path fill="#121e3c" d="M674.2105 376.5298l-2.6163 10.4941a5.489 5.489 0 012.6163-10.4941zM675.9285 376.9394a5.48766 5.48766 0 01-2.6251 10.5295z" class="color121e3c svgShape"></path><g opacity=".2" fill="#000000" class="color000 svgShape"><path fill="#312c58" d="M681.6893 385.2797a5.49708 5.49708 0 01-5.8455 4.1359l2.6273-10.5345a5.06844 5.06844 0 011.0183.5783l1.0308-7.2912 1.936-12.9358h.8045l-2.1748 13.0237-1.2948 7.4294A5.49114 5.49114 0 01681.6893 385.2797zM671.0289 382.6181a5.49617 5.49617 0 003.1044 6.3476l2.6163-10.4943A5.48747 5.48747 0 00671.0289 382.6181z" class="color312c58 svgShape"></path></g><path fill="#0f4c86" d="M310.5846,383.8086l-.1201.02-2.3699-13.51-2.26-13.53-4.52-27.0501-4.29-27.1001-4.18-27.0998-1.3601-8.8101c.28-.1999.5701-.3899.8601-.5798l1.5,9.23,4.4099,27.0698,4.3001,27.0901,4.07,27.1199,2.0301,13.57Z" class="color0f4c86 svgShape"></path><path fill="#121e3c" d="M308.8487 377.2767l2.6162 10.4941a5.48893 5.48893 0 00-2.6162-10.4941zM307.1307 377.6861a5.48776 5.48776 0 002.6251 10.5297z" class="color121e3c svgShape"></path><g opacity=".2" fill="#000000" class="color000 svgShape"><path fill="#312c58" d="M304.9544 385.2797a5.49737 5.49737 0 005.8457 4.1359l-2.6275-10.5345a5.07318 5.07318 0 00-1.0182.5783l-1.0307-7.2912-1.9361-12.9358h-.8046l2.175 13.0237 1.2947 7.4294A5.49139 5.49139 0 00304.9544 385.2797zM315.6149 382.6181a5.496 5.496 0 01-3.1045 6.3476l-2.6162-10.4943A5.48747 5.48747 0 01315.6149 382.6181z" class="color312c58 svgShape"></path></g><path fill="#ffc103" d="M465.3751 577.2364s9.4096 26.4366 27.3329 26.8848c17.9231.448 25.0924-15.2347 26.4366-29.1251C520.4888 561.1055 465.3751 577.2364 465.3751 577.2364zM439.716 526.2035c0 .0192-.0096.0767-.0191.1723l-.0288.0864A.99446.99446 0 01439.716 526.2035z" class="colorffc103 svgShape"></path><path fill="#ffc103" d="M552.1382,532.8701c-8.7834,2.0116-11.8964,3.8314-20.0285,6.3697-24.6741,7.7105-65.325,15.1722-91.5029,3.6397-2.6054-1.1398-1.0824-14.7891-.9099-16.5037.0382-.1052.067-.2202.1053-.3254.3065-.9195.6513-1.8198,1.0345-2.7109,14.722-34.8369,82.4226-45.5263,106.5411-1.6186.4981.9099.977,1.839,1.4368,2.7968A63.49865,63.49865,0,0,1,552.1382,532.8701Z" class="colorffc103 svgShape"></path><path fill="#eaae07" d="M492.0012,512.0551c-13.4972,1.8951-17.5252-11.0874-18.1861-13.6607a76.21271,76.21271,0,0,1,18.7276-3.3274,140.82423,140.82423,0,0,1,15.4672.4607C508.5026,499.064,506.4931,510.0083,492.0012,512.0551Z" class="coloreaae07 svgShape"></path><path fill="#ed1c24" d="M404.4189,543.6596c-.0523.0187-.142-.0839-.1285-.1188a.35933.35933,0,0,1,.023-.1072l.0704-.1011a1.44778,1.44778,0,0,1,.1506-.1649c.1001-.1089.2102-.1926.3158-.2888.2128-.1882.4373-.3536.6561-.532.4475-.3365.8958-.674,1.3574-.9885.9172-.6402,1.8467-1.2602,2.7807-1.8722,1.8676-1.2253,3.7494-2.4271,5.6585-3.582,3.8029-2.3289,7.6577-4.5985,11.4773-6.8704,7.626-4.5494,14.9863-9.5491,22.3265-14.5829,7.3597-5.0081,14.6786-10.1007,21.8633-15.3797l5.3875-3.9655c.9011-.6595,1.8-1.3193,2.7226-1.9573.4761-.3083.9079-.6435,1.421-.9298.2568-.14.5131-.2921.7722-.4197l.7856-.3075a31.86061,31.86061,0,0,1,13.2872-2.1293,24.81818,24.81818,0,0,1,12.7333,4.5931c3.6794,2.5225,7.3489,5.0377,11.0498,7.5023a220.01331,220.01331,0,0,0,22.9054,13.5104,85.20894,85.20894,0,0,0,12.1986,5.0203,59.52194,59.52194,0,0,0,6.3992,1.5681c1.1108.2386,2.2301.439,3.3112.7858,1.0913.3081,2.1827.6122,3.238,1.0233a59.89175,59.89175,0,0,1,22.3504,14.6693l-.1378.133a67.91206,67.91206,0,0,0-10.6966-7.8874,59.04559,59.04559,0,0,0-11.9986-5.4969c-1.0338-.373-2.0978-.6383-3.1593-.9087-1.0526-.3092-2.1361-.4717-3.2095-.674a61.72221,61.72221,0,0,1-6.6202-1.4421,80.38289,80.38289,0,0,1-12.5779-4.9576,189.61866,189.61866,0,0,1-23.0104-13.8494c-3.694-2.5149-7.3097-5.1391-10.9164-7.753a24.183,24.183,0,0,0-11.9512-4.7916,29.28846,29.28846,0,0,0-12.9605,1.7157l-.7748.2923c-.2402.1168-.4642.2503-.6982.3732-.4641.2493-.9233.5921-1.3856.8835-.9179.6184-1.8243,1.2665-2.7297,1.9119-1.8091,1.2979-3.5788,2.6522-5.3641,3.9858l-10.6078,8.1504c-3.5466,2.7058-7.096,5.4115-10.7091,8.0349a239.49942,239.49942,0,0,1-22.5015,14.5649c-3.8901,2.204-7.8327,4.2581-11.7129,6.4519l-5.8247,3.2696c-.9662.5524-1.9279,1.1125-2.876,1.6919l-1.4149.8793c-.2264.1565-.4641.3038-.6826.4684-.1076.0831-.2265.1602-.3223.2502a1.31268,1.31268,0,0,0-.1428.1317l-.0565.0646s.0026-.0052-.0051-.0066c.0087-.0064-.0469-.0709-.0661-.0524Z" class="colored1c24 svgShape"></path><path fill="#312c58" d="M548.8146,524.3645c-1.523-.6742-3.0269-1.3804-4.5116-2.1073a200.72771,200.72771,0,0,1-24.6549-15.2353c-3.9654-2.7606-7.8351-5.6472-11.7048-8.5236a25.45349,25.45349,0,0,0-12.8063-5.2682,30.58367,30.58367,0,0,0-13.8888,1.8858l-.8334.3162c-.2586.1369-.4981.2739-.7471.411-.4981.2737-.9866.6531-1.4846.9798-.9866.6742-1.9541,1.3909-2.931,2.0968-1.9349,1.4327-3.8314,2.9185-5.7471,4.3829l-11.3696,8.9663c-3.8027,2.9819-7.6054,5.9528-11.475,8.84-2.2605,1.6751-4.5499,3.3293-6.8582,4.9415.3065-1.0115.6513-2.0019,1.0345-2.9819,1.6188-1.1271,3.2279-2.2652,4.8371-3.3926,7.8927-5.5104,15.7374-11.1157,23.4385-16.9212l5.7662-4.3619c.9675-.727,1.9348-1.4435,2.9214-2.1494.5076-.3373.977-.7059,1.523-1.022.2777-.1582.5555-.3267.8238-.4638l.8429-.337a33.35016,33.35016,0,0,1,14.243-2.339,26.158,26.158,0,0,1,13.6493,5.0467c3.9464,2.7817,7.8736,5.5422,11.839,8.2499a234.00841,234.00841,0,0,0,24.5496,14.8667c.6992.3583,1.3984.7059,2.1073,1.043C547.8759,522.2888,548.3548,523.3109,548.8146,524.3645Z" opacity=".2" class="color312c58 svgShape"></path><path fill="#eaae07" d="M512.9945,507.3972c-5.8066,5.6909-12.9108,10.3179-21.1806,11.1848-6.8628.7193-15.6401-2.0001-18.8118-8.6589-.1176-.2472-.2173.9147-.1194,1.1633,2.6301,6.6747,11.7602,9.44,18.269,8.9017,8.2668-.6838,16.5768-5.4014,21.9197-11.6842a1.31691,1.31691,0,0,0-.0769-.9067Z" class="coloreaae07 svgShape"></path><path fill="#d0876a" d="M508.0162,454.2642s2.8325,1.9103,2.1078,3.3595c-.7245,1.449-1.5807,3.1617-1.5807,3.1617s.9879-2.3055.7245-3.491C509.0044,456.1087,507.2917,454.9228,508.0162,454.2642Z" class="colord0876a svgShape"></path><path fill="#e9aa8e" d="M481.2674,498.5472l2.3656-14.8176,14.7375-1.0693,4.6606,14.6348s-1.6081,9.1689-11.0975,9.1689C483.3983,506.464,481.3031,499.9186,481.2674,498.5472Z" class="colore9aa8e svgShape"></path><path fill="#d0876a" d="M482.9529,488.5822s6.0272,9.2875,9.4854,5.8293a16.83194,16.83194,0,0,1,8.2007-4.2486l-1.8773-6.1257Z" opacity=".55" class="colord0876a svgShape"></path><path fill="#121e3c" d="M466.7235,444.5767c1.0168-6.6978,50.6461-19.9535,47.2931,9.152-1.8276,15.8633-7.6625,17.0017-7.6625,17.0017l-34.4648-2.6621S464.028,462.329,466.7235,444.5767Z" class="color121e3c svgShape"></path><path fill="#e9aa8e" d="M507.8186,464.013c-1.4414,5.3887-1.268,21.7329-16.5694,26.0794-15.3237,4.3688-19.426-24.9923-19.2928-26.9658a9.35568,9.35568,0,0,1,.2437-1.6632c1.9738-8.7596,14.7692-6.2536,23.8837-6.276.3324,0,.6653-.0222.9755-.0222,9.669-.266,9.5738-2.0864,9.5738-2.0864s2.9429-2.8807,4.9896,1.6631C514.645,461.4526,507.8186,464.013,507.8186,464.013Z" class="colore9aa8e svgShape"></path><path fill="#d0876a" d="M503.3067,463.4859s-10.1723-3.065-16.6923-5.0386c-6.5198-1.9735-13.4384,2.772-13.4384,2.772a5.643,5.643,0,0,1-.9759.2441c.922-10.1304,19.9667-6.8477,29.081-6.8698A60.62943,60.62943,0,0,1,503.3067,463.4859Z" opacity=".55" class="colord0876a svgShape"></path><path fill="#121e3c" d="M500.639,451.926s2.5706,19.0467,3.4144,13.4899c.844-5.5569,5.3827-11.6715,2.9089-14.3792C505.8855,449.8581,500.639,451.926,500.639,451.926Z" class="color121e3c svgShape"></path><path fill="#312c58" d="M467.4408,460.0608s4.2157-12.7787,27.665-8.1679C495.1058,451.8929,469.1535,436.3479,467.4408,460.0608Z" opacity=".5" class="color312c58 svgShape"></path><path fill="#feaa32" d="M513.6225,447.3431a24.64937,24.64937,0,0,0-15.5452-4.2156c-11.8829.7897-27.6348,7.0311-30.2998,6.5869-4.7426-.7904-1.0534-20.0628,11.4612-23.7128C507.6942,417.7021,517.9698,438.2532,513.6225,447.3431Z" class="colorfeaa32 svgShape"></path><path fill="#ea9024" d="M499.1312,442.9957s-26.4794-3.0629-33.198-.2963-15.677,7.015,1.8443,7.015A79.31456,79.31456,0,0,0,499.1312,442.9957Z" class="colorea9024 svgShape"></path><path fill="#d88225" d="M489.9754,443.984s-21.21,4.5449-25.0302,3.425c-3.8205-1.1196,3.1616-4.0839,3.1616-4.0839Z" class="colord88225 svgShape"></path><path fill="#d88225" d="M499.3947,425.2112s-14.3594,6.0599-12.5153,16.3356l-13.569-.5271s2.9886-11.9822,10.7531-15.1169A23.97232,23.97232,0,0,1,499.3947,425.2112Z" opacity=".5" class="colord88225 svgShape"></path><path fill="url(#i)" d="M607.5544,572.2122a3.73544,3.73544,0,0,1-3.4948,3.9472l-210.3648,12.546a3.72958,3.72958,0,0,1-3.9473-3.5075l-2.6902-45.0671a3.72965,3.72965,0,0,1,3.5073-3.9476l9.3655-.553,200.9868-11.993a3.72788,3.72788,0,0,1,3.9473,3.4949l2.3256,39.0081Z"></path><path fill="url(#e)" style="mix-blend-mode:multiply" d="M604.8642,527.1321l2.3256,39.0081c-18.817-1.45-9.4074-16.9087-36.7401-24.5261-94.3885-26.305-183.8827,27.0781-170.5196-5.9839l200.9868-11.993A3.72788,3.72788,0,0,1,604.8642,527.1321Z" opacity=".2"></path><path fill="#121e3c" d="M406.4721 545.376l-5.8478 3.4048a3.43428 3.43428 0 015.8478-3.4048zM407.0378 546.3253a3.43338 3.43338 0 01-5.8674 3.4162zM593.0741 540.5266l-6.385-2.2402a3.43413 3.43413 0 016.385 2.2402zM592.7192 541.573a3.43333 3.43333 0 01-6.4066-2.2477z" class="color121e3c svgShape"></path><path fill="#d3989e" d="M605.5086,533.4955a16.46541,16.46541,0,0,0-1.3983,6.9161c.2542,3.3042-2.6685,6.6084-2.6685,6.6084l-6.5789,8.2681s-.0287,6.0925,4.0376,7.9987a25.88136,25.88136,0,0,0,8.3866,2.1604Z" opacity=".3" class="colord3989e svgShape"></path><path fill="#e9aa8e" d="M607.0057,563.2733s-11.1448-.9982-12.1428-7.9852,11.3111-11.9777,11.3111-11.9777l-.6654-9.8149s3.6594-3.3272,3.9922,2.3289c.3326,5.6561,3.6594,9.9813,3.8257,13.6413.1664,3.6598,1.4971,12.3103-.998,13.1421A16.30253,16.30253,0,0,1,607.0057,563.2733Z" class="colore9aa8e svgShape"></path><path fill="#d3989e" d="M598.1476 552.2702q3.72945-.224 7.4462-.6143c.197-.0206.1262-1.119-.0271-1.1028q-3.716.39015-7.4463.6141c-.1848.011-.1405 1.113.0272 1.103zM599.1006 558.4654q3.7296-.2238 7.4462-.614c.197-.0208.1262-1.119-.0271-1.103q-3.71595.39015-7.4461.6142c-.185.011-.1407 1.1129.027 1.1028zM598.1476 555.2393q4.754-.32415 9.4866-.8886c.2007-.0239.1217-1.1206-.0271-1.1029q-4.7313.56415-9.4867.8885c-.187.0129-.138 1.1143.0272 1.103z" class="colord3989e svgShape"></path><path fill="#d3989e" d="M387.5234,549.2731a16.4664,16.4664,0,0,1,2.1145,6.7317c.093,3.3127,3.3455,6.2928,3.3455,6.2928l7.4082,7.534s.6663,6.0559-3.1781,8.3774a25.88051,25.88051,0,0,1-8.1145,3.0265Z" opacity=".3" class="colord3989e svgShape"></path><path fill="#e9aa8e" d="M389.1513,579.044s10.9791-2.1594,11.2403-9.2124-12.5026-10.7278-12.5026-10.7278l-.3656-9.8307s-3.9876-2.9257-3.7264,2.7341-2.5947,10.3097-2.3771,13.9668-.2002,12.3994,2.3682,12.9655A16.30464,16.30464,0,0,0,389.1513,579.044Z" class="colore9aa8e svgShape"></path><path fill="#d3989e" d="M396.8091 567.1741q-3.73245.16755-7.4696.1687c-.1982 0-.2428-1.0997-.0885-1.0997q3.7362-.00105 7.4696-.1689c.1849-.0083.2563 1.0922.0885 1.0999zM396.5098 573.4351q-3.7326.1677-7.4697.1688c-.1981 0-.2427-1.0997-.0885-1.0998q3.73635-.0009 7.4695-.1687c.1851-.0083.2565 1.0922.0887 1.0997zM397.1198 570.1269q-4.7616.17535-9.5275.1095c-.2021-.0029-.2383-1.1019-.0886-1.0998q4.76445.0657 9.5276-.1094c.1875-.0069.254 1.0937.0885 1.0997z" class="colord3989e svgShape"></path><path fill="#0682c0" d="M428.5981 561.1058a6.7597 6.7597 0 01-.2828 2.5066 5.881 5.881 0 01-1.1245 2.0554 5.672 5.672 0 01-1.858 1.4285 7.03311 7.03311 0 01-5.0361.3311 5.7114 5.7114 0 01-2.0376-1.1724 5.85419 5.85419 0 01-1.3878-1.8902 7.12442 7.12442 0 01-.3257-4.9556 5.85294 5.85294 0 011.1284-2.0558 5.72492 5.72492 0 011.8665-1.4289 6.60757 6.60757 0 012.4896-.632 6.518 6.518 0 012.5468.3059 5.77 5.77 0 012.029 1.1718 5.83512 5.83512 0 011.3835 1.8866A6.76163 6.76163 0 01428.5981 561.1058zm-2.3222.1527a5.6792 5.6792 0 00-.3833-1.7796 3.81254 3.81254 0 00-.8502-1.3006 3.28862 3.28862 0 00-1.2634-.77 4.52169 4.52169 0 00-3.2102.211 3.31443 3.31443 0 00-1.1598.9294 3.80906 3.80906 0 00-.6811 1.4013 6.13248 6.13248 0 00.2362 3.5929 3.76621 3.76621 0 00.8585 1.2961 3.33843 3.33843 0 001.2712.7655 4.53689 4.53689 0 003.2102-.2111 3.31241 3.31241 0 001.152-.9247 3.767 3.767 0 00.6728-1.3968A5.67978 5.67978 0 00426.2759 561.2585zM433.7729 558.0696a4.75043 4.75043 0 011.7749.1958 3.78616 3.78616 0 011.4002.7953 3.92343 3.92343 0 01.9503 1.3402 5.7992 5.7992 0 01.2428 3.6939 4.00735 4.00735 0 01-.766 1.4623 3.74038 3.74038 0 01-1.2836.9796 5.12241 5.12241 0 01-3.5127.231 3.7768 3.7768 0 01-1.4094-.8027 4.02741 4.02741 0 01-.9589-1.3488 5.719 5.719 0 01-.2428-3.6939 3.93924 3.93924 0 01.7747-1.4537 3.82553 3.82553 0 011.2925-.9722A4.78118 4.78118 0 01433.7729 558.0696zm.4796 7.2947a1.83229 1.83229 0 001.5472-.8281 3.63832 3.63832 0 00.3779-2.1541 3.68028 3.68028 0 00-.6572-2.0951 1.82366 1.82366 0 00-1.643-.6275 1.8499 1.8499 0 00-1.5669.8425 3.66116 3.66116 0 00-.382 2.1594 3.61706 3.61706 0 00.6608 2.0818A1.85675 1.85675 0 00434.2525 565.3643zM440.4161 569.2689l-.7529-11.4519 1.2707-.0836a.62187.62187 0 01.3514.0704.43814.43814 0 01.2039.274l.2206.7884a4.34932 4.34932 0 011.1354-1.0464 3.26043 3.26043 0 011.5621-.4744 2.83838 2.83838 0 011.3104.2091 2.90476 2.90476 0 011.0663.7881 4.10548 4.10548 0 01.747 1.3366 6.95829 6.95829 0 01.3547 1.8648 5.94446 5.94446 0 01-.1428 1.8101 4.38816 4.38816 0 01-.6508 1.4786 3.45826 3.45826 0 01-1.1074 1.0244 3.4109 3.4109 0 01-1.5129.4412 3.0871 3.0871 0 01-1.2558-.1416 3.01761 3.01761 0 01-.9536-.5583l.2323 3.5339zm3.3836-10.2366a2.12921 2.12921 0 00-1.0885.3468 3.21145 3.21145 0 00-.8034.8256l.2544 3.871a1.98063 1.98063 0 00.8101.5596 2.32019 2.32019 0 00.9073.1132 2.01141 2.01141 0 00.8422-.2332 1.65814 1.65814 0 00.613-.5809 2.67232 2.67232 0 00.3477-.9393 5.22415 5.22415 0 00.0576-1.3101 5.77474 5.77474 0 00-.2064-1.2746 2.48521 2.48521 0 00-.4053-.8315 1.38612 1.38612 0 00-.5823-.443A1.72193 1.72193 0 00443.7997 559.0323zM454.4154 558.5372a.56208.56208 0 01-.1646.2018.46159.46159 0 01-.232.0695.7451.7451 0 01-.3293-.0627q-.1779-.07275-.412-.1628a3.67191 3.67191 0 00-.5303-.1551 2.47935 2.47935 0 00-.6908-.039 1.60828 1.60828 0 00-.951.3238.81107.81107 0 00-.3083.7045.648.648 0 00.2118.4553 1.62248 1.62248 0 00.5011.3007 4.66769 4.66769 0 00.6943.2126c.2575.0595.5212.1246.7907.1973s.5344.1577.7941.2563a2.71381 2.71381 0 01.706.3927 2.04889 2.04889 0 01.5216.6038 2.02359 2.02359 0 01.2397.8805 2.87087 2.87087 0 01-.1521 1.1635 2.52678 2.52678 0 01-.6046.9522 3.1288 3.1288 0 01-1.0422.6684 4.6778 4.6778 0 01-1.4627.3123 4.74817 4.74817 0 01-.8762-.0229 5.24985 5.24985 0 01-.8306-.1695 4.49808 4.49808 0 01-.746-.2895 3.56017 3.56017 0 01-.6125-.3818l.4278-.8229a.66863.66863 0 01.2048-.2326.60747.60747 0 01.3146-.097.68139.68139 0 01.3729.085c.1198.0655.2586.1357.4152.2098a3.49632 3.49632 0 00.5497.2 2.35291 2.35291 0 00.7856.059 2.0233 2.0233 0 00.6296-.1309 1.36169 1.36169 0 00.4225-.2599.87071.87071 0 00.2303-.3488.99625.99625 0 00.0543-.3964.69858.69858 0 00-.2132-.4843 1.6067 1.6067 0 00-.502-.3058 4.616 4.616 0 00-.6987-.2113q-.39015-.0888-.7986-.1966a7.187 7.187 0 01-.8033-.2647 2.6476 2.6476 0 01-.7119-.4135 2.07932 2.07932 0 01-.5241-.6498 2.37693 2.37693 0 01-.2453-.9646 2.48684 2.48684 0 01.1442-1.0234 2.36732 2.36732 0 01.5633-.8781 3.085 3.085 0 01.9805-.6392 4.25324 4.25324 0 011.3951-.3068 4.329 4.329 0 011.6437.1875 3.67182 3.67182 0 011.271.6941zM457.6742 564.1541a1.29813 1.29813 0 01.0644-.5026 1.19265 1.19265 0 01.2426-.4219 1.344 1.344 0 01.3904-.296 1.27854 1.27854 0 01.4981-.1343 1.25967 1.25967 0 01.503.0685 1.23593 1.23593 0 01.7175.6291 1.28344 1.28344 0 01.0657.9975 1.29442 1.29442 0 01-.2429.4169 1.22478 1.22478 0 01-.3868.2918 1.30919 1.30919 0 01-.4899.1296 1.32784 1.32784 0 01-.5112-.0639 1.26542 1.26542 0 01-.4256-.2382 1.19935 1.19935 0 01-.2953-.3816A1.28832 1.28832 0 01457.6742 564.1541zm1.5559-11.1725l.3166 4.8134a14.7474 14.7474 0 01.0226 1.5068c-.0182.4946-.0512 1.0183-.0989 1.574l-1.4054.0924q-.1809-.81705-.3047-1.5475a14.72426 14.72426 0 01-.1742-1.4968l-.3164-4.8135zM468.5916 560.2842l.2816 4.2833-2.2637.1487-.7999-12.1672 3.963-.2606a6.98282 6.98282 0 012.131.1473 4.07924 4.07924 0 011.5252.7026 3.13737 3.13737 0 01.9387 1.1721 4.58968 4.58968 0 01.193 3.1858 3.37218 3.37218 0 01-.8003 1.3248 4.12272 4.12272 0 01-1.4185.9212 6.5817 6.5817 0 01-2.0508.4303zm-.1162-1.767l1.6994-.1116a3.44293 3.44293 0 001.0753-.2265 2.0297 2.0297 0 00.7365-.4966 1.83947 1.83947 0 00.4079-.7371 2.70688 2.70688 0 00.0903-.9395 2.45853 2.45853 0 00-.2095-.8736 1.76081 1.76081 0 00-.4986-.6435 2.02622 2.02622 0 00-.7937-.3738 3.60347 3.60347 0 00-1.0953-.0767l-1.6994.1117zM483.2786 563.6204l-.934.0613a1.00836 1.00836 0 01-.469-.0576.57007.57007 0 01-.2757-.3415l-.2255-.6022a7.13349 7.13349 0 01-.6097.5606 3.94248 3.94248 0 01-.6278.4171 3.35889 3.35889 0 01-.6999.2741 4.3504 4.3504 0 01-.8364.1313 3.329 3.329 0 01-1.0198-.0816 2.17158 2.17158 0 01-.824-.391 2.024 2.024 0 01-.5661-.7003 2.62748 2.62748 0 01-.2522-1.0093 2.02013 2.02013 0 01.1931-.9835 2.42056 2.42056 0 01.7978-.9175 5.46356 5.46356 0 011.5483-.742 10.16874 10.16874 0 012.4486-.4152l-.0334-.5093a1.93145 1.93145 0 00-.4512-1.2685 1.33768 1.33768 0 00-1.0917-.3502 2.5919 2.5919 0 00-.8337.1733 3.28075 3.28075 0 00-.5673.3036c-.1592.1089-.3064.2081-.4413.2953a.929.929 0 01-.455.1485.60384.60384 0 01-.3694-.0863.84975.84975 0 01-.2613-.2532l-.4224-.6393a5.14515 5.14515 0 013.5033-1.5989 3.47133 3.47133 0 011.367.1592 2.88185 2.88185 0 011.0508.6233 2.9724 2.9724 0 01.6963 1.0154 4.06211 4.06211 0 01.3031 1.3315zm-4.1243-1.0301a2.79094 2.79094 0 00.5851-.0968 2.3 2.3 0 00.4978-.2076 2.697 2.697 0 00.4439-.3155 4.41114 4.41114 0 00.4239-.4318l-.0951-1.4448a8.47762 8.47762 0 00-1.5113.2139 4.04587 4.04587 0 00-.9613.3566 1.26688 1.26688 0 00-.4984.4498.92491.92491 0 00-.1216.5274.914.914 0 00.376.7671A1.39972 1.39972 0 00479.1543 562.5903zM487.7327 554.505a4.64369 4.64369 0 011.0509.0444 3.57168 3.57168 0 01.914.2746l2.4821-.1632.0509.7734a.42994.42994 0 01-.081.3097.60166.60166 0 01-.3353.1749l-.7645.194a2.67838 2.67838 0 01.161.4535 2.80159 2.80159 0 01.0798.5103 2.54977 2.54977 0 01-.8297 2.0994 3.2958 3.2958 0 01-1.0317.6305 4.41682 4.41682 0 01-1.3292.2854 4.89869 4.89869 0 01-.9566-.0295.68158.68158 0 00-.368.5768.40817.40817 0 00.2655.3704 1.92617 1.92617 0 00.6423.1316 6.92738 6.92738 0 00.8913-.0073q.4959-.03255 1.0207-.025a8.23379 8.23379 0 011.0277.0812 2.98037 2.98037 0 01.9099.2748 1.78124 1.78124 0 01.6717.5798 1.90964 1.90964 0 01.3065.9927 2.38609 2.38609 0 01-.209 1.1332 2.99876 2.99876 0 01-.7526 1.0151 4.26754 4.26754 0 01-1.264.7665 5.6198 5.6198 0 01-1.75.3732 6.82335 6.82335 0 01-1.7208-.0768 4.00132 4.00132 0 01-1.2323-.4264 2.19677 2.19677 0 01-.7587-.6806 1.7126 1.7126 0 01-.2921-.8429 1.4725 1.4725 0 01.3032-1.0429 2.55959 2.55959 0 01.9834-.7239 1.42308 1.42308 0 01-.5442-.4374 1.37352 1.37352 0 01-.244-.7528 1.27789 1.27789 0 01.0414-.4035 1.58431 1.58431 0 01.1792-.4218 2.01859 2.01859 0 01.324-.4061 2.44578 2.44578 0 01.4754-.3569 2.72044 2.72044 0 01-1.0929-.8747 2.52051 2.52051 0 01-.465-1.3551 2.5679 2.5679 0 01.1806-1.1735 2.5964 2.5964 0 01.6569-.9305 3.27161 3.27161 0 011.0487-.6316A4.6239 4.6239 0 01487.7327 554.505zm2.8819 8.9968a.59345.59345 0 00-.1791-.4103.99467.99467 0 00-.4289-.227 3.04216 3.04216 0 00-.6192-.0929 6.22149 6.22149 0 00-.7432.0056q-.3909.02565-.8078.0532a3.49227 3.49227 0 01-.8094-.0392 1.87334 1.87334 0 00-.5377.4955.944.944 0 00-.1745.6244.83354.83354 0 00.1414.4168.94615.94615 0 00.3841.3174 2.15924 2.15924 0 00.6585.1807 5.00291 5.00291 0 00.9728.0165 4.85824 4.85824 0 00.9955-.1559 2.37136 2.37136 0 00.6775-.2948 1.05914 1.05914 0 00.3749-.4045A.94313.94313 0 00490.6146 563.5018zm-2.6021-4.7395a1.95754 1.95754 0 00.6666-.1494 1.31337 1.31337 0 00.456-.3214 1.19126 1.19126 0 00.2569-.465 1.62953 1.62953 0 00.0594-.5777 1.3585 1.3585 0 00-.4498-.9893 1.95411 1.95411 0 00-2.2972.151 1.3582 1.3582 0 00-.316 1.0397 1.59873 1.59873 0 00.1341.5569 1.22888 1.22888 0 00.3153.4314 1.29191 1.29191 0 00.499.2627A1.97016 1.97016 0 00488.0125 558.7623zM497.0231 553.9113a4.21915 4.21915 0 011.5189.1614 3.298 3.298 0 011.2327.6847 3.48694 3.48694 0 01.8546 1.1767 4.65107 4.65107 0 01.3869 1.6436 3.0011 3.0011 0 01.0047.3926.63.63 0 01-.0595.2491.31451.31451 0 01-.1392.1368.63544.63544 0 01-.2332.0524l-5.3348.3508a2.97861 2.97861 0 00.8438 1.905 2.23468 2.23468 0 001.6903.5149 2.84526 2.84526 0 00.8632-.1754 3.99451 3.99451 0 00.6221-.3032q.26385-.1605.4627-.2916a.80044.80044 0 01.3919-.1443.45642.45642 0 01.222.0357.5.5 0 01.1695.1325l.6555.7175a3.47426 3.47426 0 01-.7298.7283 4.34994 4.34994 0 01-.8672.4971 4.93807 4.93807 0 01-.9358.2937 6.82044 6.82044 0 01-.9335.1286 4.61947 4.61947 0 01-1.694-.1881 3.76764 3.76764 0 01-1.4048-.7948 4.15814 4.15814 0 01-.9951-1.3886 5.60347 5.60347 0 01-.4596-1.9765 4.77809 4.77809 0 01.1768-1.6806 4.00233 4.00233 0 01.7309-1.4087 3.87168 3.87168 0 011.2447-.9992A4.307 4.307 0 01497.0231 553.9113zm.1399 1.486a1.92645 1.92645 0 00-1.3886.6067 2.5392 2.5392 0 00-.5605 1.499l3.9045-.2567a2.59218 2.59218 0 00-.1596-.7543 1.76473 1.76473 0 00-.3774-.6041 1.598 1.598 0 00-.6002-.3876A1.94775 1.94775 0 00497.163 555.3973zM506.2744 562.1086l-.5675-8.6335 1.2707-.0836a.51148.51148 0 01.5551.3443l.1879.6719a4.82349 4.82349 0 01.5187-.5244 3.79555 3.79555 0 01.5895-.4185 3.10484 3.10484 0 01.6783-.2899 3.65569 3.65569 0 01.8024-.1371 3.11421 3.11421 0 011.2693.1567 2.494 2.494 0 01.9573.6134 2.96286 2.96286 0 01.6233.999 4.40675 4.40675 0 01.2762 1.3122l.3613 5.4949-2.0782.1365-.3611-5.4948a1.844 1.844 0 00-.4467-1.1995 1.35937 1.35937 0 00-1.1266-.3621 2.17524 2.17524 0 00-.9935.3105 3.61455 3.61455 0 00-.8482.724l.4105 6.2433zM518.9504 552.4697a4.75019 4.75019 0 011.7749.1958 3.785 3.785 0 011.4003.7953 3.92709 3.92709 0 01.9503 1.3402 5.80113 5.80113 0 01.2428 3.694 4.00733 4.00733 0 01-.7661 1.4621 3.73808 3.73808 0 01-1.2835.9797 5.12349 5.12349 0 01-3.5128.2309 3.77659 3.77659 0 01-1.4094-.8026 4.02577 4.02577 0 01-.9588-1.3488 5.71819 5.71819 0 01-.2429-3.6939 3.9415 3.9415 0 01.7747-1.4537 3.82424 3.82424 0 011.2925-.9722A4.78574 4.78574 0 01518.9504 552.4697zm.4796 7.2947a1.83186 1.83186 0 001.5472-.8282 3.63688 3.63688 0 00.3779-2.154 3.68054 3.68054 0 00-.6572-2.0951 1.82362 1.82362 0 00-1.6429-.6276 1.85036 1.85036 0 00-1.567.8427 3.66065 3.66065 0 00-.382 2.1593 3.6178 3.6178 0 00.6608 2.0818A1.857 1.857 0 00519.43 559.7644zM528.2533 560.7991a2.27774 2.27774 0 01-1.7673-.5218 2.44644 2.44644 0 01-.7211-1.7151l-.317-4.8215-.875.0576a.39909.39909 0 01-.441-.4102l-.0541-.8244 1.3732-.3184.2829-2.385a.41843.41843 0 01.1384-.2713.49226.49226 0 01.3011-.1123l1.0771-.0707.1786 2.7173 2.2717-.1493.0973 1.4807-2.2716.1494.3075 4.6784a.91961.91961 0 00.2436.618.68761.68761 0 00.5533.1917.97431.97431 0 00.3211-.0673 1.77588 1.77588 0 00.2207-.1119c.0624-.0384.1178-.0741.1662-.1085a.29744.29744 0 01.1481-.056.24323.24323 0 01.1546.0361.68448.68448 0 01.1353.1308l.6891.9686a3.13833 3.13833 0 01-1.0059.6408A3.88368 3.88368 0 01528.2533 560.7991zM542.161 547.5293l.1185 1.801-5.3939.3545.2368 3.6009 4.5523-.2992.119 1.8098-4.5524.2993.3259 4.9556-2.2802.1499-.8-12.1673zM547.1885 550.6133a4.74817 4.74817 0 011.7749.1957 3.785 3.785 0 011.4003.7953 3.925 3.925 0 01.9502 1.3403 5.80012 5.80012 0 01.2429 3.6939 4.00431 4.00431 0 01-.7661 1.4621 3.73685 3.73685 0 01-1.2835.9797 5.12362 5.12362 0 01-3.5129.2309 3.7756 3.7756 0 01-1.4093-.8026 4.02337 4.02337 0 01-.9588-1.3488 5.71819 5.71819 0 01-.2429-3.6939 3.94228 3.94228 0 01.7747-1.4537 3.82553 3.82553 0 011.2925-.9722A4.78367 4.78367 0 01547.1885 550.6133zm.4796 7.2947a1.83249 1.83249 0 001.5473-.8283 3.63848 3.63848 0 00.3778-2.154 3.68129 3.68129 0 00-.6572-2.0951 1.82412 1.82412 0 00-1.6429-.6276 1.85036 1.85036 0 00-1.567.8427 3.66213 3.66213 0 00-.3821 2.1593 3.61851 3.61851 0 00.6609 2.0818A1.85675 1.85675 0 00547.6681 557.908zM554.9809 550.2355l.3607 5.4869a1.8439 1.8439 0 00.4461 1.1996 1.35922 1.35922 0 001.1265.361 2.19642 2.19642 0 00.9944-.3055 3.55318 3.55318 0 00.8486-.7189l-.4106-6.2443 2.0781-.1367.5676 8.6336-1.2707.0835a.51127.51127 0 01-.5546-.3433l-.1885-.681a6.19476 6.19476 0 01-.5229.5287 3.30025 3.30025 0 01-.5855.4184 3.4254 3.4254 0 01-.6823.29 3.48635 3.48635 0 01-.7975.1418 3.066 3.066 0 01-1.2654-.1579 2.51752 2.51752 0 01-.9576-.6173 2.97954 2.97954 0 01-.6282-1.0027 4.41883 4.41883 0 01-.2761-1.3123l-.3607-5.4869zM563.2135 558.3651l-.5677-8.6334 1.2707-.0836a.51188.51188 0 01.5552.3443l.1878.6721a4.8066 4.8066 0 01.5187-.5245 3.79618 3.79618 0 01.5895-.4186 3.10459 3.10459 0 01.6783-.2898 3.6439 3.6439 0 01.8024-.1371 3.11425 3.11425 0 011.2693.1566 2.495 2.495 0 01.9573.6133 2.968 2.968 0 01.6234.9991 4.41434 4.41434 0 01.2762 1.3123l.3612 5.4948-2.078.1366-.3613-5.4948a1.8444 1.8444 0 00-.4467-1.1997 1.35933 1.35933 0 00-1.1266-.362 2.176 2.176 0 00-.9935.3105 3.62107 3.62107 0 00-.8482.7241l.4105 6.2432zM578.856 557.3367a.51146.51146 0 01-.5547-.3433l-.2234-.8224a5.179 5.179 0 01-.5277.5844 3.597 3.597 0 01-.6077.462 3.286 3.286 0 01-.7139.3212 3.49453 3.49453 0 01-.8391.1526 2.81369 2.81369 0 01-2.3853-.9968 4.09711 4.09711 0 01-.7472-1.3404 6.997 6.997 0 01-.3555-1.8698 5.90959 5.90959 0 01.1433-1.8011 4.36767 4.36767 0 01.6548-1.48 3.51545 3.51545 0 011.1074-1.0233 3.38609 3.38609 0 011.5094-.441 3.0065 3.0065 0 011.2519.1499 3.24957 3.24957 0 01.9581.558l-.2998-4.5604 2.078-.1366.822 12.5035zm-2.868-1.3408a2.13457 2.13457 0 001.0844-.3416 3.30421 3.30421 0 00.808-.8228l-.2544-3.87a2.05475 2.05475 0 00-.8098-.5558 2.27737 2.27737 0 00-.908-.1171 2.01321 2.01321 0 00-.8424.2323 1.67863 1.67863 0 00-.6127.5769 2.63105 2.63105 0 00-.3484.9363 5.21553 5.21553 0 00-.0577 1.309 5.76682 5.76682 0 00.2064 1.2746 2.51486 2.51486 0 00.4057.8356 1.332 1.332 0 00.5868.4436A1.774 1.774 0 00575.988 555.9959z" class="color0682c0 svgShape"></path><path fill="#312c58" d="M492.708,604.1212s13.8904,6.7211,29.5731-6.7213,24.1962-12.9942,24.1962-12.9942v-4.8169l-28.4529,1.7924S514.6638,604.2332,492.708,604.1212Z" opacity=".2" class="color312c58 svgShape"></path><polygon fill="url(#j)" style="mix-blend-mode:multiply" points="359.671 493.211 354.992 431.791 338.569 553.04 359.671 493.211"></polygon><polygon fill="url(#k)" style="mix-blend-mode:multiply" points="640.425 484.633 649.441 423.428 609.656 534.072 640.425 484.633"></polygon><path fill="#e5adb3" d="M717.5886,703.2014c-4.8107-4.4729-8.9052-9.8653-12.8114-15.1196-.0981-.132-.1974-.2659-.296-.3984-.1541,3.9594-.1068,6.6391-.1068,6.6391s-.7156-5.6672-7.0439-14.3267c-.7533-1.0309-5.5262,1.0455-5.5262,1.0455s-.5794,24.9251,12.5701,31.9534c5.1025,2.7272,9.6519-2.4126,13.3173-9.7064C717.6576,703.2576,717.6224,703.2327,717.5886,703.2014Z" class="colore5adb3 svgShape"></path><path fill="#e5adb3" d="M692.6796,673.3835c2.1619-.6682,3.6753,2.5419,3.6753,2.5419a1.1047,1.1047,0,0,1,1.5133-.5046c.8449.4225-.0283,5.2913-.3345,6.8629-1.1904.7949-2.4274,1.5141-3.6681,2.2269a30.33636,30.33636,0,0,0-4.5523-5.4375C686.8115,676.8882,690.5176,674.0516,692.6796,673.3835Z" class="colore5adb3 svgShape"></path><path fill="#f9c5c7" d="M723.1625,688.0572s3.7413-10.7598,7.52-21.6269c2.4412,1.3521,4.8907,2.6895,7.33,4.037,2.6467,1.4621,5.3354,2.8461,8.0346,4.2087,1.3402.6764,2.7029,1.3167,4.0305,2.0173.2162.114.4401.2303.6633.3472-7.0816,15.386-18.4104,34.2664-28.8415,31.9072-14.1327-3.1965-12.165-30.4932-12.2129-38.3524a28.52827,28.52827,0,0,0,3.3379-.7891Z" class="colorf9c5c7 svgShape"></path><path fill="#e5adb3" d="M749.7289,679.3197s-11.3066,1.5458-16.5947-1.2676c-5.2881-2.8137-9.9717,10.0051-9.9717,10.0051l6.9081-20.8183Z" opacity=".5" class="colore5adb3 svgShape"></path><path fill="#f9c5c7" d="M712.017,661.8866c2.0898.0729,2.4366,3.3343,2.4366,3.3343a1.021,1.021,0,0,1,1.4742.019c.6092.6252-1.6308,4.6102-2.375,5.889-1.2804.3325-2.5785.5849-3.8778.8305a28.03233,28.03233,0,0,0-2.3233-6.1281C705.8311,663.1649,709.927,661.8136,712.017,661.8866Z" class="colorf9c5c7 svgShape"></path><path fill="#6f6eb2" d="M750.0545,679.3984s-17.9412-2.8154-20.6303-13.1667c-2.099-8.0803,15.854-27.0468,22.5289-24.8839C763.6073,645.1242,759.0162,660.0563,750.0545,679.3984Z" class="color6f6eb2 svgShape"></path><polygon fill="#e9aa8e" points="281.85 781.434 282.454 788.508 277.611 788.852 276.343 781.427 281.85 781.434" class="colore9aa8e svgShape"></polygon><path fill="#fad1de" d="M282.1816,785.3434a9.32052,9.32052,0,0,1,.0838,3.277l-4.5043.2268s-1.2426-3.0668-.6792-3.2117C279.3406,785.0551,281.3086,784.6199,282.1816,785.3434Z" class="colorfad1de svgShape"></path><path fill="#312c58" d="M277.909,792.1594c1.1766.9021,15.3878.7963,16.4762-.8281a1.32024,1.32024,0,0,0-.626-2.1813s-.1127-.0187-.3208-.0426c-1.3262-.1977-6.4383-1.0341-8.2151-2.4213-2.0606-1.5922-2.9642-2.5253-2.9846-1.4483-.0118,1.0839-2.4051,3.1878-4.0967,1.9251-.9845-.742-1.3033.7716-1.1581,2.3356l.0008.0077A4.24335,4.24335,0,0,0,277.909,792.1594Z" class="color312c58 svgShape"></path><path fill="#203a6f" d="M288.832,667.0016s8.1195,13.052-6.5752,114.87c-.22,1.5244-5.7304,2.5505-6.0706,1.0485-17.041-75.2387-16.1092-92.3245-12.4465-109.1974S288.832,667.0016,288.832,667.0016Z" class="color203a6f svgShape"></path><polygon fill="#e9aa8e" points="261.205 782.504 260.355 789.552 255.544 788.903 255.815 781.374 261.205 782.504" class="colore9aa8e svgShape"></polygon><path fill="#fad1de" d="M260.7328,786.3982a9.31954,9.31954,0,0,1-.5854,3.2254l-4.456-.6952s-.5921-3.2556-.011-3.2825C258.0099,785.5375,260.0253,785.5122,260.7328,786.3982Z" class="colorfad1de svgShape"></path><path fill="#312c58" d="M255.9195,793.4932c1.1377.9508,15.3406,1.4426,16.4963-.1346a1.32016,1.32016,0,0,0-.5337-2.2056s-.1119-.0235-.3188-.0562c-1.3167-.2532-6.389-1.3037-8.1058-2.7645-1.9919-1.6775-2.8555-2.6476-2.9213-1.5725-.0573,1.0823-2.5368,3.0838-4.1738,1.7511-.9527-.7828-1.3347.7162-1.2554,2.2848l.0005.0078A4.24227,4.24227,0,0,0,255.9195,793.4932Z" class="color312c58 svgShape"></path><path fill="#0f4c86" d="M284.7993,665.6573s11.8366,20.6658-23.2858,117.3573c-.5259,1.4477-6.1298,1.33-6.157-.2098-1.3612-77.1324-2.0743-98.5363,4.9479-114.3097S284.7993,665.6573,284.7993,665.6573Z" class="color0f4c86 svgShape"></path><path fill="#ffb9b0" d="M290.4651,605.3945l2.7338-.7406-.7349-4.7863s4.4321-5.0841,3.3812-7.2921c-1.0507-2.208-2.8231-7.422-3.7639-4.9147-.9407,2.5075-.0077,5.2275-1.4314,6.4148s-2.0952,1.0041-2.0952,1.0041-1.054-4.9182-2.0416-2.5233c-.9878,2.3945-.2042,4.1188-.3928,5.2552-.1883,1.1362,2.5905,3.6835,3.0872,5.196A7.47631,7.47631,0,0,0,290.4651,605.3945Z" class="colorffb9b0 svgShape"></path><path fill="#ffb9b0" d="M279.3898,575.6558s11.7579,14.697,9.9488,16.3931c-1.8088,1.6958-7.6876,2.9391-7.6876,2.9391l-4.1832,12.6623-9.3835-7.8007.5652-5.3138s-1.3566-9.6096,1.9221-14.5838A9.70255,9.70255,0,0,1,279.3898,575.6558Z" class="colorffb9b0 svgShape"></path><path fill="#1b3854" d="M258.7726,581.4564a3.30651,3.30651,0,0,1,1.0733-6.2984,3.29983,3.29983,0,0,1,3.2334-4.0651c.0782,0,.1515.0177.2285.023-.0038-.0772-.023-.1501-.023-.2283a4.70466,4.70466,0,0,1,4.7047-4.7049,4.65266,4.65266,0,0,1,2.2491.5965,4.6529,4.6529,0,0,1,6.9913-1.6174c.0814-.0078.1603-.0246.244-.0246a2.54769,2.54769,0,0,1,1.2561.34,2.85848,2.85848,0,0,1,4.4459,2.6109,3.31256,3.31256,0,0,1-.2488,6.1993,3.28659,3.28659,0,0,1,.4092,1.5664,3.23038,3.23038,0,0,1-3.7814,3.277,2.40441,2.40441,0,0,1-2.6118,1.3519,2.45868,2.45868,0,0,1-1.7609,2.8408,10.56064,10.56064,0,0,1,.4392,2.2058c0,1.0551-2.5627-.9045-2.5627-.9045-5.8788,2.5626,2.8643,7.2354,2.8643,7.2354s-2.7136,6.2558-8.3662,4.6729a5.98376,5.98376,0,0,1-3.6382-2.5588,32.23951,32.23951,0,0,1-3.8078-6.6198c0-.0467.0118-.0899.0137-.1362a3.301,3.301,0,0,1-1.3519-5.7619Z" class="color1b3854 svgShape"></path><path fill="#d69d0d" d="M281.5266,610.5807s19.3437,13.6888,19.7959,19.1157c.4523,5.4264-7.4614,9.7227-11.5317,5.6526C285.7208,631.2789,281.5266,610.5807,281.5266,610.5807Z" class="colord69d0d svgShape"></path><path fill="#eaae07" d="M287.6765,602.1191s4.1496,31.6471,8.6719,34.1344c4.5219,2.4872,7.9137-7.9139,4.0696-19.6715-3.8438-11.7581-6.6366-15.3673-6.6366-15.3673Z" class="coloreaae07 svgShape"></path><path fill="#ffc103" d="M267.4736,601.1339c-20.3129,7.1693-23.0014,49.5875-13.1436,76.1735,3.8995,10.5169,34.2044-5.9447,35.6871-8.7197,3.2538-6.0901-1.3568-27.5858-1.3568-27.5858s-1.1305-25.5504-4.522-29.8467C280.7465,606.8593,272.7874,599.2585,267.4736,601.1339Z" class="colorffc103 svgShape"></path><path fill="url(#l)" d="M264.7384,616.1834s11.096,26.1793,11.6866,26.6524c2.5225,2.0175,12.7797,9.4162,12.7797,9.4162l.5044-8.828Z" opacity=".2"></path><path fill="#eaae07" d="M260.6228,611.6073l18.541,23.9679s7.6876,14.6971,11.9839,11.3056c4.2962-3.3918,4.9744-7.9138.4521-16.5064-4.5223-8.592-14.6973-24.1936-14.6973-24.1936S262.2053,597.5885,260.6228,611.6073Z" class="coloreaae07 svgShape"></path></g></svg></g></svg>